<svg width="232" height="153" viewBox="0 0 232 153" fill="none" xmlns="http://www.w3.org/2000/svg">
<g opacity="0.3" clip-path="url(#clip0_15_181)">
<g clip-path="url(#clip1_15_181)">
<path d="M120.146 114.254L46.542 71.7583" stroke="#705FFF" stroke-width="1.60968" stroke-linecap="round"/>
<path d="M113.561 64.1699L224.525 128.235" stroke="#705FFF" stroke-width="1.60968" stroke-linecap="round"/>
<path d="M47.9491 60.3035L7.24365 36.8022" stroke="#705FFF" stroke-width="1.60968" stroke-linecap="round"/>
<path d="M105.435 86.6152L146.14 110.117" stroke="#705FFF" stroke-width="1.60968" stroke-linecap="round"/>
<path d="M155.434 139.088L129.226 123.957" stroke="white" stroke-width="1.60968" stroke-linecap="round"/>
<path d="M196.698 126.853L170.491 111.722" stroke="white" stroke-width="1.60968" stroke-linecap="round"/>
<path d="M170.543 82.0138L144.335 66.8828" stroke="white" stroke-width="1.60968" stroke-linecap="round"/>
<path d="M70.3574 54.6533L96.5651 69.7843" stroke="white" stroke-width="1.60968" stroke-linecap="round"/>
<path d="M88.1994 82.9843L69.7983 72.3604" stroke="#20D9A1" stroke-width="1.60968" stroke-linecap="round"/>
<path d="M69.4961 32.9668L87.8972 43.5907" stroke="#20D9A1" stroke-width="1.60968" stroke-linecap="round"/>
</g>
</g>
<g clip-path="url(#clip2_15_181)">
<g clip-path="url(#clip3_15_181)">
<g opacity="0.3">
<path d="M229.401 97.0407C228.48 97.0407 227.734 97.7871 227.734 98.7078C227.734 99.6286 228.48 100.375 229.401 100.375C230.322 100.375 231.068 99.6286 231.068 98.7078C231.068 97.7871 230.322 97.0407 229.401 97.0407Z" fill="white"/>
<path d="M229.401 87.0378C228.48 87.0378 227.734 87.7842 227.734 88.7049C227.734 89.6257 228.48 90.3721 229.401 90.3721C230.322 90.3721 231.068 89.6257 231.068 88.7049C231.068 87.7842 230.322 87.0378 229.401 87.0378Z" fill="white"/>
<path d="M229.401 77.0348C228.48 77.0348 227.734 77.7812 227.734 78.702C227.734 79.6227 228.48 80.3691 229.401 80.3691C230.322 80.3691 231.068 79.6227 231.068 78.702C231.068 77.7812 230.322 77.0348 229.401 77.0348Z" fill="white"/>
<path d="M229.401 67.0309C228.48 67.0309 227.734 67.7773 227.734 68.6981C227.734 69.6188 228.48 70.3652 229.401 70.3652C230.322 70.3652 231.068 69.6188 231.068 68.6981C231.068 67.7773 230.322 67.0309 229.401 67.0309Z" fill="white"/>
<path d="M229.401 57.029C228.48 57.029 227.734 57.7754 227.734 58.6961C227.734 59.6169 228.48 60.3633 229.401 60.3633C230.322 60.3633 231.068 59.6169 231.068 58.6961C231.068 57.7754 230.322 57.029 229.401 57.029Z" fill="white"/>
<path d="M219.398 117.047C218.478 117.047 217.731 117.793 217.731 118.714C217.731 119.634 218.478 120.381 219.398 120.381C220.319 120.381 221.065 119.634 221.065 118.714C221.065 117.793 220.319 117.047 219.398 117.047Z" fill="white"/>
<path d="M219.398 107.043C218.478 107.043 217.731 107.789 217.731 108.71C217.731 109.631 218.478 110.377 219.398 110.377C220.319 110.377 221.065 109.631 221.065 108.71C221.065 107.789 220.319 107.043 219.398 107.043Z" fill="white"/>
<path d="M227.4 107.043C226.479 107.043 225.733 107.789 225.733 108.71C225.733 109.631 226.479 110.377 227.4 110.377C228.321 110.377 229.067 109.631 229.067 108.71C229.067 107.789 228.321 107.043 227.4 107.043Z" fill="white"/>
<path d="M219.398 97.0407C218.478 97.0407 217.731 97.7871 217.731 98.7078C217.731 99.6286 218.478 100.375 219.398 100.375C220.319 100.375 221.065 99.6286 221.065 98.7078C221.065 97.7871 220.319 97.0407 219.398 97.0407Z" fill="white"/>
<path d="M219.398 87.0378C218.478 87.0378 217.731 87.7842 217.731 88.7049C217.731 89.6257 218.478 90.3721 219.398 90.3721C220.319 90.3721 221.065 89.6257 221.065 88.7049C221.065 87.7842 220.319 87.0378 219.398 87.0378Z" fill="white"/>
<path d="M219.398 77.0348C218.478 77.0348 217.731 77.7812 217.731 78.702C217.731 79.6227 218.478 80.3691 219.398 80.3691C220.319 80.3691 221.065 79.6227 221.065 78.702C221.065 77.7812 220.319 77.0348 219.398 77.0348Z" fill="white"/>
<path d="M219.398 67.0309C218.478 67.0309 217.731 67.7773 217.731 68.6981C217.731 69.6188 218.478 70.3652 219.398 70.3652C220.319 70.3652 221.065 69.6188 221.065 68.6981C221.065 67.7773 220.319 67.0309 219.398 67.0309Z" fill="white"/>
<path d="M219.398 57.029C218.478 57.029 217.731 57.7754 217.731 58.6961C217.731 59.6169 218.478 60.3633 219.398 60.3633C220.319 60.3633 221.065 59.6169 221.065 58.6961C221.065 57.7754 220.319 57.029 219.398 57.029Z" fill="white"/>
<path d="M219.398 47.026C218.478 47.026 217.731 47.7724 217.731 48.6932C217.731 49.6139 218.478 50.3604 219.398 50.3604C220.319 50.3604 221.065 49.6139 221.065 48.6932C221.065 47.7724 220.319 47.026 219.398 47.026Z" fill="white"/>
<path d="M209.394 117.047C208.474 117.047 207.727 117.793 207.727 118.714C207.727 119.634 208.474 120.381 209.394 120.381C210.315 120.381 211.062 119.634 211.062 118.714C211.062 117.793 210.315 117.047 209.394 117.047Z" fill="white"/>
<path d="M209.394 123.715C208.474 123.715 207.727 124.462 207.727 125.383C207.727 126.303 208.474 127.05 209.394 127.05C210.315 127.05 211.062 126.303 211.062 125.383C211.062 124.462 210.315 123.715 209.394 123.715Z" fill="white"/>
<path d="M209.394 107.043C208.474 107.043 207.727 107.789 207.727 108.71C207.727 109.631 208.474 110.377 209.394 110.377C210.315 110.377 211.062 109.631 211.062 108.71C211.062 107.789 210.315 107.043 209.394 107.043Z" fill="white"/>
<path d="M209.394 97.0407C208.474 97.0407 207.727 97.7871 207.727 98.7078C207.727 99.6286 208.474 100.375 209.394 100.375C210.315 100.375 211.062 99.6286 211.062 98.7078C211.062 97.7871 210.315 97.0407 209.394 97.0407Z" fill="white"/>
<path d="M209.394 87.0378C208.474 87.0378 207.727 87.7842 207.727 88.7049C207.727 89.6257 208.474 90.3721 209.394 90.3721C210.315 90.3721 211.062 89.6257 211.062 88.7049C211.062 87.7842 210.315 87.0378 209.394 87.0378Z" fill="white"/>
<path d="M209.394 77.0348C208.474 77.0348 207.727 77.7812 207.727 78.702C207.727 79.6227 208.474 80.3691 209.394 80.3691C210.315 80.3691 211.062 79.6227 211.062 78.702C211.062 77.7812 210.315 77.0348 209.394 77.0348Z" fill="white"/>
<path d="M209.394 67.0309C208.474 67.0309 207.727 67.7773 207.727 68.6981C207.727 69.6188 208.474 70.3652 209.394 70.3652C210.315 70.3652 211.062 69.6188 211.062 68.6981C211.062 67.7773 210.315 67.0309 209.394 67.0309Z" fill="white"/>
<path d="M209.394 57.029C208.474 57.029 207.727 57.7754 207.727 58.6961C207.727 59.6169 208.474 60.3633 209.394 60.3633C210.315 60.3633 211.062 59.6169 211.062 58.6961C211.062 57.7754 210.315 57.029 209.394 57.029Z" fill="white"/>
<path d="M209.394 47.026C208.474 47.026 207.727 47.7724 207.727 48.6932C207.727 49.6139 208.474 50.3604 209.394 50.3604C210.315 50.3604 211.062 49.6139 211.062 48.6932C211.062 47.7724 210.315 47.026 209.394 47.026Z" fill="white"/>
<path d="M199.392 117.047C198.472 117.047 197.725 117.793 197.725 118.714C197.725 119.634 198.472 120.381 199.392 120.381C200.313 120.381 201.06 119.634 201.06 118.714C201.06 117.793 200.313 117.047 199.392 117.047Z" fill="white"/>
<path d="M199.391 107.043C198.471 107.043 197.724 107.789 197.724 108.71C197.724 109.631 198.471 110.377 199.391 110.377C200.312 110.377 201.059 109.631 201.059 108.71C201.059 107.789 200.312 107.043 199.391 107.043Z" fill="white"/>
<path d="M199.391 97.0407C198.471 97.0407 197.724 97.7871 197.724 98.7078C197.724 99.6286 198.471 100.375 199.391 100.375C200.312 100.375 201.059 99.6286 201.059 98.7078C201.059 97.7871 200.312 97.0407 199.391 97.0407Z" fill="white"/>
<path d="M199.391 87.0378C198.471 87.0378 197.724 87.7842 197.724 88.7049C197.724 89.6257 198.471 90.3721 199.391 90.3721C200.312 90.3721 201.059 89.6257 201.059 88.7049C201.059 87.7842 200.312 87.0378 199.391 87.0378Z" fill="white"/>
<path d="M199.392 77.0348C198.472 77.0348 197.725 77.7812 197.725 78.702C197.725 79.6227 198.472 80.3691 199.392 80.3691C200.313 80.3691 201.06 79.6227 201.06 78.702C201.06 77.7812 200.313 77.0348 199.392 77.0348Z" fill="white"/>
<path d="M199.391 67.0309C198.471 67.0309 197.724 67.7773 197.724 68.6981C197.724 69.6188 198.471 70.3652 199.391 70.3652C200.312 70.3652 201.059 69.6188 201.059 68.6981C201.059 67.7773 200.312 67.0309 199.391 67.0309Z" fill="white"/>
<path d="M199.391 57.029C198.471 57.029 197.724 57.7754 197.724 58.6961C197.724 59.6169 198.471 60.3633 199.391 60.3633C200.312 60.3633 201.059 59.6169 201.059 58.6961C201.059 57.7754 200.312 57.029 199.391 57.029Z" fill="white"/>
<path d="M199.391 47.026C198.471 47.026 197.724 47.7724 197.724 48.6932C197.724 49.6139 198.471 50.3604 199.391 50.3604C200.312 50.3604 201.059 49.6139 201.059 48.6932C201.059 47.7724 200.312 47.026 199.391 47.026Z" fill="white"/>
<path d="M189.39 117.047C188.47 117.047 187.723 117.793 187.723 118.714C187.723 119.634 188.47 120.381 189.39 120.381C190.311 120.381 191.058 119.634 191.058 118.714C191.058 117.793 190.311 117.047 189.39 117.047Z" fill="white"/>
<path d="M189.39 107.043C188.47 107.043 187.723 107.789 187.723 108.71C187.723 109.631 188.47 110.377 189.39 110.377C190.311 110.377 191.058 109.631 191.058 108.71C191.058 107.789 190.311 107.043 189.39 107.043Z" fill="white"/>
<path d="M189.39 97.0407C188.47 97.0407 187.723 97.7871 187.723 98.7078C187.723 99.6286 188.47 100.375 189.39 100.375C190.311 100.375 191.058 99.6286 191.058 98.7078C191.058 97.7871 190.311 97.0407 189.39 97.0407Z" fill="white"/>
<path d="M189.39 87.0378C188.47 87.0378 187.723 87.7842 187.723 88.7049C187.723 89.6257 188.47 90.3721 189.39 90.3721C190.311 90.3721 191.058 89.6257 191.058 88.7049C191.058 87.7842 190.311 87.0378 189.39 87.0378Z" fill="white"/>
<path d="M189.39 77.0348C188.47 77.0348 187.723 77.7812 187.723 78.702C187.723 79.6227 188.47 80.3691 189.39 80.3691C190.311 80.3691 191.058 79.6227 191.058 78.702C191.058 77.7812 190.311 77.0348 189.39 77.0348Z" fill="white"/>
<path d="M189.39 67.0309C188.47 67.0309 187.723 67.7773 187.723 68.6981C187.723 69.6188 188.47 70.3652 189.39 70.3652C190.311 70.3652 191.058 69.6188 191.058 68.6981C191.058 67.7773 190.311 67.0309 189.39 67.0309Z" fill="white"/>
<path d="M189.39 57.029C188.47 57.029 187.723 57.7754 187.723 58.6961C187.723 59.6169 188.47 60.3633 189.39 60.3633C190.311 60.3633 191.058 59.6169 191.058 58.6961C191.058 57.7754 190.311 57.029 189.39 57.029Z" fill="white"/>
<path d="M189.39 47.026C188.47 47.026 187.723 47.7724 187.723 48.6932C187.723 49.6139 188.47 50.3604 189.39 50.3604C190.311 50.3604 191.058 49.6139 191.058 48.6932C191.058 47.7724 190.311 47.026 189.39 47.026Z" fill="white"/>
<path d="M179.389 117.047C178.468 117.047 177.721 117.793 177.721 118.714C177.721 119.634 178.468 120.381 179.389 120.381C180.309 120.381 181.056 119.634 181.056 118.714C181.056 117.793 180.309 117.047 179.389 117.047Z" fill="white"/>
<path d="M179.389 107.043C178.468 107.043 177.721 107.789 177.721 108.71C177.721 109.631 178.468 110.377 179.389 110.377C180.309 110.377 181.056 109.631 181.056 108.71C181.056 107.789 180.309 107.043 179.389 107.043Z" fill="white"/>
<path d="M179.388 97.0407C178.467 97.0407 177.72 97.7871 177.72 98.7078C177.72 99.6286 178.467 100.375 179.388 100.375C180.308 100.375 181.055 99.6286 181.055 98.7078C181.055 97.7871 180.308 97.0407 179.388 97.0407Z" fill="white"/>
<path d="M179.388 87.0378C178.467 87.0378 177.72 87.7842 177.72 88.7049C177.72 89.6257 178.467 90.3721 179.388 90.3721C180.308 90.3721 181.055 89.6257 181.055 88.7049C181.055 87.7842 180.308 87.0378 179.388 87.0378Z" fill="white"/>
<path d="M179.389 77.0348C178.468 77.0348 177.721 77.7812 177.721 78.702C177.721 79.6227 178.468 80.3691 179.389 80.3691C180.309 80.3691 181.056 79.6227 181.056 78.702C181.056 77.7812 180.309 77.0348 179.389 77.0348Z" fill="white"/>
<path d="M179.389 67.0309C178.468 67.0309 177.721 67.7773 177.721 68.6981C177.721 69.6188 178.468 70.3652 179.389 70.3652C180.309 70.3652 181.056 69.6188 181.056 68.6981C181.056 67.7773 180.309 67.0309 179.389 67.0309Z" fill="white"/>
<path d="M179.388 57.029C178.467 57.029 177.72 57.7754 177.72 58.6961C177.72 59.6169 178.467 60.3633 179.388 60.3633C180.308 60.3633 181.055 59.6169 181.055 58.6961C181.055 57.7754 180.308 57.029 179.388 57.029Z" fill="white"/>
<path d="M179.388 47.026C178.467 47.026 177.72 47.7724 177.72 48.6932C177.72 49.6139 178.467 50.3604 179.388 50.3604C180.308 50.3604 181.055 49.6139 181.055 48.6932C181.055 47.7724 180.308 47.026 179.388 47.026Z" fill="white"/>
<path d="M169.385 117.047C168.464 117.047 167.717 117.793 167.717 118.714C167.717 119.634 168.464 120.381 169.385 120.381C170.305 120.381 171.052 119.634 171.052 118.714C171.052 117.793 170.305 117.047 169.385 117.047Z" fill="white"/>
<path d="M169.385 107.043C168.464 107.043 167.717 107.789 167.717 108.71C167.717 109.631 168.464 110.377 169.385 110.377C170.305 110.377 171.052 109.631 171.052 108.71C171.052 107.789 170.305 107.043 169.385 107.043Z" fill="white"/>
<path d="M169.384 97.0407C168.463 97.0407 167.716 97.7871 167.716 98.7078C167.716 99.6286 168.463 100.375 169.384 100.375C170.304 100.375 171.051 99.6286 171.051 98.7078C171.051 97.7871 170.304 97.0407 169.384 97.0407Z" fill="white"/>
<path d="M169.384 87.0378C168.463 87.0378 167.716 87.7842 167.716 88.7049C167.716 89.6257 168.463 90.3721 169.384 90.3721C170.304 90.3721 171.051 89.6257 171.051 88.7049C171.051 87.7842 170.304 87.0378 169.384 87.0378Z" fill="white"/>
<path d="M169.385 77.0348C168.464 77.0348 167.717 77.7812 167.717 78.702C167.717 79.6227 168.464 80.3691 169.385 80.3691C170.305 80.3691 171.052 79.6227 171.052 78.702C171.052 77.7812 170.305 77.0348 169.385 77.0348Z" fill="white"/>
<path d="M169.385 67.0309C168.464 67.0309 167.717 67.7773 167.717 68.6981C167.717 69.6188 168.464 70.3652 169.385 70.3652C170.305 70.3652 171.052 69.6188 171.052 68.6981C171.052 67.7773 170.305 67.0309 169.385 67.0309Z" fill="white"/>
<path d="M169.384 57.029C168.463 57.029 167.716 57.7754 167.716 58.6961C167.716 59.6169 168.463 60.3633 169.384 60.3633C170.304 60.3633 171.051 59.6169 171.051 58.6961C171.051 57.7754 170.304 57.029 169.384 57.029Z" fill="white"/>
<path d="M169.384 47.026C168.463 47.026 167.716 47.7724 167.716 48.6932C167.716 49.6139 168.463 50.3604 169.384 50.3604C170.304 50.3604 171.051 49.6139 171.051 48.6932C171.051 47.7724 170.304 47.026 169.384 47.026Z" fill="white"/>
<path d="M169.385 117.047C168.464 117.047 167.717 117.793 167.717 118.714C167.717 119.634 168.464 120.381 169.385 120.381C170.305 120.381 171.052 119.634 171.052 118.714C171.052 117.793 170.305 117.047 169.385 117.047Z" fill="white"/>
<path d="M169.385 107.043C168.464 107.043 167.717 107.789 167.717 108.71C167.717 109.631 168.464 110.377 169.385 110.377C170.305 110.377 171.052 109.631 171.052 108.71C171.052 107.789 170.305 107.043 169.385 107.043Z" fill="white"/>
<path d="M169.384 97.0407C168.463 97.0407 167.716 97.7871 167.716 98.7078C167.716 99.6286 168.463 100.375 169.384 100.375C170.304 100.375 171.051 99.6286 171.051 98.7078C171.051 97.7871 170.304 97.0407 169.384 97.0407Z" fill="white"/>
<path d="M169.384 87.0378C168.463 87.0378 167.716 87.7842 167.716 88.7049C167.716 89.6257 168.463 90.3721 169.384 90.3721C170.304 90.3721 171.051 89.6257 171.051 88.7049C171.051 87.7842 170.304 87.0378 169.384 87.0378Z" fill="white"/>
<path d="M169.385 77.0348C168.464 77.0348 167.717 77.7812 167.717 78.702C167.717 79.6227 168.464 80.3691 169.385 80.3691C170.305 80.3691 171.052 79.6227 171.052 78.702C171.052 77.7812 170.305 77.0348 169.385 77.0348Z" fill="white"/>
<path d="M169.385 67.0309C168.464 67.0309 167.717 67.7773 167.717 68.6981C167.717 69.6188 168.464 70.3652 169.385 70.3652C170.305 70.3652 171.052 69.6188 171.052 68.6981C171.052 67.7773 170.305 67.0309 169.385 67.0309Z" fill="white"/>
<path d="M169.384 57.029C168.463 57.029 167.716 57.7754 167.716 58.6961C167.716 59.6169 168.463 60.3633 169.384 60.3633C170.304 60.3633 171.051 59.6169 171.051 58.6961C171.051 57.7754 170.304 57.029 169.384 57.029Z" fill="white"/>
<path d="M169.384 47.026C168.463 47.026 167.716 47.7724 167.716 48.6932C167.716 49.6139 168.463 50.3604 169.384 50.3604C170.304 50.3604 171.051 49.6139 171.051 48.6932C171.051 47.7724 170.304 47.026 169.384 47.026Z" fill="white"/>
<path d="M159.381 117.047C158.46 117.047 157.714 117.793 157.714 118.714C157.714 119.634 158.46 120.381 159.381 120.381C160.301 120.381 161.048 119.634 161.048 118.714C161.048 117.793 160.301 117.047 159.381 117.047Z" fill="white"/>
<path d="M159.381 107.043C158.46 107.043 157.714 107.789 157.714 108.71C157.714 109.631 158.46 110.377 159.381 110.377C160.301 110.377 161.048 109.631 161.048 108.71C161.048 107.789 160.301 107.043 159.381 107.043Z" fill="white"/>
<path d="M159.381 97.0407C158.46 97.0407 157.714 97.7871 157.714 98.7078C157.714 99.6286 158.46 100.375 159.381 100.375C160.301 100.375 161.048 99.6286 161.048 98.7078C161.048 97.7871 160.301 97.0407 159.381 97.0407Z" fill="white"/>
<path d="M159.381 87.0378C158.46 87.0378 157.714 87.7842 157.714 88.7049C157.714 89.6257 158.46 90.3721 159.381 90.3721C160.301 90.3721 161.048 89.6257 161.048 88.7049C161.048 87.7842 160.301 87.0378 159.381 87.0378Z" fill="white"/>
<path d="M159.381 77.0348C158.46 77.0348 157.714 77.7812 157.714 78.702C157.714 79.6227 158.46 80.3691 159.381 80.3691C160.301 80.3691 161.048 79.6227 161.048 78.702C161.048 77.7812 160.301 77.0348 159.381 77.0348Z" fill="white"/>
<path d="M159.381 67.0309C158.46 67.0309 157.714 67.7773 157.714 68.6981C157.714 69.6188 158.46 70.3652 159.381 70.3652C160.301 70.3652 161.048 69.6188 161.048 68.6981C161.048 67.7773 160.301 67.0309 159.381 67.0309Z" fill="white"/>
<path d="M159.381 57.029C158.46 57.029 157.714 57.7754 157.714 58.6961C157.714 59.6169 158.46 60.3633 159.381 60.3633C160.301 60.3633 161.048 59.6169 161.048 58.6961C161.048 57.7754 160.301 57.029 159.381 57.029Z" fill="white"/>
<path d="M159.381 47.026C158.46 47.026 157.714 47.7724 157.714 48.6932C157.714 49.6139 158.46 50.3604 159.381 50.3604C160.301 50.3604 161.048 49.6139 161.048 48.6932C161.048 47.7724 160.301 47.026 159.381 47.026Z" fill="white"/>
<path d="M149.377 107.043C148.456 107.043 147.71 107.789 147.71 108.71C147.71 109.631 148.456 110.377 149.377 110.377C150.298 110.377 151.044 109.631 151.044 108.71C151.044 107.789 150.298 107.043 149.377 107.043Z" fill="white"/>
<path d="M149.377 97.0407C148.456 97.0407 147.71 97.7871 147.71 98.7078C147.71 99.6286 148.456 100.375 149.377 100.375C150.298 100.375 151.044 99.6286 151.044 98.7078C151.044 97.7871 150.298 97.0407 149.377 97.0407Z" fill="white"/>
<path d="M149.377 87.0378C148.456 87.0378 147.71 87.7842 147.71 88.7049C147.71 89.6257 148.456 90.3721 149.377 90.3721C150.298 90.3721 151.044 89.6257 151.044 88.7049C151.044 87.7842 150.298 87.0378 149.377 87.0378Z" fill="white"/>
<path d="M149.377 77.0348C148.456 77.0348 147.71 77.7812 147.71 78.702C147.71 79.6227 148.456 80.3691 149.377 80.3691C150.298 80.3691 151.044 79.6227 151.044 78.702C151.044 77.7812 150.298 77.0348 149.377 77.0348Z" fill="white"/>
<path d="M149.377 67.0309C148.456 67.0309 147.71 67.7773 147.71 68.6981C147.71 69.6188 148.456 70.3652 149.377 70.3652C150.298 70.3652 151.044 69.6188 151.044 68.6981C151.044 67.7773 150.298 67.0309 149.377 67.0309Z" fill="white"/>
<path d="M149.377 57.029C148.456 57.029 147.71 57.7754 147.71 58.6961C147.71 59.6169 148.456 60.3633 149.377 60.3633C150.298 60.3633 151.044 59.6169 151.044 58.6961C151.044 57.7754 150.298 57.029 149.377 57.029Z" fill="white"/>
<path d="M149.377 47.026C148.456 47.026 147.71 47.7724 147.71 48.6932C147.71 49.6139 148.456 50.3604 149.377 50.3604C150.298 50.3604 151.044 49.6139 151.044 48.6932C151.044 47.7724 150.298 47.026 149.377 47.026Z" fill="white"/>
<path d="M139.374 97.0407C138.453 97.0407 137.707 97.7871 137.707 98.7078C137.707 99.6286 138.453 100.375 139.374 100.375C140.295 100.375 141.041 99.6286 141.041 98.7078C141.041 97.7871 140.295 97.0407 139.374 97.0407Z" fill="white"/>
<path d="M139.374 87.0378C138.453 87.0378 137.707 87.7842 137.707 88.7049C137.707 89.6257 138.453 90.3721 139.374 90.3721C140.295 90.3721 141.041 89.6257 141.041 88.7049C141.041 87.7842 140.295 87.0378 139.374 87.0378Z" fill="white"/>
<path d="M139.374 77.0348C138.453 77.0348 137.707 77.7812 137.707 78.702C137.707 79.6227 138.453 80.3691 139.374 80.3691C140.295 80.3691 141.041 79.6227 141.041 78.702C141.041 77.7812 140.295 77.0348 139.374 77.0348Z" fill="white"/>
<path d="M139.374 67.0309C138.453 67.0309 137.707 67.7773 137.707 68.6981C137.707 69.6188 138.453 70.3652 139.374 70.3652C140.295 70.3652 141.041 69.6188 141.041 68.6981C141.041 67.7773 140.295 67.0309 139.374 67.0309Z" fill="white"/>
</g>
</g>
</g>
<defs>
<clipPath id="clip0_15_181">
<rect width="232" height="152.213" fill="white"/>
</clipPath>
<clipPath id="clip1_15_181">
<rect width="232" height="167" fill="white"/>
</clipPath>
<clipPath id="clip2_15_181">
<rect width="95" height="85.6765" fill="white" transform="translate(137 40.8691)"/>
</clipPath>
<clipPath id="clip3_15_181">
<rect width="95" height="94" fill="white" transform="translate(137 36.8691)"/>
</clipPath>
</defs>
</svg>
