<svg width="288" height="207" viewBox="0 0 288 207" fill="none" xmlns="http://www.w3.org/2000/svg">
<path d="M107.188 88.9569L198.641 36.157" stroke="#705FFF" stroke-width="2" stroke-linecap="round"/>
<path d="M165.171 112.986L27.2998 192.586" stroke="#705FFF" stroke-width="2" stroke-linecap="round"/>
<path d="M210.092 44.7891L260.668 15.5891" stroke="#5F39FF" stroke-width="2" stroke-linecap="round"/>
<path d="M146.068 90.2969L95.4927 119.497" stroke="#705FFF" stroke-width="2" stroke-linecap="round"/>
<path d="M58.5439 111.5L91.1065 92.7" stroke="white" stroke-width="2" stroke-linecap="round"/>
<path d="M46.0732 163.502L78.6358 144.702" stroke="#20D9A1" stroke-width="2" stroke-linecap="round"/>
<path d="M110.571 163.215L143.134 144.415" stroke="white" stroke-width="2" stroke-linecap="round"/>
<path d="M202.25 72.4102L169.687 91.2102" stroke="#5F39FF" stroke-width="2" stroke-linecap="round"/>
<path d="M160.682 74.0079L183.545 60.8079" stroke="#20D9A1" stroke-width="2" stroke-linecap="round"/>
<path d="M226.121 84.9551L203.258 98.1551" stroke="#20D9A1" stroke-width="2" stroke-linecap="round"/>
<g clip-path="url(#clip0_9_2388)">
<g clip-path="url(#clip1_9_2388)">
<g clip-path="url(#clip2_9_2388)">
<g opacity="0.3">
<path d="M154.071 55.4282C155.215 55.4282 156.143 54.5008 156.143 53.3568C156.143 52.2128 155.215 51.2854 154.071 51.2854C152.927 51.2854 152 52.2128 152 53.3568C152 54.5008 152.927 55.4282 154.071 55.4282Z" fill="#D6D1FF"/>
<path d="M154.071 67.8567C155.215 67.8567 156.143 66.9293 156.143 65.7853C156.143 64.6413 155.215 63.7139 154.071 63.7139C152.927 63.7139 152 64.6413 152 65.7853C152 66.9293 152.927 67.8567 154.071 67.8567Z" fill="#D6D1FF"/>
<path d="M154.071 80.2852C155.215 80.2852 156.143 79.3578 156.143 78.2137C156.143 77.0697 155.215 76.1423 154.071 76.1423C152.927 76.1423 152 77.0697 152 78.2137C152 79.3578 152.927 80.2852 154.071 80.2852Z" fill="#D6D1FF"/>
<path d="M154.071 92.7136C155.215 92.7136 156.143 91.7862 156.143 90.6422C156.143 89.4982 155.215 88.5708 154.071 88.5708C152.927 88.5708 152 89.4982 152 90.6422C152 91.7862 152.927 92.7136 154.071 92.7136Z" fill="#D6D1FF"/>
<path d="M154.071 105.142C155.215 105.142 156.143 104.215 156.143 103.071C156.143 101.927 155.215 100.999 154.071 100.999C152.927 100.999 152 101.927 152 103.071C152 104.215 152.927 105.142 154.071 105.142Z" fill="#D6D1FF"/>
<path d="M166.5 30.5713C167.644 30.5713 168.572 29.6439 168.572 28.4999C168.572 27.3559 167.644 26.4285 166.5 26.4285C165.356 26.4285 164.429 27.3559 164.429 28.4999C164.429 29.6439 165.356 30.5713 166.5 30.5713Z" fill="#D6D1FF"/>
<path d="M166.5 42.9998C167.644 42.9998 168.572 42.0724 168.572 40.9283C168.572 39.7843 167.644 38.8569 166.5 38.8569C165.356 38.8569 164.429 39.7843 164.429 40.9283C164.429 42.0724 165.356 42.9998 166.5 42.9998Z" fill="#D6D1FF"/>
<path d="M156.558 42.9998C157.702 42.9998 158.629 42.0724 158.629 40.9283C158.629 39.7843 157.702 38.8569 156.558 38.8569C155.414 38.8569 154.486 39.7843 154.486 40.9283C154.486 42.0724 155.414 42.9998 156.558 42.9998Z" fill="#D6D1FF"/>
<path d="M166.5 55.4282C167.644 55.4282 168.572 54.5008 168.572 53.3568C168.572 52.2128 167.644 51.2854 166.5 51.2854C165.356 51.2854 164.429 52.2128 164.429 53.3568C164.429 54.5008 165.356 55.4282 166.5 55.4282Z" fill="#D6D1FF"/>
<path d="M166.5 67.8567C167.644 67.8567 168.572 66.9293 168.572 65.7853C168.572 64.6413 167.644 63.7139 166.5 63.7139C165.356 63.7139 164.429 64.6413 164.429 65.7853C164.429 66.9293 165.356 67.8567 166.5 67.8567Z" fill="#D6D1FF"/>
<path d="M166.5 80.2852C167.644 80.2852 168.572 79.3578 168.572 78.2137C168.572 77.0697 167.644 76.1423 166.5 76.1423C165.356 76.1423 164.429 77.0697 164.429 78.2137C164.429 79.3578 165.356 80.2852 166.5 80.2852Z" fill="#D6D1FF"/>
<path d="M166.5 92.7136C167.644 92.7136 168.572 91.7862 168.572 90.6422C168.572 89.4982 167.644 88.5708 166.5 88.5708C165.356 88.5708 164.429 89.4982 164.429 90.6422C164.429 91.7862 165.356 92.7136 166.5 92.7136Z" fill="#D6D1FF"/>
<path d="M166.5 105.142C167.644 105.142 168.572 104.215 168.572 103.071C168.572 101.927 167.644 100.999 166.5 100.999C165.356 100.999 164.429 101.927 164.429 103.071C164.429 104.215 165.356 105.142 166.5 105.142Z" fill="#D6D1FF"/>
<path d="M166.5 117.57C167.644 117.57 168.572 116.643 168.572 115.499C168.572 114.355 167.644 113.427 166.5 113.427C165.356 113.427 164.429 114.355 164.429 115.499C164.429 116.643 165.356 117.57 166.5 117.57Z" fill="#D6D1FF"/>
<path d="M178.93 30.5713C180.074 30.5713 181.001 29.6439 181.001 28.4999C181.001 27.3559 180.074 26.4285 178.93 26.4285C177.786 26.4285 176.858 27.3559 176.858 28.4999C176.858 29.6439 177.786 30.5713 178.93 30.5713Z" fill="#D6D1FF"/>
<path d="M178.93 22.2856C180.074 22.2856 181.001 21.3582 181.001 20.2142C181.001 19.0702 180.074 18.1428 178.93 18.1428C177.786 18.1428 176.858 19.0702 176.858 20.2142C176.858 21.3582 177.786 22.2856 178.93 22.2856Z" fill="#D6D1FF"/>
<path d="M178.93 42.9998C180.074 42.9998 181.001 42.0724 181.001 40.9283C181.001 39.7843 180.074 38.8569 178.93 38.8569C177.786 38.8569 176.858 39.7843 176.858 40.9283C176.858 42.0724 177.786 42.9998 178.93 42.9998Z" fill="#D6D1FF"/>
<path d="M178.93 55.4282C180.074 55.4282 181.001 54.5008 181.001 53.3568C181.001 52.2128 180.074 51.2854 178.93 51.2854C177.786 51.2854 176.858 52.2128 176.858 53.3568C176.858 54.5008 177.786 55.4282 178.93 55.4282Z" fill="#D6D1FF"/>
<path d="M178.93 67.8567C180.074 67.8567 181.001 66.9293 181.001 65.7853C181.001 64.6413 180.074 63.7139 178.93 63.7139C177.786 63.7139 176.858 64.6413 176.858 65.7853C176.858 66.9293 177.786 67.8567 178.93 67.8567Z" fill="#D6D1FF"/>
<path d="M178.93 80.2852C180.074 80.2852 181.001 79.3578 181.001 78.2137C181.001 77.0697 180.074 76.1423 178.93 76.1423C177.786 76.1423 176.858 77.0697 176.858 78.2137C176.858 79.3578 177.786 80.2852 178.93 80.2852Z" fill="#D6D1FF"/>
<path d="M178.93 92.7136C180.074 92.7136 181.001 91.7862 181.001 90.6422C181.001 89.4982 180.074 88.5708 178.93 88.5708C177.786 88.5708 176.858 89.4982 176.858 90.6422C176.858 91.7862 177.786 92.7136 178.93 92.7136Z" fill="#D6D1FF"/>
<path d="M178.93 105.142C180.074 105.142 181.001 104.215 181.001 103.071C181.001 101.927 180.074 100.999 178.93 100.999C177.786 100.999 176.858 101.927 176.858 103.071C176.858 104.215 177.786 105.142 178.93 105.142Z" fill="#D6D1FF"/>
<path d="M178.93 117.57C180.074 117.57 181.001 116.643 181.001 115.499C181.001 114.355 180.074 113.427 178.93 113.427C177.786 113.427 176.858 114.355 176.858 115.499C176.858 116.643 177.786 117.57 178.93 117.57Z" fill="#D6D1FF"/>
<path d="M178.93 130C180.074 130 181.001 129.072 181.001 127.928C181.001 126.784 180.074 125.857 178.93 125.857C177.786 125.857 176.858 126.784 176.858 127.928C176.858 129.072 177.786 130 178.93 130Z" fill="#D6D1FF"/>
<path d="M191.358 18.1428C192.502 18.1428 193.429 17.2154 193.429 16.0714C193.429 14.9274 192.502 14 191.358 14C190.214 14 189.286 14.9274 189.286 16.0714C189.286 17.2154 190.214 18.1428 191.358 18.1428Z" fill="#D6D1FF"/>
<path d="M191.358 30.5713C192.502 30.5713 193.429 29.6439 193.429 28.4999C193.429 27.3559 192.502 26.4285 191.358 26.4285C190.214 26.4285 189.286 27.3559 189.286 28.4999C189.286 29.6439 190.214 30.5713 191.358 30.5713Z" fill="#D6D1FF"/>
<path d="M191.358 42.9998C192.502 42.9998 193.429 42.0724 193.429 40.9283C193.429 39.7843 192.502 38.8569 191.358 38.8569C190.214 38.8569 189.286 39.7843 189.286 40.9283C189.286 42.0724 190.214 42.9998 191.358 42.9998Z" fill="#D6D1FF"/>
<path d="M191.358 55.4282C192.502 55.4282 193.429 54.5008 193.429 53.3568C193.429 52.2128 192.502 51.2854 191.358 51.2854C190.214 51.2854 189.286 52.2128 189.286 53.3568C189.286 54.5008 190.214 55.4282 191.358 55.4282Z" fill="#D6D1FF"/>
<path d="M191.358 67.8567C192.502 67.8567 193.429 66.9293 193.429 65.7853C193.429 64.6413 192.502 63.7139 191.358 63.7139C190.214 63.7139 189.286 64.6413 189.286 65.7853C189.286 66.9293 190.214 67.8567 191.358 67.8567Z" fill="#D6D1FF"/>
<path d="M191.358 80.2852C192.502 80.2852 193.429 79.3578 193.429 78.2137C193.429 77.0697 192.502 76.1423 191.358 76.1423C190.214 76.1423 189.286 77.0697 189.286 78.2137C189.286 79.3578 190.214 80.2852 191.358 80.2852Z" fill="#D6D1FF"/>
<path d="M191.358 92.7136C192.502 92.7136 193.429 91.7862 193.429 90.6422C193.429 89.4982 192.502 88.5708 191.358 88.5708C190.214 88.5708 189.286 89.4982 189.286 90.6422C189.286 91.7862 190.214 92.7136 191.358 92.7136Z" fill="#D6D1FF"/>
<path d="M191.358 105.142C192.502 105.142 193.429 104.215 193.429 103.071C193.429 101.927 192.502 100.999 191.358 100.999C190.214 100.999 189.286 101.927 189.286 103.071C189.286 104.215 190.214 105.142 191.358 105.142Z" fill="#D6D1FF"/>
<path d="M191.358 117.57C192.502 117.57 193.429 116.643 193.429 115.499C193.429 114.355 192.502 113.427 191.358 113.427C190.214 113.427 189.286 114.355 189.286 115.499C189.286 116.643 190.214 117.57 191.358 117.57Z" fill="#D6D1FF"/>
<path d="M191.358 130C192.502 130 193.429 129.072 193.429 127.928C193.429 126.784 192.502 125.857 191.358 125.857C190.214 125.857 189.286 126.784 189.286 127.928C189.286 129.072 190.214 130 191.358 130Z" fill="#D6D1FF"/>
<path d="M203.784 18.1428C204.928 18.1428 205.856 17.2154 205.856 16.0714C205.856 14.9274 204.928 14 203.784 14C202.64 14 201.713 14.9274 201.713 16.0714C201.713 17.2154 202.64 18.1428 203.784 18.1428Z" fill="#D6D1FF"/>
<path d="M203.784 30.5713C204.928 30.5713 205.856 29.6439 205.856 28.4999C205.856 27.3559 204.928 26.4285 203.784 26.4285C202.64 26.4285 201.713 27.3559 201.713 28.4999C201.713 29.6439 202.64 30.5713 203.784 30.5713Z" fill="#D6D1FF"/>
<path d="M203.784 42.9998C204.928 42.9998 205.856 42.0724 205.856 40.9283C205.856 39.7843 204.928 38.8569 203.784 38.8569C202.64 38.8569 201.713 39.7843 201.713 40.9283C201.713 42.0724 202.64 42.9998 203.784 42.9998Z" fill="#D6D1FF"/>
<path d="M203.784 55.4282C204.928 55.4282 205.856 54.5008 205.856 53.3568C205.856 52.2128 204.928 51.2854 203.784 51.2854C202.64 51.2854 201.713 52.2128 201.713 53.3568C201.713 54.5008 202.64 55.4282 203.784 55.4282Z" fill="#D6D1FF"/>
<path d="M203.784 67.8567C204.928 67.8567 205.856 66.9293 205.856 65.7853C205.856 64.6413 204.928 63.7139 203.784 63.7139C202.64 63.7139 201.713 64.6413 201.713 65.7853C201.713 66.9293 202.64 67.8567 203.784 67.8567Z" fill="#D6D1FF"/>
<path d="M203.784 80.2852C204.928 80.2852 205.856 79.3578 205.856 78.2137C205.856 77.0697 204.928 76.1423 203.784 76.1423C202.64 76.1423 201.713 77.0697 201.713 78.2137C201.713 79.3578 202.64 80.2852 203.784 80.2852Z" fill="#D6D1FF"/>
<path d="M203.784 92.7136C204.928 92.7136 205.856 91.7862 205.856 90.6422C205.856 89.4982 204.928 88.5708 203.784 88.5708C202.64 88.5708 201.713 89.4982 201.713 90.6422C201.713 91.7862 202.64 92.7136 203.784 92.7136Z" fill="#D6D1FF"/>
<path d="M203.784 105.142C204.928 105.142 205.856 104.215 205.856 103.071C205.856 101.927 204.928 100.999 203.784 100.999C202.64 100.999 201.713 101.927 201.713 103.071C201.713 104.215 202.64 105.142 203.784 105.142Z" fill="#D6D1FF"/>
<path d="M203.784 117.57C204.928 117.57 205.856 116.643 205.856 115.499C205.856 114.355 204.928 113.427 203.784 113.427C202.64 113.427 201.713 114.355 201.713 115.499C201.713 116.643 202.64 117.57 203.784 117.57Z" fill="#D6D1FF"/>
<path d="M203.784 130C204.928 130 205.856 129.072 205.856 127.928C205.856 126.784 204.928 125.857 203.784 125.857C202.64 125.857 201.713 126.784 201.713 127.928C201.713 129.072 202.64 130 203.784 130Z" fill="#D6D1FF"/>
<path d="M216.212 18.1428C217.356 18.1428 218.283 17.2154 218.283 16.0714C218.283 14.9274 217.356 14 216.212 14C215.068 14 214.141 14.9274 214.141 16.0714C214.141 17.2154 215.068 18.1428 216.212 18.1428Z" fill="#D6D1FF"/>
<path d="M216.212 30.5713C217.356 30.5713 218.283 29.6439 218.283 28.4999C218.283 27.3559 217.356 26.4285 216.212 26.4285C215.068 26.4285 214.141 27.3559 214.141 28.4999C214.141 29.6439 215.068 30.5713 216.212 30.5713Z" fill="#D6D1FF"/>
<path d="M216.212 42.9998C217.356 42.9998 218.283 42.0724 218.283 40.9283C218.283 39.7843 217.356 38.8569 216.212 38.8569C215.068 38.8569 214.141 39.7843 214.141 40.9283C214.141 42.0724 215.068 42.9998 216.212 42.9998Z" fill="#D6D1FF"/>
<path d="M216.212 55.4282C217.356 55.4282 218.283 54.5008 218.283 53.3568C218.283 52.2128 217.356 51.2854 216.212 51.2854C215.068 51.2854 214.141 52.2128 214.141 53.3568C214.141 54.5008 215.068 55.4282 216.212 55.4282Z" fill="#D6D1FF"/>
<path d="M216.212 67.8567C217.356 67.8567 218.283 66.9293 218.283 65.7853C218.283 64.6413 217.356 63.7139 216.212 63.7139C215.068 63.7139 214.141 64.6413 214.141 65.7853C214.141 66.9293 215.068 67.8567 216.212 67.8567Z" fill="#D6D1FF"/>
<path d="M216.212 80.2852C217.356 80.2852 218.283 79.3578 218.283 78.2137C218.283 77.0697 217.356 76.1423 216.212 76.1423C215.068 76.1423 214.141 77.0697 214.141 78.2137C214.141 79.3578 215.068 80.2852 216.212 80.2852Z" fill="#D6D1FF"/>
<path d="M216.212 92.7136C217.356 92.7136 218.283 91.7862 218.283 90.6422C218.283 89.4982 217.356 88.5708 216.212 88.5708C215.068 88.5708 214.141 89.4982 214.141 90.6422C214.141 91.7862 215.068 92.7136 216.212 92.7136Z" fill="#D6D1FF"/>
<path d="M216.212 105.142C217.356 105.142 218.283 104.215 218.283 103.071C218.283 101.927 217.356 100.999 216.212 100.999C215.068 100.999 214.141 101.927 214.141 103.071C214.141 104.215 215.068 105.142 216.212 105.142Z" fill="#D6D1FF"/>
<path d="M216.212 117.57C217.356 117.57 218.283 116.643 218.283 115.499C218.283 114.355 217.356 113.427 216.212 113.427C215.068 113.427 214.141 114.355 214.141 115.499C214.141 116.643 215.068 117.57 216.212 117.57Z" fill="#D6D1FF"/>
<path d="M216.212 130C217.356 130 218.283 129.072 218.283 127.928C218.283 126.784 217.356 125.857 216.212 125.857C215.068 125.857 214.141 126.784 214.141 127.928C214.141 129.072 215.068 130 216.212 130Z" fill="#D6D1FF"/>
<path d="M228.642 18.1428C229.786 18.1428 230.713 17.2154 230.713 16.0714C230.713 14.9274 229.786 14 228.642 14C227.498 14 226.57 14.9274 226.57 16.0714C226.57 17.2154 227.498 18.1428 228.642 18.1428Z" fill="#D6D1FF"/>
<path d="M228.642 30.5713C229.786 30.5713 230.713 29.6439 230.713 28.4999C230.713 27.3559 229.786 26.4285 228.642 26.4285C227.498 26.4285 226.57 27.3559 226.57 28.4999C226.57 29.6439 227.498 30.5713 228.642 30.5713Z" fill="#D6D1FF"/>
<path d="M228.642 42.9998C229.786 42.9998 230.713 42.0724 230.713 40.9283C230.713 39.7843 229.786 38.8569 228.642 38.8569C227.498 38.8569 226.57 39.7843 226.57 40.9283C226.57 42.0724 227.498 42.9998 228.642 42.9998Z" fill="#D6D1FF"/>
<path d="M228.642 55.4282C229.786 55.4282 230.713 54.5008 230.713 53.3568C230.713 52.2128 229.786 51.2854 228.642 51.2854C227.498 51.2854 226.57 52.2128 226.57 53.3568C226.57 54.5008 227.498 55.4282 228.642 55.4282Z" fill="#D6D1FF"/>
<path d="M228.642 67.8567C229.786 67.8567 230.713 66.9293 230.713 65.7853C230.713 64.6413 229.786 63.7139 228.642 63.7139C227.498 63.7139 226.57 64.6413 226.57 65.7853C226.57 66.9293 227.498 67.8567 228.642 67.8567Z" fill="#D6D1FF"/>
<path d="M228.642 80.2852C229.786 80.2852 230.713 79.3578 230.713 78.2137C230.713 77.0697 229.786 76.1423 228.642 76.1423C227.498 76.1423 226.57 77.0697 226.57 78.2137C226.57 79.3578 227.498 80.2852 228.642 80.2852Z" fill="#D6D1FF"/>
<path d="M228.642 92.7136C229.786 92.7136 230.713 91.7862 230.713 90.6422C230.713 89.4982 229.786 88.5708 228.642 88.5708C227.498 88.5708 226.57 89.4982 226.57 90.6422C226.57 91.7862 227.498 92.7136 228.642 92.7136Z" fill="#D6D1FF"/>
<path d="M228.642 105.142C229.786 105.142 230.713 104.215 230.713 103.071C230.713 101.927 229.786 100.999 228.642 100.999C227.498 100.999 226.57 101.927 226.57 103.071C226.57 104.215 227.498 105.142 228.642 105.142Z" fill="#D6D1FF"/>
<path d="M228.642 117.57C229.786 117.57 230.713 116.643 230.713 115.499C230.713 114.355 229.786 113.427 228.642 113.427C227.498 113.427 226.57 114.355 226.57 115.499C226.57 116.643 227.498 117.57 228.642 117.57Z" fill="#D6D1FF"/>
<path d="M228.642 130C229.786 130 230.713 129.072 230.713 127.928C230.713 126.784 229.786 125.857 228.642 125.857C227.498 125.857 226.57 126.784 226.57 127.928C226.57 129.072 227.498 130 228.642 130Z" fill="#D6D1FF"/>
<path d="M228.642 18.1428C229.786 18.1428 230.713 17.2154 230.713 16.0714C230.713 14.9274 229.786 14 228.642 14C227.498 14 226.57 14.9274 226.57 16.0714C226.57 17.2154 227.498 18.1428 228.642 18.1428Z" fill="#D6D1FF"/>
<path d="M228.642 30.5713C229.786 30.5713 230.713 29.6439 230.713 28.4999C230.713 27.3559 229.786 26.4285 228.642 26.4285C227.498 26.4285 226.57 27.3559 226.57 28.4999C226.57 29.6439 227.498 30.5713 228.642 30.5713Z" fill="#D6D1FF"/>
<path d="M228.642 42.9998C229.786 42.9998 230.713 42.0724 230.713 40.9283C230.713 39.7843 229.786 38.8569 228.642 38.8569C227.498 38.8569 226.57 39.7843 226.57 40.9283C226.57 42.0724 227.498 42.9998 228.642 42.9998Z" fill="#D6D1FF"/>
<path d="M228.642 55.4282C229.786 55.4282 230.713 54.5008 230.713 53.3568C230.713 52.2128 229.786 51.2854 228.642 51.2854C227.498 51.2854 226.57 52.2128 226.57 53.3568C226.57 54.5008 227.498 55.4282 228.642 55.4282Z" fill="#D6D1FF"/>
<path d="M228.642 67.8567C229.786 67.8567 230.713 66.9293 230.713 65.7853C230.713 64.6413 229.786 63.7139 228.642 63.7139C227.498 63.7139 226.57 64.6413 226.57 65.7853C226.57 66.9293 227.498 67.8567 228.642 67.8567Z" fill="#D6D1FF"/>
<path d="M228.642 80.2852C229.786 80.2852 230.713 79.3578 230.713 78.2137C230.713 77.0697 229.786 76.1423 228.642 76.1423C227.498 76.1423 226.57 77.0697 226.57 78.2137C226.57 79.3578 227.498 80.2852 228.642 80.2852Z" fill="#D6D1FF"/>
<path d="M228.642 92.7136C229.786 92.7136 230.713 91.7862 230.713 90.6422C230.713 89.4982 229.786 88.5708 228.642 88.5708C227.498 88.5708 226.57 89.4982 226.57 90.6422C226.57 91.7862 227.498 92.7136 228.642 92.7136Z" fill="#D6D1FF"/>
<path d="M228.642 105.142C229.786 105.142 230.713 104.215 230.713 103.071C230.713 101.927 229.786 100.999 228.642 100.999C227.498 100.999 226.57 101.927 226.57 103.071C226.57 104.215 227.498 105.142 228.642 105.142Z" fill="#D6D1FF"/>
<path d="M228.642 117.57C229.786 117.57 230.713 116.643 230.713 115.499C230.713 114.355 229.786 113.427 228.642 113.427C227.498 113.427 226.57 114.355 226.57 115.499C226.57 116.643 227.498 117.57 228.642 117.57Z" fill="#D6D1FF"/>
<path d="M228.642 130C229.786 130 230.713 129.072 230.713 127.928C230.713 126.784 229.786 125.857 228.642 125.857C227.498 125.857 226.57 126.784 226.57 127.928C226.57 129.072 227.498 130 228.642 130Z" fill="#D6D1FF"/>
<path d="M241.07 30.5713C242.214 30.5713 243.142 29.6439 243.142 28.4999C243.142 27.3559 242.214 26.4285 241.07 26.4285C239.926 26.4285 238.999 27.3559 238.999 28.4999C238.999 29.6439 239.926 30.5713 241.07 30.5713Z" fill="#D6D1FF"/>
<path d="M241.07 42.9998C242.214 42.9998 243.142 42.0724 243.142 40.9283C243.142 39.7843 242.214 38.8569 241.07 38.8569C239.926 38.8569 238.999 39.7843 238.999 40.9283C238.999 42.0724 239.926 42.9998 241.07 42.9998Z" fill="#D6D1FF"/>
<path d="M241.07 55.4282C242.214 55.4282 243.142 54.5008 243.142 53.3568C243.142 52.2128 242.214 51.2854 241.07 51.2854C239.926 51.2854 238.999 52.2128 238.999 53.3568C238.999 54.5008 239.926 55.4282 241.07 55.4282Z" fill="#D6D1FF"/>
<path d="M241.07 67.8567C242.214 67.8567 243.142 66.9293 243.142 65.7853C243.142 64.6413 242.214 63.7139 241.07 63.7139C239.926 63.7139 238.999 64.6413 238.999 65.7853C238.999 66.9293 239.926 67.8567 241.07 67.8567Z" fill="#D6D1FF"/>
<path d="M241.07 80.2852C242.214 80.2852 243.142 79.3578 243.142 78.2137C243.142 77.0697 242.214 76.1423 241.07 76.1423C239.926 76.1423 238.999 77.0697 238.999 78.2137C238.999 79.3578 239.926 80.2852 241.07 80.2852Z" fill="#D6D1FF"/>
<path d="M241.07 92.7136C242.214 92.7136 243.142 91.7862 243.142 90.6422C243.142 89.4982 242.214 88.5708 241.07 88.5708C239.926 88.5708 238.999 89.4982 238.999 90.6422C238.999 91.7862 239.926 92.7136 241.07 92.7136Z" fill="#D6D1FF"/>
<path d="M241.07 105.142C242.214 105.142 243.142 104.215 243.142 103.071C243.142 101.927 242.214 100.999 241.07 100.999C239.926 100.999 238.999 101.927 238.999 103.071C238.999 104.215 239.926 105.142 241.07 105.142Z" fill="#D6D1FF"/>
<path d="M241.07 117.57C242.214 117.57 243.142 116.643 243.142 115.499C243.142 114.355 242.214 113.427 241.07 113.427C239.926 113.427 238.999 114.355 238.999 115.499C238.999 116.643 239.926 117.57 241.07 117.57Z" fill="#D6D1FF"/>
<path d="M241.07 130C242.214 130 243.142 129.072 243.142 127.928C243.142 126.784 242.214 125.857 241.07 125.857C239.926 125.857 238.999 126.784 238.999 127.928C238.999 129.072 239.926 130 241.07 130Z" fill="#D6D1FF"/>
<path d="M253.5 42.9998C254.644 42.9998 255.572 42.0724 255.572 40.9283C255.572 39.7843 254.644 38.8569 253.5 38.8569C252.356 38.8569 251.429 39.7843 251.429 40.9283C251.429 42.0724 252.356 42.9998 253.5 42.9998Z" fill="#D6D1FF"/>
<path d="M253.5 55.4282C254.644 55.4282 255.572 54.5008 255.572 53.3568C255.572 52.2128 254.644 51.2854 253.5 51.2854C252.356 51.2854 251.429 52.2128 251.429 53.3568C251.429 54.5008 252.356 55.4282 253.5 55.4282Z" fill="#D6D1FF"/>
<path d="M253.5 67.8567C254.644 67.8567 255.572 66.9293 255.572 65.7853C255.572 64.6413 254.644 63.7139 253.5 63.7139C252.356 63.7139 251.429 64.6413 251.429 65.7853C251.429 66.9293 252.356 67.8567 253.5 67.8567Z" fill="#D6D1FF"/>
<path d="M253.5 80.2852C254.644 80.2852 255.572 79.3578 255.572 78.2137C255.572 77.0697 254.644 76.1423 253.5 76.1423C252.356 76.1423 251.429 77.0697 251.429 78.2137C251.429 79.3578 252.356 80.2852 253.5 80.2852Z" fill="#D6D1FF"/>
<path d="M253.5 92.7136C254.644 92.7136 255.572 91.7862 255.572 90.6422C255.572 89.4982 254.644 88.5708 253.5 88.5708C252.356 88.5708 251.429 89.4982 251.429 90.6422C251.429 91.7862 252.356 92.7136 253.5 92.7136Z" fill="#D6D1FF"/>
<path d="M253.5 105.142C254.644 105.142 255.572 104.215 255.572 103.071C255.572 101.927 254.644 100.999 253.5 100.999C252.356 100.999 251.429 101.927 251.429 103.071C251.429 104.215 252.356 105.142 253.5 105.142Z" fill="#D6D1FF"/>
<path d="M253.5 117.57C254.644 117.57 255.572 116.643 255.572 115.499C255.572 114.355 254.644 113.427 253.5 113.427C252.356 113.427 251.429 114.355 251.429 115.499C251.429 116.643 252.356 117.57 253.5 117.57Z" fill="#D6D1FF"/>
<path d="M265.929 55.4282C267.073 55.4282 268 54.5008 268 53.3568C268 52.2128 267.073 51.2854 265.929 51.2854C264.785 51.2854 263.857 52.2128 263.857 53.3568C263.857 54.5008 264.785 55.4282 265.929 55.4282Z" fill="#D6D1FF"/>
<path d="M265.929 67.8567C267.073 67.8567 268 66.9293 268 65.7853C268 64.6413 267.073 63.7139 265.929 63.7139C264.785 63.7139 263.857 64.6413 263.857 65.7853C263.857 66.9293 264.785 67.8567 265.929 67.8567Z" fill="#D6D1FF"/>
<path d="M265.929 80.2852C267.073 80.2852 268 79.3578 268 78.2137C268 77.0697 267.073 76.1423 265.929 76.1423C264.785 76.1423 263.857 77.0697 263.857 78.2137C263.857 79.3578 264.785 80.2852 265.929 80.2852Z" fill="#D6D1FF"/>
<path d="M265.929 92.7136C267.073 92.7136 268 91.7862 268 90.6422C268 89.4982 267.073 88.5708 265.929 88.5708C264.785 88.5708 263.857 89.4982 263.857 90.6422C263.857 91.7862 264.785 92.7136 265.929 92.7136Z" fill="#D6D1FF"/>
</g>
</g>
</g>
</g>
<defs>
<clipPath id="clip0_9_2388">
<rect width="116" height="116" fill="white" transform="translate(152 14)"/>
</clipPath>
<clipPath id="clip1_9_2388">
<rect width="116" height="116" fill="white" transform="translate(152 14)"/>
</clipPath>
<clipPath id="clip2_9_2388">
<rect width="116" height="116" fill="white" transform="translate(152 14)"/>
</clipPath>
</defs>
</svg>
