<svg width="116" height="116" viewBox="0 0 116 116" fill="none" xmlns="http://www.w3.org/2000/svg">
<g clip-path="url(#clip0_7_740)">
<g clip-path="url(#clip1_7_740)">
<g clip-path="url(#clip2_7_740)">
<g opacity="0.3">
<path d="M2.07141 41.4282C3.21542 41.4282 4.14282 40.5008 4.14282 39.3568C4.14282 38.2128 3.21542 37.2854 2.07141 37.2854C0.927402 37.2854 0 38.2128 0 39.3568C0 40.5008 0.927402 41.4282 2.07141 41.4282Z" fill="#D6D1FF"/>
<path d="M2.07141 53.8567C3.21542 53.8567 4.14282 52.9293 4.14282 51.7853C4.14282 50.6413 3.21542 49.7139 2.07141 49.7139C0.927402 49.7139 0 50.6413 0 51.7853C0 52.9293 0.927402 53.8567 2.07141 53.8567Z" fill="#D6D1FF"/>
<path d="M2.07141 66.2852C3.21542 66.2852 4.14282 65.3578 4.14282 64.2137C4.14282 63.0697 3.21542 62.1423 2.07141 62.1423C0.927402 62.1423 0 63.0697 0 64.2137C0 65.3578 0.927402 66.2852 2.07141 66.2852Z" fill="#D6D1FF"/>
<path d="M2.07141 78.7136C3.21542 78.7136 4.14282 77.7862 4.14282 76.6422C4.14282 75.4982 3.21542 74.5708 2.07141 74.5708C0.927402 74.5708 0 75.4982 0 76.6422C0 77.7862 0.927402 78.7136 2.07141 78.7136Z" fill="#D6D1FF"/>
<path d="M2.07141 91.1421C3.21542 91.1421 4.14282 90.2147 4.14282 89.0707C4.14282 87.9267 3.21542 86.9993 2.07141 86.9993C0.927402 86.9993 0 87.9267 0 89.0707C0 90.2147 0.927402 91.1421 2.07141 91.1421Z" fill="#D6D1FF"/>
<path d="M14.5001 16.5713C15.6441 16.5713 16.5715 15.6439 16.5715 14.4999C16.5715 13.3559 15.6441 12.4285 14.5001 12.4285C13.3561 12.4285 12.4287 13.3559 12.4287 14.4999C12.4287 15.6439 13.3561 16.5713 14.5001 16.5713Z" fill="#D6D1FF"/>
<path d="M14.5001 28.9998C15.6441 28.9998 16.5715 28.0724 16.5715 26.9283C16.5715 25.7843 15.6441 24.8569 14.5001 24.8569C13.3561 24.8569 12.4287 25.7843 12.4287 26.9283C12.4287 28.0724 13.3561 28.9998 14.5001 28.9998Z" fill="#D6D1FF"/>
<path d="M4.55774 28.9998C5.70175 28.9998 6.62915 28.0724 6.62915 26.9283C6.62915 25.7843 5.70175 24.8569 4.55774 24.8569C3.41373 24.8569 2.48633 25.7843 2.48633 26.9283C2.48633 28.0724 3.41373 28.9998 4.55774 28.9998Z" fill="#D6D1FF"/>
<path d="M14.5001 41.4282C15.6441 41.4282 16.5715 40.5008 16.5715 39.3568C16.5715 38.2128 15.6441 37.2854 14.5001 37.2854C13.3561 37.2854 12.4287 38.2128 12.4287 39.3568C12.4287 40.5008 13.3561 41.4282 14.5001 41.4282Z" fill="#D6D1FF"/>
<path d="M14.5001 53.8567C15.6441 53.8567 16.5715 52.9293 16.5715 51.7853C16.5715 50.6413 15.6441 49.7139 14.5001 49.7139C13.3561 49.7139 12.4287 50.6413 12.4287 51.7853C12.4287 52.9293 13.3561 53.8567 14.5001 53.8567Z" fill="#D6D1FF"/>
<path d="M14.5001 66.2852C15.6441 66.2852 16.5715 65.3578 16.5715 64.2137C16.5715 63.0697 15.6441 62.1423 14.5001 62.1423C13.3561 62.1423 12.4287 63.0697 12.4287 64.2137C12.4287 65.3578 13.3561 66.2852 14.5001 66.2852Z" fill="#D6D1FF"/>
<path d="M14.5001 78.7136C15.6441 78.7136 16.5715 77.7862 16.5715 76.6422C16.5715 75.4982 15.6441 74.5708 14.5001 74.5708C13.3561 74.5708 12.4287 75.4982 12.4287 76.6422C12.4287 77.7862 13.3561 78.7136 14.5001 78.7136Z" fill="#D6D1FF"/>
<path d="M14.5001 91.1421C15.6441 91.1421 16.5715 90.2147 16.5715 89.0707C16.5715 87.9267 15.6441 86.9993 14.5001 86.9993C13.3561 86.9993 12.4287 87.9267 12.4287 89.0707C12.4287 90.2147 13.3561 91.1421 14.5001 91.1421Z" fill="#D6D1FF"/>
<path d="M14.5001 103.57C15.6441 103.57 16.5715 102.643 16.5715 101.499C16.5715 100.355 15.6441 99.4275 14.5001 99.4275C13.3561 99.4275 12.4287 100.355 12.4287 101.499C12.4287 102.643 13.3561 103.57 14.5001 103.57Z" fill="#D6D1FF"/>
<path d="M26.9298 16.5713C28.0738 16.5713 29.0012 15.6439 29.0012 14.4999C29.0012 13.3559 28.0738 12.4285 26.9298 12.4285C25.7858 12.4285 24.8584 13.3559 24.8584 14.4999C24.8584 15.6439 25.7858 16.5713 26.9298 16.5713Z" fill="#D6D1FF"/>
<path d="M26.9298 8.28564C28.0738 8.28564 29.0012 7.35824 29.0012 6.21423C29.0012 5.07022 28.0738 4.14282 26.9298 4.14282C25.7858 4.14282 24.8584 5.07022 24.8584 6.21423C24.8584 7.35824 25.7858 8.28564 26.9298 8.28564Z" fill="#D6D1FF"/>
<path d="M26.9298 28.9998C28.0738 28.9998 29.0012 28.0724 29.0012 26.9283C29.0012 25.7843 28.0738 24.8569 26.9298 24.8569C25.7858 24.8569 24.8584 25.7843 24.8584 26.9283C24.8584 28.0724 25.7858 28.9998 26.9298 28.9998Z" fill="#D6D1FF"/>
<path d="M26.9298 41.4282C28.0738 41.4282 29.0012 40.5008 29.0012 39.3568C29.0012 38.2128 28.0738 37.2854 26.9298 37.2854C25.7858 37.2854 24.8584 38.2128 24.8584 39.3568C24.8584 40.5008 25.7858 41.4282 26.9298 41.4282Z" fill="#D6D1FF"/>
<path d="M26.9298 53.8567C28.0738 53.8567 29.0012 52.9293 29.0012 51.7853C29.0012 50.6413 28.0738 49.7139 26.9298 49.7139C25.7858 49.7139 24.8584 50.6413 24.8584 51.7853C24.8584 52.9293 25.7858 53.8567 26.9298 53.8567Z" fill="#D6D1FF"/>
<path d="M26.9298 66.2852C28.0738 66.2852 29.0012 65.3578 29.0012 64.2137C29.0012 63.0697 28.0738 62.1423 26.9298 62.1423C25.7858 62.1423 24.8584 63.0697 24.8584 64.2137C24.8584 65.3578 25.7858 66.2852 26.9298 66.2852Z" fill="#D6D1FF"/>
<path d="M26.9298 78.7136C28.0738 78.7136 29.0012 77.7862 29.0012 76.6422C29.0012 75.4982 28.0738 74.5708 26.9298 74.5708C25.7858 74.5708 24.8584 75.4982 24.8584 76.6422C24.8584 77.7862 25.7858 78.7136 26.9298 78.7136Z" fill="#D6D1FF"/>
<path d="M26.9298 91.1421C28.0738 91.1421 29.0012 90.2147 29.0012 89.0707C29.0012 87.9267 28.0738 86.9993 26.9298 86.9993C25.7858 86.9993 24.8584 87.9267 24.8584 89.0707C24.8584 90.2147 25.7858 91.1421 26.9298 91.1421Z" fill="#D6D1FF"/>
<path d="M26.9298 103.57C28.0738 103.57 29.0012 102.643 29.0012 101.499C29.0012 100.355 28.0738 99.4275 26.9298 99.4275C25.7858 99.4275 24.8584 100.355 24.8584 101.499C24.8584 102.643 25.7858 103.57 26.9298 103.57Z" fill="#D6D1FF"/>
<path d="M26.9298 116C28.0738 116 29.0012 115.072 29.0012 113.928C29.0012 112.784 28.0738 111.857 26.9298 111.857C25.7858 111.857 24.8584 112.784 24.8584 113.928C24.8584 115.072 25.7858 116 26.9298 116Z" fill="#D6D1FF"/>
<path d="M39.3575 4.14282C40.5015 4.14282 41.429 3.21542 41.429 2.07141C41.429 0.927402 40.5015 0 39.3575 0C38.2135 0 37.2861 0.927402 37.2861 2.07141C37.2861 3.21542 38.2135 4.14282 39.3575 4.14282Z" fill="#D6D1FF"/>
<path d="M39.3575 16.5713C40.5015 16.5713 41.429 15.6439 41.429 14.4999C41.429 13.3559 40.5015 12.4285 39.3575 12.4285C38.2135 12.4285 37.2861 13.3559 37.2861 14.4999C37.2861 15.6439 38.2135 16.5713 39.3575 16.5713Z" fill="#D6D1FF"/>
<path d="M39.3575 28.9998C40.5015 28.9998 41.429 28.0724 41.429 26.9283C41.429 25.7843 40.5015 24.8569 39.3575 24.8569C38.2135 24.8569 37.2861 25.7843 37.2861 26.9283C37.2861 28.0724 38.2135 28.9998 39.3575 28.9998Z" fill="#D6D1FF"/>
<path d="M39.3575 41.4282C40.5015 41.4282 41.429 40.5008 41.429 39.3568C41.429 38.2128 40.5015 37.2854 39.3575 37.2854C38.2135 37.2854 37.2861 38.2128 37.2861 39.3568C37.2861 40.5008 38.2135 41.4282 39.3575 41.4282Z" fill="#D6D1FF"/>
<path d="M39.3575 53.8567C40.5015 53.8567 41.429 52.9293 41.429 51.7853C41.429 50.6413 40.5015 49.7139 39.3575 49.7139C38.2135 49.7139 37.2861 50.6413 37.2861 51.7853C37.2861 52.9293 38.2135 53.8567 39.3575 53.8567Z" fill="#D6D1FF"/>
<path d="M39.3575 66.2852C40.5015 66.2852 41.429 65.3578 41.429 64.2137C41.429 63.0697 40.5015 62.1423 39.3575 62.1423C38.2135 62.1423 37.2861 63.0697 37.2861 64.2137C37.2861 65.3578 38.2135 66.2852 39.3575 66.2852Z" fill="#D6D1FF"/>
<path d="M39.3575 78.7136C40.5015 78.7136 41.429 77.7862 41.429 76.6422C41.429 75.4982 40.5015 74.5708 39.3575 74.5708C38.2135 74.5708 37.2861 75.4982 37.2861 76.6422C37.2861 77.7862 38.2135 78.7136 39.3575 78.7136Z" fill="#D6D1FF"/>
<path d="M39.3575 91.1421C40.5015 91.1421 41.429 90.2147 41.429 89.0707C41.429 87.9267 40.5015 86.9993 39.3575 86.9993C38.2135 86.9993 37.2861 87.9267 37.2861 89.0707C37.2861 90.2147 38.2135 91.1421 39.3575 91.1421Z" fill="#D6D1FF"/>
<path d="M39.3575 103.57C40.5015 103.57 41.429 102.643 41.429 101.499C41.429 100.355 40.5015 99.4275 39.3575 99.4275C38.2135 99.4275 37.2861 100.355 37.2861 101.499C37.2861 102.643 38.2135 103.57 39.3575 103.57Z" fill="#D6D1FF"/>
<path d="M39.3575 116C40.5015 116 41.429 115.072 41.429 113.928C41.429 112.784 40.5015 111.857 39.3575 111.857C38.2135 111.857 37.2861 112.784 37.2861 113.928C37.2861 115.072 38.2135 116 39.3575 116Z" fill="#D6D1FF"/>
<path d="M51.7843 4.14282C52.9283 4.14282 53.8557 3.21542 53.8557 2.07141C53.8557 0.927402 52.9283 0 51.7843 0C50.6403 0 49.7129 0.927402 49.7129 2.07141C49.7129 3.21542 50.6403 4.14282 51.7843 4.14282Z" fill="#D6D1FF"/>
<path d="M51.7843 16.5713C52.9283 16.5713 53.8557 15.6439 53.8557 14.4999C53.8557 13.3559 52.9283 12.4285 51.7843 12.4285C50.6403 12.4285 49.7129 13.3559 49.7129 14.4999C49.7129 15.6439 50.6403 16.5713 51.7843 16.5713Z" fill="#D6D1FF"/>
<path d="M51.7843 28.9998C52.9283 28.9998 53.8557 28.0724 53.8557 26.9283C53.8557 25.7843 52.9283 24.8569 51.7843 24.8569C50.6403 24.8569 49.7129 25.7843 49.7129 26.9283C49.7129 28.0724 50.6403 28.9998 51.7843 28.9998Z" fill="#D6D1FF"/>
<path d="M51.7843 41.4282C52.9283 41.4282 53.8557 40.5008 53.8557 39.3568C53.8557 38.2128 52.9283 37.2854 51.7843 37.2854C50.6403 37.2854 49.7129 38.2128 49.7129 39.3568C49.7129 40.5008 50.6403 41.4282 51.7843 41.4282Z" fill="#D6D1FF"/>
<path d="M51.7843 53.8567C52.9283 53.8567 53.8557 52.9293 53.8557 51.7853C53.8557 50.6413 52.9283 49.7139 51.7843 49.7139C50.6403 49.7139 49.7129 50.6413 49.7129 51.7853C49.7129 52.9293 50.6403 53.8567 51.7843 53.8567Z" fill="#D6D1FF"/>
<path d="M51.7843 66.2852C52.9283 66.2852 53.8557 65.3578 53.8557 64.2137C53.8557 63.0697 52.9283 62.1423 51.7843 62.1423C50.6403 62.1423 49.7129 63.0697 49.7129 64.2137C49.7129 65.3578 50.6403 66.2852 51.7843 66.2852Z" fill="#D6D1FF"/>
<path d="M51.7843 78.7136C52.9283 78.7136 53.8557 77.7862 53.8557 76.6422C53.8557 75.4982 52.9283 74.5708 51.7843 74.5708C50.6403 74.5708 49.7129 75.4982 49.7129 76.6422C49.7129 77.7862 50.6403 78.7136 51.7843 78.7136Z" fill="#D6D1FF"/>
<path d="M51.7843 91.1421C52.9283 91.1421 53.8557 90.2147 53.8557 89.0707C53.8557 87.9267 52.9283 86.9993 51.7843 86.9993C50.6403 86.9993 49.7129 87.9267 49.7129 89.0707C49.7129 90.2147 50.6403 91.1421 51.7843 91.1421Z" fill="#D6D1FF"/>
<path d="M51.7843 103.57C52.9283 103.57 53.8557 102.643 53.8557 101.499C53.8557 100.355 52.9283 99.4275 51.7843 99.4275C50.6403 99.4275 49.7129 100.355 49.7129 101.499C49.7129 102.643 50.6403 103.57 51.7843 103.57Z" fill="#D6D1FF"/>
<path d="M51.7843 116C52.9283 116 53.8557 115.072 53.8557 113.928C53.8557 112.784 52.9283 111.857 51.7843 111.857C50.6403 111.857 49.7129 112.784 49.7129 113.928C49.7129 115.072 50.6403 116 51.7843 116Z" fill="#D6D1FF"/>
<path d="M64.212 4.14282C65.356 4.14282 66.2834 3.21542 66.2834 2.07141C66.2834 0.927402 65.356 0 64.212 0C63.068 0 62.1406 0.927402 62.1406 2.07141C62.1406 3.21542 63.068 4.14282 64.212 4.14282Z" fill="#D6D1FF"/>
<path d="M64.212 16.5713C65.356 16.5713 66.2834 15.6439 66.2834 14.4999C66.2834 13.3559 65.356 12.4285 64.212 12.4285C63.068 12.4285 62.1406 13.3559 62.1406 14.4999C62.1406 15.6439 63.068 16.5713 64.212 16.5713Z" fill="#D6D1FF"/>
<path d="M64.212 28.9998C65.356 28.9998 66.2834 28.0724 66.2834 26.9283C66.2834 25.7843 65.356 24.8569 64.212 24.8569C63.068 24.8569 62.1406 25.7843 62.1406 26.9283C62.1406 28.0724 63.068 28.9998 64.212 28.9998Z" fill="#D6D1FF"/>
<path d="M64.212 41.4282C65.356 41.4282 66.2834 40.5008 66.2834 39.3568C66.2834 38.2128 65.356 37.2854 64.212 37.2854C63.068 37.2854 62.1406 38.2128 62.1406 39.3568C62.1406 40.5008 63.068 41.4282 64.212 41.4282Z" fill="#D6D1FF"/>
<path d="M64.212 53.8567C65.356 53.8567 66.2834 52.9293 66.2834 51.7853C66.2834 50.6413 65.356 49.7139 64.212 49.7139C63.068 49.7139 62.1406 50.6413 62.1406 51.7853C62.1406 52.9293 63.068 53.8567 64.212 53.8567Z" fill="#D6D1FF"/>
<path d="M64.212 66.2852C65.356 66.2852 66.2834 65.3578 66.2834 64.2137C66.2834 63.0697 65.356 62.1423 64.212 62.1423C63.068 62.1423 62.1406 63.0697 62.1406 64.2137C62.1406 65.3578 63.068 66.2852 64.212 66.2852Z" fill="#D6D1FF"/>
<path d="M64.212 78.7136C65.356 78.7136 66.2834 77.7862 66.2834 76.6422C66.2834 75.4982 65.356 74.5708 64.212 74.5708C63.068 74.5708 62.1406 75.4982 62.1406 76.6422C62.1406 77.7862 63.068 78.7136 64.212 78.7136Z" fill="#D6D1FF"/>
<path d="M64.212 91.1421C65.356 91.1421 66.2834 90.2147 66.2834 89.0707C66.2834 87.9267 65.356 86.9993 64.212 86.9993C63.068 86.9993 62.1406 87.9267 62.1406 89.0707C62.1406 90.2147 63.068 91.1421 64.212 91.1421Z" fill="#D6D1FF"/>
<path d="M64.212 103.57C65.356 103.57 66.2834 102.643 66.2834 101.499C66.2834 100.355 65.356 99.4275 64.212 99.4275C63.068 99.4275 62.1406 100.355 62.1406 101.499C62.1406 102.643 63.068 103.57 64.212 103.57Z" fill="#D6D1FF"/>
<path d="M64.212 116C65.356 116 66.2834 115.072 66.2834 113.928C66.2834 112.784 65.356 111.857 64.212 111.857C63.068 111.857 62.1406 112.784 62.1406 113.928C62.1406 115.072 63.068 116 64.212 116Z" fill="#D6D1FF"/>
<path d="M76.6417 4.14282C77.7857 4.14282 78.7131 3.21542 78.7131 2.07141C78.7131 0.927402 77.7857 0 76.6417 0C75.4977 0 74.5703 0.927402 74.5703 2.07141C74.5703 3.21542 75.4977 4.14282 76.6417 4.14282Z" fill="#D6D1FF"/>
<path d="M76.6417 16.5713C77.7857 16.5713 78.7131 15.6439 78.7131 14.4999C78.7131 13.3559 77.7857 12.4285 76.6417 12.4285C75.4977 12.4285 74.5703 13.3559 74.5703 14.4999C74.5703 15.6439 75.4977 16.5713 76.6417 16.5713Z" fill="#D6D1FF"/>
<path d="M76.6417 28.9998C77.7857 28.9998 78.7131 28.0724 78.7131 26.9283C78.7131 25.7843 77.7857 24.8569 76.6417 24.8569C75.4977 24.8569 74.5703 25.7843 74.5703 26.9283C74.5703 28.0724 75.4977 28.9998 76.6417 28.9998Z" fill="#D6D1FF"/>
<path d="M76.6417 41.4282C77.7857 41.4282 78.7131 40.5008 78.7131 39.3568C78.7131 38.2128 77.7857 37.2854 76.6417 37.2854C75.4977 37.2854 74.5703 38.2128 74.5703 39.3568C74.5703 40.5008 75.4977 41.4282 76.6417 41.4282Z" fill="#D6D1FF"/>
<path d="M76.6417 53.8567C77.7857 53.8567 78.7131 52.9293 78.7131 51.7853C78.7131 50.6413 77.7857 49.7139 76.6417 49.7139C75.4977 49.7139 74.5703 50.6413 74.5703 51.7853C74.5703 52.9293 75.4977 53.8567 76.6417 53.8567Z" fill="#D6D1FF"/>
<path d="M76.6417 66.2852C77.7857 66.2852 78.7131 65.3578 78.7131 64.2137C78.7131 63.0697 77.7857 62.1423 76.6417 62.1423C75.4977 62.1423 74.5703 63.0697 74.5703 64.2137C74.5703 65.3578 75.4977 66.2852 76.6417 66.2852Z" fill="#D6D1FF"/>
<path d="M76.6417 78.7136C77.7857 78.7136 78.7131 77.7862 78.7131 76.6422C78.7131 75.4982 77.7857 74.5708 76.6417 74.5708C75.4977 74.5708 74.5703 75.4982 74.5703 76.6422C74.5703 77.7862 75.4977 78.7136 76.6417 78.7136Z" fill="#D6D1FF"/>
<path d="M76.6417 91.1421C77.7857 91.1421 78.7131 90.2147 78.7131 89.0707C78.7131 87.9267 77.7857 86.9993 76.6417 86.9993C75.4977 86.9993 74.5703 87.9267 74.5703 89.0707C74.5703 90.2147 75.4977 91.1421 76.6417 91.1421Z" fill="#D6D1FF"/>
<path d="M76.6417 103.57C77.7857 103.57 78.7131 102.643 78.7131 101.499C78.7131 100.355 77.7857 99.4275 76.6417 99.4275C75.4977 99.4275 74.5703 100.355 74.5703 101.499C74.5703 102.643 75.4977 103.57 76.6417 103.57Z" fill="#D6D1FF"/>
<path d="M76.6417 116C77.7857 116 78.7131 115.072 78.7131 113.928C78.7131 112.784 77.7857 111.857 76.6417 111.857C75.4977 111.857 74.5703 112.784 74.5703 113.928C74.5703 115.072 75.4977 116 76.6417 116Z" fill="#D6D1FF"/>
<path d="M76.6417 4.14282C77.7857 4.14282 78.7131 3.21542 78.7131 2.07141C78.7131 0.927402 77.7857 0 76.6417 0C75.4977 0 74.5703 0.927402 74.5703 2.07141C74.5703 3.21542 75.4977 4.14282 76.6417 4.14282Z" fill="#D6D1FF"/>
<path d="M76.6417 16.5713C77.7857 16.5713 78.7131 15.6439 78.7131 14.4999C78.7131 13.3559 77.7857 12.4285 76.6417 12.4285C75.4977 12.4285 74.5703 13.3559 74.5703 14.4999C74.5703 15.6439 75.4977 16.5713 76.6417 16.5713Z" fill="#D6D1FF"/>
<path d="M76.6417 28.9998C77.7857 28.9998 78.7131 28.0724 78.7131 26.9283C78.7131 25.7843 77.7857 24.8569 76.6417 24.8569C75.4977 24.8569 74.5703 25.7843 74.5703 26.9283C74.5703 28.0724 75.4977 28.9998 76.6417 28.9998Z" fill="#D6D1FF"/>
<path d="M76.6417 41.4282C77.7857 41.4282 78.7131 40.5008 78.7131 39.3568C78.7131 38.2128 77.7857 37.2854 76.6417 37.2854C75.4977 37.2854 74.5703 38.2128 74.5703 39.3568C74.5703 40.5008 75.4977 41.4282 76.6417 41.4282Z" fill="#D6D1FF"/>
<path d="M76.6417 53.8567C77.7857 53.8567 78.7131 52.9293 78.7131 51.7853C78.7131 50.6413 77.7857 49.7139 76.6417 49.7139C75.4977 49.7139 74.5703 50.6413 74.5703 51.7853C74.5703 52.9293 75.4977 53.8567 76.6417 53.8567Z" fill="#D6D1FF"/>
<path d="M76.6417 66.2852C77.7857 66.2852 78.7131 65.3578 78.7131 64.2137C78.7131 63.0697 77.7857 62.1423 76.6417 62.1423C75.4977 62.1423 74.5703 63.0697 74.5703 64.2137C74.5703 65.3578 75.4977 66.2852 76.6417 66.2852Z" fill="#D6D1FF"/>
<path d="M76.6417 78.7136C77.7857 78.7136 78.7131 77.7862 78.7131 76.6422C78.7131 75.4982 77.7857 74.5708 76.6417 74.5708C75.4977 74.5708 74.5703 75.4982 74.5703 76.6422C74.5703 77.7862 75.4977 78.7136 76.6417 78.7136Z" fill="#D6D1FF"/>
<path d="M76.6417 91.1421C77.7857 91.1421 78.7131 90.2147 78.7131 89.0707C78.7131 87.9267 77.7857 86.9993 76.6417 86.9993C75.4977 86.9993 74.5703 87.9267 74.5703 89.0707C74.5703 90.2147 75.4977 91.1421 76.6417 91.1421Z" fill="#D6D1FF"/>
<path d="M76.6417 103.57C77.7857 103.57 78.7131 102.643 78.7131 101.499C78.7131 100.355 77.7857 99.4275 76.6417 99.4275C75.4977 99.4275 74.5703 100.355 74.5703 101.499C74.5703 102.643 75.4977 103.57 76.6417 103.57Z" fill="#D6D1FF"/>
<path d="M76.6417 116C77.7857 116 78.7131 115.072 78.7131 113.928C78.7131 112.784 77.7857 111.857 76.6417 111.857C75.4977 111.857 74.5703 112.784 74.5703 113.928C74.5703 115.072 75.4977 116 76.6417 116Z" fill="#D6D1FF"/>
<path d="M89.0704 16.5713C90.2144 16.5713 91.1418 15.6439 91.1418 14.4999C91.1418 13.3559 90.2144 12.4285 89.0704 12.4285C87.9264 12.4285 86.999 13.3559 86.999 14.4999C86.999 15.6439 87.9264 16.5713 89.0704 16.5713Z" fill="#D6D1FF"/>
<path d="M89.0704 28.9998C90.2144 28.9998 91.1418 28.0724 91.1418 26.9283C91.1418 25.7843 90.2144 24.8569 89.0704 24.8569C87.9264 24.8569 86.999 25.7843 86.999 26.9283C86.999 28.0724 87.9264 28.9998 89.0704 28.9998Z" fill="#D6D1FF"/>
<path d="M89.0704 41.4282C90.2144 41.4282 91.1418 40.5008 91.1418 39.3568C91.1418 38.2128 90.2144 37.2854 89.0704 37.2854C87.9264 37.2854 86.999 38.2128 86.999 39.3568C86.999 40.5008 87.9264 41.4282 89.0704 41.4282Z" fill="#D6D1FF"/>
<path d="M89.0704 53.8567C90.2144 53.8567 91.1418 52.9293 91.1418 51.7853C91.1418 50.6413 90.2144 49.7139 89.0704 49.7139C87.9264 49.7139 86.999 50.6413 86.999 51.7853C86.999 52.9293 87.9264 53.8567 89.0704 53.8567Z" fill="#D6D1FF"/>
<path d="M89.0704 66.2852C90.2144 66.2852 91.1418 65.3578 91.1418 64.2137C91.1418 63.0697 90.2144 62.1423 89.0704 62.1423C87.9264 62.1423 86.999 63.0697 86.999 64.2137C86.999 65.3578 87.9264 66.2852 89.0704 66.2852Z" fill="#D6D1FF"/>
<path d="M89.0704 78.7136C90.2144 78.7136 91.1418 77.7862 91.1418 76.6422C91.1418 75.4982 90.2144 74.5708 89.0704 74.5708C87.9264 74.5708 86.999 75.4982 86.999 76.6422C86.999 77.7862 87.9264 78.7136 89.0704 78.7136Z" fill="#D6D1FF"/>
<path d="M89.0704 91.1421C90.2144 91.1421 91.1418 90.2147 91.1418 89.0707C91.1418 87.9267 90.2144 86.9993 89.0704 86.9993C87.9264 86.9993 86.999 87.9267 86.999 89.0707C86.999 90.2147 87.9264 91.1421 89.0704 91.1421Z" fill="#D6D1FF"/>
<path d="M89.0704 103.57C90.2144 103.57 91.1418 102.643 91.1418 101.499C91.1418 100.355 90.2144 99.4275 89.0704 99.4275C87.9264 99.4275 86.999 100.355 86.999 101.499C86.999 102.643 87.9264 103.57 89.0704 103.57Z" fill="#D6D1FF"/>
<path d="M89.0704 116C90.2144 116 91.1418 115.072 91.1418 113.928C91.1418 112.784 90.2144 111.857 89.0704 111.857C87.9264 111.857 86.999 112.784 86.999 113.928C86.999 115.072 87.9264 116 89.0704 116Z" fill="#D6D1FF"/>
<path d="M101.5 28.9998C102.644 28.9998 103.572 28.0724 103.572 26.9283C103.572 25.7843 102.644 24.8569 101.5 24.8569C100.356 24.8569 99.4287 25.7843 99.4287 26.9283C99.4287 28.0724 100.356 28.9998 101.5 28.9998Z" fill="#D6D1FF"/>
<path d="M101.5 41.4282C102.644 41.4282 103.572 40.5008 103.572 39.3568C103.572 38.2128 102.644 37.2854 101.5 37.2854C100.356 37.2854 99.4287 38.2128 99.4287 39.3568C99.4287 40.5008 100.356 41.4282 101.5 41.4282Z" fill="#D6D1FF"/>
<path d="M101.5 53.8567C102.644 53.8567 103.572 52.9293 103.572 51.7853C103.572 50.6413 102.644 49.7139 101.5 49.7139C100.356 49.7139 99.4287 50.6413 99.4287 51.7853C99.4287 52.9293 100.356 53.8567 101.5 53.8567Z" fill="#D6D1FF"/>
<path d="M101.5 66.2852C102.644 66.2852 103.572 65.3578 103.572 64.2137C103.572 63.0697 102.644 62.1423 101.5 62.1423C100.356 62.1423 99.4287 63.0697 99.4287 64.2137C99.4287 65.3578 100.356 66.2852 101.5 66.2852Z" fill="#D6D1FF"/>
<path d="M101.5 78.7136C102.644 78.7136 103.572 77.7862 103.572 76.6422C103.572 75.4982 102.644 74.5708 101.5 74.5708C100.356 74.5708 99.4287 75.4982 99.4287 76.6422C99.4287 77.7862 100.356 78.7136 101.5 78.7136Z" fill="#D6D1FF"/>
<path d="M101.5 91.1421C102.644 91.1421 103.572 90.2147 103.572 89.0707C103.572 87.9267 102.644 86.9993 101.5 86.9993C100.356 86.9993 99.4287 87.9267 99.4287 89.0707C99.4287 90.2147 100.356 91.1421 101.5 91.1421Z" fill="#D6D1FF"/>
<path d="M101.5 103.57C102.644 103.57 103.572 102.643 103.572 101.499C103.572 100.355 102.644 99.4275 101.5 99.4275C100.356 99.4275 99.4287 100.355 99.4287 101.499C99.4287 102.643 100.356 103.57 101.5 103.57Z" fill="#D6D1FF"/>
<path d="M113.929 41.4282C115.073 41.4282 116 40.5008 116 39.3568C116 38.2128 115.073 37.2854 113.929 37.2854C112.785 37.2854 111.857 38.2128 111.857 39.3568C111.857 40.5008 112.785 41.4282 113.929 41.4282Z" fill="#D6D1FF"/>
<path d="M113.929 53.8567C115.073 53.8567 116 52.9293 116 51.7853C116 50.6413 115.073 49.7139 113.929 49.7139C112.785 49.7139 111.857 50.6413 111.857 51.7853C111.857 52.9293 112.785 53.8567 113.929 53.8567Z" fill="#D6D1FF"/>
<path d="M113.929 66.2852C115.073 66.2852 116 65.3578 116 64.2137C116 63.0697 115.073 62.1423 113.929 62.1423C112.785 62.1423 111.857 63.0697 111.857 64.2137C111.857 65.3578 112.785 66.2852 113.929 66.2852Z" fill="#D6D1FF"/>
<path d="M113.929 78.7136C115.073 78.7136 116 77.7862 116 76.6422C116 75.4982 115.073 74.5708 113.929 74.5708C112.785 74.5708 111.857 75.4982 111.857 76.6422C111.857 77.7862 112.785 78.7136 113.929 78.7136Z" fill="#D6D1FF"/>
</g>
</g>
</g>
</g>
<defs>
<clipPath id="clip0_7_740">
<rect width="116" height="116" fill="white"/>
</clipPath>
<clipPath id="clip1_7_740">
<rect width="116" height="116" fill="white"/>
</clipPath>
<clipPath id="clip2_7_740">
<rect width="116" height="116" fill="white"/>
</clipPath>
</defs>
</svg>
