<svg width="190" height="172" viewBox="0 0 190 172" fill="none" xmlns="http://www.w3.org/2000/svg">
<g clip-path="url(#clip0_7_950)">
<g opacity="0.3">
<path d="M50.1044 47.5341C54.9583 23.4491 71.3222 15.2487 78.8974 14.1592C106.101 9.09968 140.77 42.8853 155.783 61.5269C170.797 80.1686 177.987 105.893 155.3 121.009C132.613 136.125 117.31 158.609 85.0771 161.85C52.8445 165.091 27.2347 139.918 23.0759 116.264C18.9171 92.6101 44.037 77.6403 50.1044 47.5341Z" stroke="url(#paint0_linear_7_950)"/>
<path d="M48.9269 41.9164C57.7798 16.8587 78.2023 9.72575 87.307 9.29151C120.151 6.5171 156.814 45.6108 172.174 66.7899C187.534 87.969 192.721 115.909 163.923 129.768C135.126 143.628 114.115 165.995 75.5544 166.365C36.9942 166.734 9.93872 137.627 8.07095 112.169C6.20318 86.7115 37.8608 73.2385 48.9269 41.9164Z" stroke="url(#paint1_linear_7_950)"/>
<path d="M59.1466 51.923C66.0271 32.4483 81.8994 26.9047 88.9754 26.5672C114.502 24.4109 142.996 54.7943 154.934 71.2546C166.871 87.7149 170.903 109.43 148.522 120.201C126.14 130.973 109.81 148.357 79.8414 148.644C49.8726 148.931 28.8452 126.309 27.3936 106.523C25.942 86.7376 50.5461 76.2664 59.1466 51.923Z" stroke="url(#paint2_linear_7_950)"/>
<path d="M63.7595 56.4404C69.7495 39.4859 83.5677 34.6596 89.7281 34.3658C111.951 32.4886 136.758 58.9401 147.151 73.2702C157.543 87.6004 161.053 106.505 141.568 115.883C122.083 125.26 107.867 140.395 81.7761 140.644C55.6856 140.894 37.3794 121.2 36.1156 103.975C34.8519 86.7495 56.2719 77.6335 63.7595 56.4404Z" stroke="url(#paint3_linear_7_950)"/>
<path d="M68.2423 60.8294C73.3673 46.3235 85.1899 42.1942 90.4605 41.9429C109.474 40.3368 130.698 62.9681 139.59 75.2287C148.482 87.4892 151.485 103.664 134.814 111.687C118.143 119.71 105.979 132.659 83.657 132.872C61.3345 133.086 45.6721 116.236 44.5908 101.499C43.5096 86.7613 61.8361 78.9617 68.2423 60.8294Z" stroke="url(#paint4_linear_7_950)"/>
<path d="M74.5854 67.0407C78.486 56.0003 87.4841 52.8575 91.4956 52.6662C105.967 51.4438 122.121 68.6685 128.888 78C135.656 87.3315 137.941 99.642 125.253 105.748C112.565 111.855 103.307 121.71 86.3175 121.873C69.3278 122.035 57.4071 109.211 56.5842 97.9943C55.7613 86.7775 69.7096 80.8413 74.5854 67.0407Z" stroke="url(#paint5_linear_7_950)"/>
<path d="M78.5312 70.9045C81.6702 62.0197 88.9115 59.4906 92.1398 59.3366C103.786 58.3528 116.786 72.2145 122.232 79.7241C127.678 87.2336 129.517 97.1405 119.306 102.054C109.095 106.969 101.645 114.9 87.9726 115.031C74.3001 115.162 64.7069 104.841 64.0447 95.8145C63.3824 86.7878 74.6074 82.0106 78.5312 70.9045Z" stroke="url(#paint6_linear_7_950)"/>
<path d="M81.7702 74.076C84.2841 66.9607 90.0831 64.9353 92.6684 64.812C101.995 64.0242 112.406 75.125 116.767 81.1389C121.128 87.1528 122.601 95.0865 114.424 99.0219C106.247 102.957 100.281 109.309 89.3312 109.414C78.3819 109.518 70.6994 101.254 70.169 94.0246C69.6387 86.7957 78.628 82.97 81.7702 74.076Z" stroke="url(#paint7_linear_7_950)"/>
</g>
</g>
<defs>
<linearGradient id="paint0_linear_7_950" x1="19.9857" y1="99.66" x2="166.154" y2="72.4747" gradientUnits="userSpaceOnUse">
<stop stop-color="#20D9A1"/>
<stop offset="1" stop-color="#5F39FF"/>
</linearGradient>
<linearGradient id="paint1_linear_7_950" x1="6.55762" y1="94.2828" x2="183.033" y2="79.3755" gradientUnits="userSpaceOnUse">
<stop stop-color="#20D9A1"/>
<stop offset="1" stop-color="#5F39FF"/>
</linearGradient>
<linearGradient id="paint2_linear_7_950" x1="26.2174" y1="92.622" x2="163.373" y2="81.0361" gradientUnits="userSpaceOnUse">
<stop stop-color="#20D9A1"/>
<stop offset="1" stop-color="#5F39FF"/>
</linearGradient>
<linearGradient id="paint3_linear_7_950" x1="35.0917" y1="91.8724" x2="154.498" y2="81.7859" gradientUnits="userSpaceOnUse">
<stop stop-color="#20D9A1"/>
<stop offset="1" stop-color="#5F39FF"/>
</linearGradient>
<linearGradient id="paint4_linear_7_950" x1="43.7148" y1="91.1443" x2="145.876" y2="82.5145" gradientUnits="userSpaceOnUse">
<stop stop-color="#20D9A1"/>
<stop offset="1" stop-color="#5F39FF"/>
</linearGradient>
<linearGradient id="paint5_linear_7_950" x1="55.9174" y1="90.1134" x2="133.673" y2="83.5452" gradientUnits="userSpaceOnUse">
<stop stop-color="#20D9A1"/>
<stop offset="1" stop-color="#5F39FF"/>
</linearGradient>
<linearGradient id="paint6_linear_7_950" x1="63.5081" y1="89.4723" x2="126.082" y2="84.1866" gradientUnits="userSpaceOnUse">
<stop stop-color="#20D9A1"/>
<stop offset="1" stop-color="#5F39FF"/>
</linearGradient>
<linearGradient id="paint7_linear_7_950" x1="69.7393" y1="88.9456" x2="119.85" y2="84.7127" gradientUnits="userSpaceOnUse">
<stop stop-color="#20D9A1"/>
<stop offset="1" stop-color="#5F39FF"/>
</linearGradient>
<clipPath id="clip0_7_950">
<rect width="190" height="172" fill="white"/>
</clipPath>
</defs>
</svg>
