<svg width="150" height="150" viewBox="0 0 150 150" fill="none" xmlns="http://www.w3.org/2000/svg">
<g clip-path="url(#clip0_7_464)">
<g clip-path="url(#clip1_7_464)">
<g clip-path="url(#clip2_7_464)">
<g opacity="0.1">
<path d="M2.67854 53.5709C4.15786 53.5709 5.35708 52.3717 5.35708 50.8924C5.35708 49.4131 4.15786 48.2139 2.67854 48.2139C1.19922 48.2139 0 49.4131 0 50.8924C0 52.3717 1.19922 53.5709 2.67854 53.5709Z" fill="#5F39FF"/>
<path d="M2.67854 69.6422C4.15786 69.6422 5.35708 68.443 5.35708 66.9637C5.35708 65.4844 4.15786 64.2852 2.67854 64.2852C1.19922 64.2852 0 65.4844 0 66.9637C0 68.443 1.19922 69.6422 2.67854 69.6422Z" fill="#5F39FF"/>
<path d="M2.67854 85.7135C4.15786 85.7135 5.35708 84.5143 5.35708 83.035C5.35708 81.5557 4.15786 80.3564 2.67854 80.3564C1.19922 80.3564 0 81.5557 0 83.035C0 84.5143 1.19922 85.7135 2.67854 85.7135Z" fill="#5F39FF"/>
<path d="M2.67854 101.785C4.15786 101.785 5.35708 100.586 5.35708 99.1063C5.35708 97.627 4.15786 96.4277 2.67854 96.4277C1.19922 96.4277 0 97.627 0 99.1063C0 100.586 1.19922 101.785 2.67854 101.785Z" fill="#5F39FF"/>
<path d="M2.67854 117.856C4.15786 117.856 5.35708 116.656 5.35708 115.177C5.35708 113.698 4.15786 112.499 2.67854 112.499C1.19922 112.499 0 113.698 0 115.177C0 116.656 1.19922 117.856 2.67854 117.856Z" fill="#5F39FF"/>
<path d="M18.7498 21.4284C20.2291 21.4284 21.4284 20.2291 21.4284 18.7498C21.4284 17.2705 20.2291 16.0713 18.7498 16.0713C17.2705 16.0713 16.0713 17.2705 16.0713 18.7498C16.0713 20.2291 17.2705 21.4284 18.7498 21.4284Z" fill="#5F39FF"/>
<path d="M18.7498 37.4997C20.2291 37.4997 21.4284 36.3004 21.4284 34.8211C21.4284 33.3418 20.2291 32.1426 18.7498 32.1426C17.2705 32.1426 16.0713 33.3418 16.0713 34.8211C16.0713 36.3004 17.2705 37.4997 18.7498 37.4997Z" fill="#5F39FF"/>
<path d="M5.89387 37.4997C7.37319 37.4997 8.57241 36.3004 8.57241 34.8211C8.57241 33.3418 7.37319 32.1426 5.89387 32.1426C4.41456 32.1426 3.21533 33.3418 3.21533 34.8211C3.21533 36.3004 4.41456 37.4997 5.89387 37.4997Z" fill="#5F39FF"/>
<path d="M18.7498 53.5709C20.2291 53.5709 21.4284 52.3717 21.4284 50.8924C21.4284 49.4131 20.2291 48.2139 18.7498 48.2139C17.2705 48.2139 16.0713 49.4131 16.0713 50.8924C16.0713 52.3717 17.2705 53.5709 18.7498 53.5709Z" fill="#5F39FF"/>
<path d="M18.7498 69.6422C20.2291 69.6422 21.4284 68.443 21.4284 66.9637C21.4284 65.4844 20.2291 64.2852 18.7498 64.2852C17.2705 64.2852 16.0713 65.4844 16.0713 66.9637C16.0713 68.443 17.2705 69.6422 18.7498 69.6422Z" fill="#5F39FF"/>
<path d="M18.7498 85.7135C20.2291 85.7135 21.4284 84.5143 21.4284 83.035C21.4284 81.5557 20.2291 80.3564 18.7498 80.3564C17.2705 80.3564 16.0713 81.5557 16.0713 83.035C16.0713 84.5143 17.2705 85.7135 18.7498 85.7135Z" fill="#5F39FF"/>
<path d="M18.7498 101.785C20.2291 101.785 21.4284 100.586 21.4284 99.1063C21.4284 97.627 20.2291 96.4277 18.7498 96.4277C17.2705 96.4277 16.0713 97.627 16.0713 99.1063C16.0713 100.586 17.2705 101.785 18.7498 101.785Z" fill="#5F39FF"/>
<path d="M18.7498 117.857C20.2291 117.857 21.4284 116.657 21.4284 115.178C21.4284 113.699 20.2291 112.5 18.7498 112.5C17.2705 112.5 16.0713 113.699 16.0713 115.178C16.0713 116.657 17.2705 117.857 18.7498 117.857Z" fill="#5F39FF"/>
<path d="M18.7498 133.928C20.2291 133.928 21.4284 132.728 21.4284 131.249C21.4284 129.77 20.2291 128.571 18.7498 128.571C17.2705 128.571 16.0713 129.77 16.0713 131.249C16.0713 132.728 17.2705 133.928 18.7498 133.928Z" fill="#5F39FF"/>
<path d="M34.8226 21.4284C36.3019 21.4284 37.5011 20.2291 37.5011 18.7498C37.5011 17.2705 36.3019 16.0713 34.8226 16.0713C33.3433 16.0713 32.144 17.2705 32.144 18.7498C32.144 20.2291 33.3433 21.4284 34.8226 21.4284Z" fill="#5F39FF"/>
<path d="M34.8226 10.714C36.3019 10.714 37.5011 9.51479 37.5011 8.03547C37.5011 6.55616 36.3019 5.35693 34.8226 5.35693C33.3433 5.35693 32.144 6.55616 32.144 8.03547C32.144 9.51479 33.3433 10.714 34.8226 10.714Z" fill="#5F39FF"/>
<path d="M34.8226 37.4997C36.3019 37.4997 37.5011 36.3004 37.5011 34.8211C37.5011 33.3418 36.3019 32.1426 34.8226 32.1426C33.3433 32.1426 32.144 33.3418 32.144 34.8211C32.144 36.3004 33.3433 37.4997 34.8226 37.4997Z" fill="#5F39FF"/>
<path d="M34.8226 53.5709C36.3019 53.5709 37.5011 52.3717 37.5011 50.8924C37.5011 49.4131 36.3019 48.2139 34.8226 48.2139C33.3433 48.2139 32.144 49.4131 32.144 50.8924C32.144 52.3717 33.3433 53.5709 34.8226 53.5709Z" fill="#5F39FF"/>
<path d="M34.8226 69.6422C36.3019 69.6422 37.5011 68.443 37.5011 66.9637C37.5011 65.4844 36.3019 64.2852 34.8226 64.2852C33.3433 64.2852 32.144 65.4844 32.144 66.9637C32.144 68.443 33.3433 69.6422 34.8226 69.6422Z" fill="#5F39FF"/>
<path d="M34.8226 85.7135C36.3019 85.7135 37.5011 84.5143 37.5011 83.035C37.5011 81.5557 36.3019 80.3564 34.8226 80.3564C33.3433 80.3564 32.144 81.5557 32.144 83.035C32.144 84.5143 33.3433 85.7135 34.8226 85.7135Z" fill="#5F39FF"/>
<path d="M34.8226 101.785C36.3019 101.785 37.5011 100.586 37.5011 99.1063C37.5011 97.627 36.3019 96.4277 34.8226 96.4277C33.3433 96.4277 32.144 97.627 32.144 99.1063C32.144 100.586 33.3433 101.785 34.8226 101.785Z" fill="#5F39FF"/>
<path d="M34.8226 117.856C36.3019 117.856 37.5011 116.656 37.5011 115.177C37.5011 113.698 36.3019 112.499 34.8226 112.499C33.3433 112.499 32.144 113.698 32.144 115.177C32.144 116.656 33.3433 117.856 34.8226 117.856Z" fill="#5F39FF"/>
<path d="M34.8226 133.926C36.3019 133.926 37.5011 132.727 37.5011 131.248C37.5011 129.769 36.3019 128.569 34.8226 128.569C33.3433 128.569 32.144 129.769 32.144 131.248C32.144 132.727 33.3433 133.926 34.8226 133.926Z" fill="#5F39FF"/>
<path d="M34.8226 149.998C36.3019 149.998 37.5011 148.799 37.5011 147.32C37.5011 145.841 36.3019 144.641 34.8226 144.641C33.3433 144.641 32.144 145.841 32.144 147.32C32.144 148.799 33.3433 149.998 34.8226 149.998Z" fill="#5F39FF"/>
<path d="M50.8929 5.35708C52.3722 5.35708 53.5714 4.15786 53.5714 2.67854C53.5714 1.19922 52.3722 0 50.8929 0C49.4136 0 48.2144 1.19922 48.2144 2.67854C48.2144 4.15786 49.4136 5.35708 50.8929 5.35708Z" fill="#5F39FF"/>
<path d="M50.8929 21.4284C52.3722 21.4284 53.5714 20.2291 53.5714 18.7498C53.5714 17.2705 52.3722 16.0713 50.8929 16.0713C49.4136 16.0713 48.2144 17.2705 48.2144 18.7498C48.2144 20.2291 49.4136 21.4284 50.8929 21.4284Z" fill="#5F39FF"/>
<path d="M50.8929 37.4997C52.3722 37.4997 53.5714 36.3004 53.5714 34.8211C53.5714 33.3418 52.3722 32.1426 50.8929 32.1426C49.4136 32.1426 48.2144 33.3418 48.2144 34.8211C48.2144 36.3004 49.4136 37.4997 50.8929 37.4997Z" fill="#5F39FF"/>
<path d="M50.8929 53.5709C52.3722 53.5709 53.5714 52.3717 53.5714 50.8924C53.5714 49.4131 52.3722 48.2139 50.8929 48.2139C49.4136 48.2139 48.2144 49.4131 48.2144 50.8924C48.2144 52.3717 49.4136 53.5709 50.8929 53.5709Z" fill="#5F39FF"/>
<path d="M50.8929 69.6422C52.3722 69.6422 53.5714 68.443 53.5714 66.9637C53.5714 65.4844 52.3722 64.2852 50.8929 64.2852C49.4136 64.2852 48.2144 65.4844 48.2144 66.9637C48.2144 68.443 49.4136 69.6422 50.8929 69.6422Z" fill="#5F39FF"/>
<path d="M50.8929 85.7135C52.3722 85.7135 53.5714 84.5143 53.5714 83.035C53.5714 81.5557 52.3722 80.3564 50.8929 80.3564C49.4136 80.3564 48.2144 81.5557 48.2144 83.035C48.2144 84.5143 49.4136 85.7135 50.8929 85.7135Z" fill="#5F39FF"/>
<path d="M50.8929 101.785C52.3722 101.785 53.5714 100.586 53.5714 99.1063C53.5714 97.627 52.3722 96.4277 50.8929 96.4277C49.4136 96.4277 48.2144 97.627 48.2144 99.1063C48.2144 100.586 49.4136 101.785 50.8929 101.785Z" fill="#5F39FF"/>
<path d="M50.8929 117.856C52.3722 117.856 53.5714 116.656 53.5714 115.177C53.5714 113.698 52.3722 112.499 50.8929 112.499C49.4136 112.499 48.2144 113.698 48.2144 115.177C48.2144 116.656 49.4136 117.856 50.8929 117.856Z" fill="#5F39FF"/>
<path d="M50.8929 133.926C52.3722 133.926 53.5714 132.727 53.5714 131.248C53.5714 129.769 52.3722 128.569 50.8929 128.569C49.4136 128.569 48.2144 129.769 48.2144 131.248C48.2144 132.727 49.4136 133.926 50.8929 133.926Z" fill="#5F39FF"/>
<path d="M50.8929 149.998C52.3722 149.998 53.5714 148.799 53.5714 147.32C53.5714 145.841 52.3722 144.641 50.8929 144.641C49.4136 144.641 48.2144 145.841 48.2144 147.32C48.2144 148.799 49.4136 149.998 50.8929 149.998Z" fill="#5F39FF"/>
<path d="M66.9617 5.35708C68.4411 5.35708 69.6403 4.15786 69.6403 2.67854C69.6403 1.19922 68.4411 0 66.9617 0C65.4824 0 64.2832 1.19922 64.2832 2.67854C64.2832 4.15786 65.4824 5.35708 66.9617 5.35708Z" fill="#5F39FF"/>
<path d="M66.9617 21.4284C68.4411 21.4284 69.6403 20.2291 69.6403 18.7498C69.6403 17.2705 68.4411 16.0713 66.9617 16.0713C65.4824 16.0713 64.2832 17.2705 64.2832 18.7498C64.2832 20.2291 65.4824 21.4284 66.9617 21.4284Z" fill="#5F39FF"/>
<path d="M66.9617 37.4997C68.4411 37.4997 69.6403 36.3004 69.6403 34.8211C69.6403 33.3418 68.4411 32.1426 66.9617 32.1426C65.4824 32.1426 64.2832 33.3418 64.2832 34.8211C64.2832 36.3004 65.4824 37.4997 66.9617 37.4997Z" fill="#5F39FF"/>
<path d="M66.9617 53.5709C68.4411 53.5709 69.6403 52.3717 69.6403 50.8924C69.6403 49.4131 68.4411 48.2139 66.9617 48.2139C65.4824 48.2139 64.2832 49.4131 64.2832 50.8924C64.2832 52.3717 65.4824 53.5709 66.9617 53.5709Z" fill="#5F39FF"/>
<path d="M66.9617 69.6422C68.4411 69.6422 69.6403 68.443 69.6403 66.9637C69.6403 65.4844 68.4411 64.2852 66.9617 64.2852C65.4824 64.2852 64.2832 65.4844 64.2832 66.9637C64.2832 68.443 65.4824 69.6422 66.9617 69.6422Z" fill="#5F39FF"/>
<path d="M66.9617 85.7135C68.4411 85.7135 69.6403 84.5143 69.6403 83.035C69.6403 81.5557 68.4411 80.3564 66.9617 80.3564C65.4824 80.3564 64.2832 81.5557 64.2832 83.035C64.2832 84.5143 65.4824 85.7135 66.9617 85.7135Z" fill="#5F39FF"/>
<path d="M66.9617 101.785C68.4411 101.785 69.6403 100.586 69.6403 99.1063C69.6403 97.627 68.4411 96.4277 66.9617 96.4277C65.4824 96.4277 64.2832 97.627 64.2832 99.1063C64.2832 100.586 65.4824 101.785 66.9617 101.785Z" fill="#5F39FF"/>
<path d="M66.9617 117.857C68.4411 117.857 69.6403 116.657 69.6403 115.178C69.6403 113.699 68.4411 112.5 66.9617 112.5C65.4824 112.5 64.2832 113.699 64.2832 115.178C64.2832 116.657 65.4824 117.857 66.9617 117.857Z" fill="#5F39FF"/>
<path d="M66.9617 133.928C68.4411 133.928 69.6403 132.728 69.6403 131.249C69.6403 129.77 68.4411 128.571 66.9617 128.571C65.4824 128.571 64.2832 129.77 64.2832 131.249C64.2832 132.728 65.4824 133.928 66.9617 133.928Z" fill="#5F39FF"/>
<path d="M66.9617 149.998C68.4411 149.998 69.6403 148.799 69.6403 147.32C69.6403 145.841 68.4411 144.641 66.9617 144.641C65.4824 144.641 64.2832 145.841 64.2832 147.32C64.2832 148.799 65.4824 149.998 66.9617 149.998Z" fill="#5F39FF"/>
<path d="M83.0321 5.35708C84.5114 5.35708 85.7106 4.15786 85.7106 2.67854C85.7106 1.19922 84.5114 0 83.0321 0C81.5527 0 80.3535 1.19922 80.3535 2.67854C80.3535 4.15786 81.5527 5.35708 83.0321 5.35708Z" fill="#5F39FF"/>
<path d="M83.0321 21.4284C84.5114 21.4284 85.7106 20.2291 85.7106 18.7498C85.7106 17.2705 84.5114 16.0713 83.0321 16.0713C81.5527 16.0713 80.3535 17.2705 80.3535 18.7498C80.3535 20.2291 81.5527 21.4284 83.0321 21.4284Z" fill="#5F39FF"/>
<path d="M83.0321 37.4997C84.5114 37.4997 85.7106 36.3004 85.7106 34.8211C85.7106 33.3418 84.5114 32.1426 83.0321 32.1426C81.5527 32.1426 80.3535 33.3418 80.3535 34.8211C80.3535 36.3004 81.5527 37.4997 83.0321 37.4997Z" fill="#5F39FF"/>
<path d="M83.0321 53.5709C84.5114 53.5709 85.7106 52.3717 85.7106 50.8924C85.7106 49.4131 84.5114 48.2139 83.0321 48.2139C81.5527 48.2139 80.3535 49.4131 80.3535 50.8924C80.3535 52.3717 81.5527 53.5709 83.0321 53.5709Z" fill="#5F39FF"/>
<path d="M83.0321 69.6422C84.5114 69.6422 85.7106 68.443 85.7106 66.9637C85.7106 65.4844 84.5114 64.2852 83.0321 64.2852C81.5527 64.2852 80.3535 65.4844 80.3535 66.9637C80.3535 68.443 81.5527 69.6422 83.0321 69.6422Z" fill="#5F39FF"/>
<path d="M83.0321 85.7135C84.5114 85.7135 85.7106 84.5143 85.7106 83.035C85.7106 81.5557 84.5114 80.3564 83.0321 80.3564C81.5527 80.3564 80.3535 81.5557 80.3535 83.035C80.3535 84.5143 81.5527 85.7135 83.0321 85.7135Z" fill="#5F39FF"/>
<path d="M83.0321 101.785C84.5114 101.785 85.7106 100.586 85.7106 99.1063C85.7106 97.627 84.5114 96.4277 83.0321 96.4277C81.5527 96.4277 80.3535 97.627 80.3535 99.1063C80.3535 100.586 81.5527 101.785 83.0321 101.785Z" fill="#5F39FF"/>
<path d="M83.0321 117.857C84.5114 117.857 85.7106 116.657 85.7106 115.178C85.7106 113.699 84.5114 112.5 83.0321 112.5C81.5527 112.5 80.3535 113.699 80.3535 115.178C80.3535 116.657 81.5527 117.857 83.0321 117.857Z" fill="#5F39FF"/>
<path d="M83.0321 133.928C84.5114 133.928 85.7106 132.728 85.7106 131.249C85.7106 129.77 84.5114 128.571 83.0321 128.571C81.5527 128.571 80.3535 129.77 80.3535 131.249C80.3535 132.728 81.5527 133.928 83.0321 133.928Z" fill="#5F39FF"/>
<path d="M83.0321 149.998C84.5114 149.998 85.7106 148.799 85.7106 147.32C85.7106 145.841 84.5114 144.641 83.0321 144.641C81.5527 144.641 80.3535 145.841 80.3535 147.32C80.3535 148.799 81.5527 149.998 83.0321 149.998Z" fill="#5F39FF"/>
<path d="M99.1053 5.35708C100.585 5.35708 101.784 4.15786 101.784 2.67854C101.784 1.19922 100.585 0 99.1053 0C97.626 0 96.4268 1.19922 96.4268 2.67854C96.4268 4.15786 97.626 5.35708 99.1053 5.35708Z" fill="#5F39FF"/>
<path d="M99.1053 21.4284C100.585 21.4284 101.784 20.2291 101.784 18.7498C101.784 17.2705 100.585 16.0713 99.1053 16.0713C97.626 16.0713 96.4268 17.2705 96.4268 18.7498C96.4268 20.2291 97.626 21.4284 99.1053 21.4284Z" fill="#5F39FF"/>
<path d="M99.1053 37.4997C100.585 37.4997 101.784 36.3004 101.784 34.8211C101.784 33.3418 100.585 32.1426 99.1053 32.1426C97.626 32.1426 96.4268 33.3418 96.4268 34.8211C96.4268 36.3004 97.626 37.4997 99.1053 37.4997Z" fill="#5F39FF"/>
<path d="M99.1053 53.5709C100.585 53.5709 101.784 52.3717 101.784 50.8924C101.784 49.4131 100.585 48.2139 99.1053 48.2139C97.626 48.2139 96.4268 49.4131 96.4268 50.8924C96.4268 52.3717 97.626 53.5709 99.1053 53.5709Z" fill="#5F39FF"/>
<path d="M99.1053 69.6422C100.585 69.6422 101.784 68.443 101.784 66.9637C101.784 65.4844 100.585 64.2852 99.1053 64.2852C97.626 64.2852 96.4268 65.4844 96.4268 66.9637C96.4268 68.443 97.626 69.6422 99.1053 69.6422Z" fill="#5F39FF"/>
<path d="M99.1053 85.7135C100.585 85.7135 101.784 84.5143 101.784 83.035C101.784 81.5557 100.585 80.3564 99.1053 80.3564C97.626 80.3564 96.4268 81.5557 96.4268 83.035C96.4268 84.5143 97.626 85.7135 99.1053 85.7135Z" fill="#5F39FF"/>
<path d="M99.1053 101.785C100.585 101.785 101.784 100.586 101.784 99.1063C101.784 97.627 100.585 96.4277 99.1053 96.4277C97.626 96.4277 96.4268 97.627 96.4268 99.1063C96.4268 100.586 97.626 101.785 99.1053 101.785Z" fill="#5F39FF"/>
<path d="M99.1053 117.856C100.585 117.856 101.784 116.656 101.784 115.177C101.784 113.698 100.585 112.499 99.1053 112.499C97.626 112.499 96.4268 113.698 96.4268 115.177C96.4268 116.656 97.626 117.856 99.1053 117.856Z" fill="#5F39FF"/>
<path d="M99.1053 133.926C100.585 133.926 101.784 132.727 101.784 131.248C101.784 129.769 100.585 128.569 99.1053 128.569C97.626 128.569 96.4268 129.769 96.4268 131.248C96.4268 132.727 97.626 133.926 99.1053 133.926Z" fill="#5F39FF"/>
<path d="M99.1053 149.998C100.585 149.998 101.784 148.799 101.784 147.32C101.784 145.841 100.585 144.641 99.1053 144.641C97.626 144.641 96.4268 145.841 96.4268 147.32C96.4268 148.799 97.626 149.998 99.1053 149.998Z" fill="#5F39FF"/>
<path d="M99.1053 5.35708C100.585 5.35708 101.784 4.15786 101.784 2.67854C101.784 1.19922 100.585 0 99.1053 0C97.626 0 96.4268 1.19922 96.4268 2.67854C96.4268 4.15786 97.626 5.35708 99.1053 5.35708Z" fill="#5F39FF"/>
<path d="M99.1053 21.4284C100.585 21.4284 101.784 20.2291 101.784 18.7498C101.784 17.2705 100.585 16.0713 99.1053 16.0713C97.626 16.0713 96.4268 17.2705 96.4268 18.7498C96.4268 20.2291 97.626 21.4284 99.1053 21.4284Z" fill="#5F39FF"/>
<path d="M99.1053 37.4997C100.585 37.4997 101.784 36.3004 101.784 34.8211C101.784 33.3418 100.585 32.1426 99.1053 32.1426C97.626 32.1426 96.4268 33.3418 96.4268 34.8211C96.4268 36.3004 97.626 37.4997 99.1053 37.4997Z" fill="#5F39FF"/>
<path d="M99.1053 53.5709C100.585 53.5709 101.784 52.3717 101.784 50.8924C101.784 49.4131 100.585 48.2139 99.1053 48.2139C97.626 48.2139 96.4268 49.4131 96.4268 50.8924C96.4268 52.3717 97.626 53.5709 99.1053 53.5709Z" fill="#5F39FF"/>
<path d="M99.1053 69.6422C100.585 69.6422 101.784 68.443 101.784 66.9637C101.784 65.4844 100.585 64.2852 99.1053 64.2852C97.626 64.2852 96.4268 65.4844 96.4268 66.9637C96.4268 68.443 97.626 69.6422 99.1053 69.6422Z" fill="#5F39FF"/>
<path d="M99.1053 85.7135C100.585 85.7135 101.784 84.5143 101.784 83.035C101.784 81.5557 100.585 80.3564 99.1053 80.3564C97.626 80.3564 96.4268 81.5557 96.4268 83.035C96.4268 84.5143 97.626 85.7135 99.1053 85.7135Z" fill="#5F39FF"/>
<path d="M99.1053 101.785C100.585 101.785 101.784 100.586 101.784 99.1063C101.784 97.627 100.585 96.4277 99.1053 96.4277C97.626 96.4277 96.4268 97.627 96.4268 99.1063C96.4268 100.586 97.626 101.785 99.1053 101.785Z" fill="#5F39FF"/>
<path d="M99.1053 117.856C100.585 117.856 101.784 116.656 101.784 115.177C101.784 113.698 100.585 112.499 99.1053 112.499C97.626 112.499 96.4268 113.698 96.4268 115.177C96.4268 116.656 97.626 117.856 99.1053 117.856Z" fill="#5F39FF"/>
<path d="M99.1053 133.926C100.585 133.926 101.784 132.727 101.784 131.248C101.784 129.769 100.585 128.569 99.1053 128.569C97.626 128.569 96.4268 129.769 96.4268 131.248C96.4268 132.727 97.626 133.926 99.1053 133.926Z" fill="#5F39FF"/>
<path d="M99.1053 149.998C100.585 149.998 101.784 148.799 101.784 147.32C101.784 145.841 100.585 144.641 99.1053 144.641C97.626 144.641 96.4268 145.841 96.4268 147.32C96.4268 148.799 97.626 149.998 99.1053 149.998Z" fill="#5F39FF"/>
<path d="M115.177 21.4284C116.656 21.4284 117.856 20.2291 117.856 18.7498C117.856 17.2705 116.656 16.0713 115.177 16.0713C113.698 16.0713 112.499 17.2705 112.499 18.7498C112.499 20.2291 113.698 21.4284 115.177 21.4284Z" fill="#5F39FF"/>
<path d="M115.177 37.4997C116.656 37.4997 117.856 36.3004 117.856 34.8211C117.856 33.3418 116.656 32.1426 115.177 32.1426C113.698 32.1426 112.499 33.3418 112.499 34.8211C112.499 36.3004 113.698 37.4997 115.177 37.4997Z" fill="#5F39FF"/>
<path d="M115.177 53.5709C116.656 53.5709 117.856 52.3717 117.856 50.8924C117.856 49.4131 116.656 48.2139 115.177 48.2139C113.698 48.2139 112.499 49.4131 112.499 50.8924C112.499 52.3717 113.698 53.5709 115.177 53.5709Z" fill="#5F39FF"/>
<path d="M115.177 69.6422C116.656 69.6422 117.856 68.443 117.856 66.9637C117.856 65.4844 116.656 64.2852 115.177 64.2852C113.698 64.2852 112.499 65.4844 112.499 66.9637C112.499 68.443 113.698 69.6422 115.177 69.6422Z" fill="#5F39FF"/>
<path d="M115.177 85.7135C116.656 85.7135 117.856 84.5143 117.856 83.035C117.856 81.5557 116.656 80.3564 115.177 80.3564C113.698 80.3564 112.499 81.5557 112.499 83.035C112.499 84.5143 113.698 85.7135 115.177 85.7135Z" fill="#5F39FF"/>
<path d="M115.177 101.785C116.656 101.785 117.856 100.586 117.856 99.1063C117.856 97.627 116.656 96.4277 115.177 96.4277C113.698 96.4277 112.499 97.627 112.499 99.1063C112.499 100.586 113.698 101.785 115.177 101.785Z" fill="#5F39FF"/>
<path d="M115.177 117.857C116.656 117.857 117.856 116.657 117.856 115.178C117.856 113.699 116.656 112.5 115.177 112.5C113.698 112.5 112.499 113.699 112.499 115.178C112.499 116.657 113.698 117.857 115.177 117.857Z" fill="#5F39FF"/>
<path d="M115.177 133.928C116.656 133.928 117.856 132.728 117.856 131.249C117.856 129.77 116.656 128.571 115.177 128.571C113.698 128.571 112.499 129.77 112.499 131.249C112.499 132.728 113.698 133.928 115.177 133.928Z" fill="#5F39FF"/>
<path d="M115.177 149.998C116.656 149.998 117.856 148.799 117.856 147.32C117.856 145.841 116.656 144.641 115.177 144.641C113.698 144.641 112.499 145.841 112.499 147.32C112.499 148.799 113.698 149.998 115.177 149.998Z" fill="#5F39FF"/>
<path d="M131.25 37.4997C132.729 37.4997 133.928 36.3004 133.928 34.8211C133.928 33.3418 132.729 32.1426 131.25 32.1426C129.771 32.1426 128.571 33.3418 128.571 34.8211C128.571 36.3004 129.771 37.4997 131.25 37.4997Z" fill="#5F39FF"/>
<path d="M131.25 53.5709C132.729 53.5709 133.928 52.3717 133.928 50.8924C133.928 49.4131 132.729 48.2139 131.25 48.2139C129.771 48.2139 128.571 49.4131 128.571 50.8924C128.571 52.3717 129.771 53.5709 131.25 53.5709Z" fill="#5F39FF"/>
<path d="M131.25 69.6422C132.729 69.6422 133.928 68.443 133.928 66.9637C133.928 65.4844 132.729 64.2852 131.25 64.2852C129.771 64.2852 128.571 65.4844 128.571 66.9637C128.571 68.443 129.771 69.6422 131.25 69.6422Z" fill="#5F39FF"/>
<path d="M131.25 85.7135C132.729 85.7135 133.928 84.5143 133.928 83.035C133.928 81.5557 132.729 80.3564 131.25 80.3564C129.771 80.3564 128.571 81.5557 128.571 83.035C128.571 84.5143 129.771 85.7135 131.25 85.7135Z" fill="#5F39FF"/>
<path d="M131.25 101.785C132.729 101.785 133.928 100.586 133.928 99.1063C133.928 97.627 132.729 96.4277 131.25 96.4277C129.771 96.4277 128.571 97.627 128.571 99.1063C128.571 100.586 129.771 101.785 131.25 101.785Z" fill="#5F39FF"/>
<path d="M131.25 117.856C132.729 117.856 133.928 116.656 133.928 115.177C133.928 113.698 132.729 112.499 131.25 112.499C129.771 112.499 128.571 113.698 128.571 115.177C128.571 116.656 129.771 117.856 131.25 117.856Z" fill="#5F39FF"/>
<path d="M131.25 133.926C132.729 133.926 133.928 132.727 133.928 131.248C133.928 129.769 132.729 128.569 131.25 128.569C129.771 128.569 128.571 129.769 128.571 131.248C128.571 132.727 129.771 133.926 131.25 133.926Z" fill="#5F39FF"/>
<path d="M147.321 53.5709C148.8 53.5709 150 52.3717 150 50.8924C150 49.4131 148.8 48.2139 147.321 48.2139C145.842 48.2139 144.643 49.4131 144.643 50.8924C144.643 52.3717 145.842 53.5709 147.321 53.5709Z" fill="#5F39FF"/>
<path d="M147.321 69.6422C148.8 69.6422 150 68.443 150 66.9637C150 65.4844 148.8 64.2852 147.321 64.2852C145.842 64.2852 144.643 65.4844 144.643 66.9637C144.643 68.443 145.842 69.6422 147.321 69.6422Z" fill="#5F39FF"/>
<path d="M147.321 85.7135C148.8 85.7135 150 84.5143 150 83.035C150 81.5557 148.8 80.3564 147.321 80.3564C145.842 80.3564 144.643 81.5557 144.643 83.035C144.643 84.5143 145.842 85.7135 147.321 85.7135Z" fill="#5F39FF"/>
<path d="M147.321 101.785C148.8 101.785 150 100.586 150 99.1063C150 97.627 148.8 96.4277 147.321 96.4277C145.842 96.4277 144.643 97.627 144.643 99.1063C144.643 100.586 145.842 101.785 147.321 101.785Z" fill="#5F39FF"/>
</g>
</g>
</g>
</g>
<defs>
<clipPath id="clip0_7_464">
<rect width="150" height="150" fill="white"/>
</clipPath>
<clipPath id="clip1_7_464">
<rect width="150" height="150" fill="white"/>
</clipPath>
<clipPath id="clip2_7_464">
<rect width="150" height="150" fill="white"/>
</clipPath>
</defs>
</svg>
