<svg width="172" height="138" viewBox="0 0 172 138" fill="none" xmlns="http://www.w3.org/2000/svg">
<g clip-path="url(#clip0_7_569)">
<g clip-path="url(#clip1_7_569)">
<g clip-path="url(#clip2_7_569)">
<path d="M1 2C1.55228 2 2 1.55228 2 1C2 0.447715 1.55228 0 1 0C0.447715 0 0 0.447715 0 1C0 1.55228 0.447715 2 1 2Z" fill="black"/>
<path d="M18 2C18.5523 2 19 1.55228 19 1C19 0.447715 18.5523 0 18 0C17.4477 0 17 0.447715 17 1C17 1.55228 17.4477 2 18 2Z" fill="black"/>
<path d="M35 2C35.5523 2 36 1.55228 36 1C36 0.447715 35.5523 0 35 0C34.4477 0 34 0.447715 34 1C34 1.55228 34.4477 2 35 2Z" fill="black"/>
<path d="M52 2C52.5523 2 53 1.55228 53 1C53 0.447715 52.5523 0 52 0C51.4477 0 51 0.447715 51 1C51 1.55228 51.4477 2 52 2Z" fill="black"/>
<path d="M69 2C69.5523 2 70 1.55228 70 1C70 0.447715 69.5523 0 69 0C68.4477 0 68 0.447715 68 1C68 1.55228 68.4477 2 69 2Z" fill="black"/>
<path d="M86 2C86.5523 2 87 1.55228 87 1C87 0.447715 86.5523 0 86 0C85.4477 0 85 0.447715 85 1C85 1.55228 85.4477 2 86 2Z" fill="black"/>
<path d="M103 2C103.552 2 104 1.55228 104 1C104 0.447715 103.552 0 103 0C102.448 0 102 0.447715 102 1C102 1.55228 102.448 2 103 2Z" fill="black"/>
<path d="M120 2C120.552 2 121 1.55228 121 1C121 0.447715 120.552 0 120 0C119.448 0 119 0.447715 119 1C119 1.55228 119.448 2 120 2Z" fill="black"/>
<path d="M137 2C137.552 2 138 1.55228 138 1C138 0.447715 137.552 0 137 0C136.448 0 136 0.447715 136 1C136 1.55228 136.448 2 137 2Z" fill="black"/>
<path d="M154 2C154.552 2 155 1.55228 155 1C155 0.447715 154.552 0 154 0C153.448 0 153 0.447715 153 1C153 1.55228 153.448 2 154 2Z" fill="black"/>
<path d="M171 2C171.552 2 172 1.55228 172 1C172 0.447715 171.552 0 171 0C170.448 0 170 0.447715 170 1C170 1.55228 170.448 2 171 2Z" fill="black"/>
<path d="M1 19C1.55228 19 2 18.5523 2 18C2 17.4477 1.55228 17 1 17C0.447715 17 0 17.4477 0 18C0 18.5523 0.447715 19 1 19Z" fill="black"/>
<path d="M18 19C18.5523 19 19 18.5523 19 18C19 17.4477 18.5523 17 18 17C17.4477 17 17 17.4477 17 18C17 18.5523 17.4477 19 18 19Z" fill="black"/>
<path d="M35 19C35.5523 19 36 18.5523 36 18C36 17.4477 35.5523 17 35 17C34.4477 17 34 17.4477 34 18C34 18.5523 34.4477 19 35 19Z" fill="black"/>
<path d="M52 19C52.5523 19 53 18.5523 53 18C53 17.4477 52.5523 17 52 17C51.4477 17 51 17.4477 51 18C51 18.5523 51.4477 19 52 19Z" fill="black"/>
<path d="M69 19C69.5523 19 70 18.5523 70 18C70 17.4477 69.5523 17 69 17C68.4477 17 68 17.4477 68 18C68 18.5523 68.4477 19 69 19Z" fill="black"/>
<path d="M86 19C86.5523 19 87 18.5523 87 18C87 17.4477 86.5523 17 86 17C85.4477 17 85 17.4477 85 18C85 18.5523 85.4477 19 86 19Z" fill="black"/>
<path d="M103 19C103.552 19 104 18.5523 104 18C104 17.4477 103.552 17 103 17C102.448 17 102 17.4477 102 18C102 18.5523 102.448 19 103 19Z" fill="black"/>
<path d="M120 19C120.552 19 121 18.5523 121 18C121 17.4477 120.552 17 120 17C119.448 17 119 17.4477 119 18C119 18.5523 119.448 19 120 19Z" fill="black"/>
<path d="M137 19C137.552 19 138 18.5523 138 18C138 17.4477 137.552 17 137 17C136.448 17 136 17.4477 136 18C136 18.5523 136.448 19 137 19Z" fill="black"/>
<path d="M154 19C154.552 19 155 18.5523 155 18C155 17.4477 154.552 17 154 17C153.448 17 153 17.4477 153 18C153 18.5523 153.448 19 154 19Z" fill="black"/>
<path d="M171 19C171.552 19 172 18.5523 172 18C172 17.4477 171.552 17 171 17C170.448 17 170 17.4477 170 18C170 18.5523 170.448 19 171 19Z" fill="black"/>
<path d="M1 36C1.55228 36 2 35.5523 2 35C2 34.4477 1.55228 34 1 34C0.447715 34 0 34.4477 0 35C0 35.5523 0.447715 36 1 36Z" fill="black"/>
<path d="M18 36C18.5523 36 19 35.5523 19 35C19 34.4477 18.5523 34 18 34C17.4477 34 17 34.4477 17 35C17 35.5523 17.4477 36 18 36Z" fill="black"/>
<path d="M35 36C35.5523 36 36 35.5523 36 35C36 34.4477 35.5523 34 35 34C34.4477 34 34 34.4477 34 35C34 35.5523 34.4477 36 35 36Z" fill="black"/>
<path d="M52 36C52.5523 36 53 35.5523 53 35C53 34.4477 52.5523 34 52 34C51.4477 34 51 34.4477 51 35C51 35.5523 51.4477 36 52 36Z" fill="black"/>
<path d="M69 36C69.5523 36 70 35.5523 70 35C70 34.4477 69.5523 34 69 34C68.4477 34 68 34.4477 68 35C68 35.5523 68.4477 36 69 36Z" fill="black"/>
<path d="M86 36C86.5523 36 87 35.5523 87 35C87 34.4477 86.5523 34 86 34C85.4477 34 85 34.4477 85 35C85 35.5523 85.4477 36 86 36Z" fill="black"/>
<path d="M103 36C103.552 36 104 35.5523 104 35C104 34.4477 103.552 34 103 34C102.448 34 102 34.4477 102 35C102 35.5523 102.448 36 103 36Z" fill="black"/>
<path d="M120 36C120.552 36 121 35.5523 121 35C121 34.4477 120.552 34 120 34C119.448 34 119 34.4477 119 35C119 35.5523 119.448 36 120 36Z" fill="black"/>
<path d="M137 36C137.552 36 138 35.5523 138 35C138 34.4477 137.552 34 137 34C136.448 34 136 34.4477 136 35C136 35.5523 136.448 36 137 36Z" fill="black"/>
<path d="M154 36C154.552 36 155 35.5523 155 35C155 34.4477 154.552 34 154 34C153.448 34 153 34.4477 153 35C153 35.5523 153.448 36 154 36Z" fill="black"/>
<path d="M171 36C171.552 36 172 35.5523 172 35C172 34.4477 171.552 34 171 34C170.448 34 170 34.4477 170 35C170 35.5523 170.448 36 171 36Z" fill="black"/>
<path d="M1 53C1.55228 53 2 52.5523 2 52C2 51.4477 1.55228 51 1 51C0.447715 51 0 51.4477 0 52C0 52.5523 0.447715 53 1 53Z" fill="black"/>
<path d="M18 53C18.5523 53 19 52.5523 19 52C19 51.4477 18.5523 51 18 51C17.4477 51 17 51.4477 17 52C17 52.5523 17.4477 53 18 53Z" fill="black"/>
<path d="M35 53C35.5523 53 36 52.5523 36 52C36 51.4477 35.5523 51 35 51C34.4477 51 34 51.4477 34 52C34 52.5523 34.4477 53 35 53Z" fill="black"/>
<path d="M52 53C52.5523 53 53 52.5523 53 52C53 51.4477 52.5523 51 52 51C51.4477 51 51 51.4477 51 52C51 52.5523 51.4477 53 52 53Z" fill="black"/>
<path d="M69 53C69.5523 53 70 52.5523 70 52C70 51.4477 69.5523 51 69 51C68.4477 51 68 51.4477 68 52C68 52.5523 68.4477 53 69 53Z" fill="black"/>
<path d="M86 53C86.5523 53 87 52.5523 87 52C87 51.4477 86.5523 51 86 51C85.4477 51 85 51.4477 85 52C85 52.5523 85.4477 53 86 53Z" fill="black"/>
<path d="M103 53C103.552 53 104 52.5523 104 52C104 51.4477 103.552 51 103 51C102.448 51 102 51.4477 102 52C102 52.5523 102.448 53 103 53Z" fill="black"/>
<path d="M120 53C120.552 53 121 52.5523 121 52C121 51.4477 120.552 51 120 51C119.448 51 119 51.4477 119 52C119 52.5523 119.448 53 120 53Z" fill="black"/>
<path d="M137 53C137.552 53 138 52.5523 138 52C138 51.4477 137.552 51 137 51C136.448 51 136 51.4477 136 52C136 52.5523 136.448 53 137 53Z" fill="black"/>
<path d="M154 53C154.552 53 155 52.5523 155 52C155 51.4477 154.552 51 154 51C153.448 51 153 51.4477 153 52C153 52.5523 153.448 53 154 53Z" fill="black"/>
<path d="M171 53C171.552 53 172 52.5523 172 52C172 51.4477 171.552 51 171 51C170.448 51 170 51.4477 170 52C170 52.5523 170.448 53 171 53Z" fill="black"/>
<path d="M1 70C1.55228 70 2 69.5523 2 69C2 68.4477 1.55228 68 1 68C0.447715 68 0 68.4477 0 69C0 69.5523 0.447715 70 1 70Z" fill="black"/>
<path d="M18 70C18.5523 70 19 69.5523 19 69C19 68.4477 18.5523 68 18 68C17.4477 68 17 68.4477 17 69C17 69.5523 17.4477 70 18 70Z" fill="black"/>
<path d="M35 70C35.5523 70 36 69.5523 36 69C36 68.4477 35.5523 68 35 68C34.4477 68 34 68.4477 34 69C34 69.5523 34.4477 70 35 70Z" fill="black"/>
<path d="M52 70C52.5523 70 53 69.5523 53 69C53 68.4477 52.5523 68 52 68C51.4477 68 51 68.4477 51 69C51 69.5523 51.4477 70 52 70Z" fill="black"/>
<path d="M69 70C69.5523 70 70 69.5523 70 69C70 68.4477 69.5523 68 69 68C68.4477 68 68 68.4477 68 69C68 69.5523 68.4477 70 69 70Z" fill="black"/>
<path d="M86 70C86.5523 70 87 69.5523 87 69C87 68.4477 86.5523 68 86 68C85.4477 68 85 68.4477 85 69C85 69.5523 85.4477 70 86 70Z" fill="black"/>
<path d="M103 70C103.552 70 104 69.5523 104 69C104 68.4477 103.552 68 103 68C102.448 68 102 68.4477 102 69C102 69.5523 102.448 70 103 70Z" fill="black"/>
<path d="M120 70C120.552 70 121 69.5523 121 69C121 68.4477 120.552 68 120 68C119.448 68 119 68.4477 119 69C119 69.5523 119.448 70 120 70Z" fill="black"/>
<path d="M137 70C137.552 70 138 69.5523 138 69C138 68.4477 137.552 68 137 68C136.448 68 136 68.4477 136 69C136 69.5523 136.448 70 137 70Z" fill="black"/>
<path d="M154 70C154.552 70 155 69.5523 155 69C155 68.4477 154.552 68 154 68C153.448 68 153 68.4477 153 69C153 69.5523 153.448 70 154 70Z" fill="black"/>
<path d="M171 70C171.552 70 172 69.5523 172 69C172 68.4477 171.552 68 171 68C170.448 68 170 68.4477 170 69C170 69.5523 170.448 70 171 70Z" fill="black"/>
<path d="M1 87C1.55228 87 2 86.5523 2 86C2 85.4477 1.55228 85 1 85C0.447715 85 0 85.4477 0 86C0 86.5523 0.447715 87 1 87Z" fill="black"/>
<path d="M18 87C18.5523 87 19 86.5523 19 86C19 85.4477 18.5523 85 18 85C17.4477 85 17 85.4477 17 86C17 86.5523 17.4477 87 18 87Z" fill="black"/>
<path d="M35 87C35.5523 87 36 86.5523 36 86C36 85.4477 35.5523 85 35 85C34.4477 85 34 85.4477 34 86C34 86.5523 34.4477 87 35 87Z" fill="black"/>
<path d="M52 87C52.5523 87 53 86.5523 53 86C53 85.4477 52.5523 85 52 85C51.4477 85 51 85.4477 51 86C51 86.5523 51.4477 87 52 87Z" fill="black"/>
<path d="M69 87C69.5523 87 70 86.5523 70 86C70 85.4477 69.5523 85 69 85C68.4477 85 68 85.4477 68 86C68 86.5523 68.4477 87 69 87Z" fill="black"/>
<path d="M86 87C86.5523 87 87 86.5523 87 86C87 85.4477 86.5523 85 86 85C85.4477 85 85 85.4477 85 86C85 86.5523 85.4477 87 86 87Z" fill="black"/>
<path d="M103 87C103.552 87 104 86.5523 104 86C104 85.4477 103.552 85 103 85C102.448 85 102 85.4477 102 86C102 86.5523 102.448 87 103 87Z" fill="black"/>
<path d="M120 87C120.552 87 121 86.5523 121 86C121 85.4477 120.552 85 120 85C119.448 85 119 85.4477 119 86C119 86.5523 119.448 87 120 87Z" fill="black"/>
<path d="M137 87C137.552 87 138 86.5523 138 86C138 85.4477 137.552 85 137 85C136.448 85 136 85.4477 136 86C136 86.5523 136.448 87 137 87Z" fill="black"/>
<path d="M154 87C154.552 87 155 86.5523 155 86C155 85.4477 154.552 85 154 85C153.448 85 153 85.4477 153 86C153 86.5523 153.448 87 154 87Z" fill="black"/>
<path d="M171 87C171.552 87 172 86.5523 172 86C172 85.4477 171.552 85 171 85C170.448 85 170 85.4477 170 86C170 86.5523 170.448 87 171 87Z" fill="black"/>
<path d="M1 104C1.55228 104 2 103.552 2 103C2 102.448 1.55228 102 1 102C0.447715 102 0 102.448 0 103C0 103.552 0.447715 104 1 104Z" fill="black"/>
<path d="M18 104C18.5523 104 19 103.552 19 103C19 102.448 18.5523 102 18 102C17.4477 102 17 102.448 17 103C17 103.552 17.4477 104 18 104Z" fill="black"/>
<path d="M35 104C35.5523 104 36 103.552 36 103C36 102.448 35.5523 102 35 102C34.4477 102 34 102.448 34 103C34 103.552 34.4477 104 35 104Z" fill="black"/>
<path d="M52 104C52.5523 104 53 103.552 53 103C53 102.448 52.5523 102 52 102C51.4477 102 51 102.448 51 103C51 103.552 51.4477 104 52 104Z" fill="black"/>
<path d="M69 104C69.5523 104 70 103.552 70 103C70 102.448 69.5523 102 69 102C68.4477 102 68 102.448 68 103C68 103.552 68.4477 104 69 104Z" fill="black"/>
<path d="M86 104C86.5523 104 87 103.552 87 103C87 102.448 86.5523 102 86 102C85.4477 102 85 102.448 85 103C85 103.552 85.4477 104 86 104Z" fill="black"/>
<path d="M103 104C103.552 104 104 103.552 104 103C104 102.448 103.552 102 103 102C102.448 102 102 102.448 102 103C102 103.552 102.448 104 103 104Z" fill="black"/>
<path d="M120 104C120.552 104 121 103.552 121 103C121 102.448 120.552 102 120 102C119.448 102 119 102.448 119 103C119 103.552 119.448 104 120 104Z" fill="black"/>
<path d="M137 104C137.552 104 138 103.552 138 103C138 102.448 137.552 102 137 102C136.448 102 136 102.448 136 103C136 103.552 136.448 104 137 104Z" fill="black"/>
<path d="M154 104C154.552 104 155 103.552 155 103C155 102.448 154.552 102 154 102C153.448 102 153 102.448 153 103C153 103.552 153.448 104 154 104Z" fill="black"/>
<path d="M171 104C171.552 104 172 103.552 172 103C172 102.448 171.552 102 171 102C170.448 102 170 102.448 170 103C170 103.552 170.448 104 171 104Z" fill="black"/>
<path d="M1 121C1.55228 121 2 120.552 2 120C2 119.448 1.55228 119 1 119C0.447715 119 0 119.448 0 120C0 120.552 0.447715 121 1 121Z" fill="black"/>
<path d="M18 121C18.5523 121 19 120.552 19 120C19 119.448 18.5523 119 18 119C17.4477 119 17 119.448 17 120C17 120.552 17.4477 121 18 121Z" fill="black"/>
<path d="M35 121C35.5523 121 36 120.552 36 120C36 119.448 35.5523 119 35 119C34.4477 119 34 119.448 34 120C34 120.552 34.4477 121 35 121Z" fill="black"/>
<path d="M52 121C52.5523 121 53 120.552 53 120C53 119.448 52.5523 119 52 119C51.4477 119 51 119.448 51 120C51 120.552 51.4477 121 52 121Z" fill="black"/>
<path d="M69 121C69.5523 121 70 120.552 70 120C70 119.448 69.5523 119 69 119C68.4477 119 68 119.448 68 120C68 120.552 68.4477 121 69 121Z" fill="black"/>
<path d="M86 121C86.5523 121 87 120.552 87 120C87 119.448 86.5523 119 86 119C85.4477 119 85 119.448 85 120C85 120.552 85.4477 121 86 121Z" fill="black"/>
<path d="M103 121C103.552 121 104 120.552 104 120C104 119.448 103.552 119 103 119C102.448 119 102 119.448 102 120C102 120.552 102.448 121 103 121Z" fill="black"/>
<path d="M120 121C120.552 121 121 120.552 121 120C121 119.448 120.552 119 120 119C119.448 119 119 119.448 119 120C119 120.552 119.448 121 120 121Z" fill="black"/>
<path d="M137 121C137.552 121 138 120.552 138 120C138 119.448 137.552 119 137 119C136.448 119 136 119.448 136 120C136 120.552 136.448 121 137 121Z" fill="black"/>
<path d="M154 121C154.552 121 155 120.552 155 120C155 119.448 154.552 119 154 119C153.448 119 153 119.448 153 120C153 120.552 153.448 121 154 121Z" fill="black"/>
<path d="M171 121C171.552 121 172 120.552 172 120C172 119.448 171.552 119 171 119C170.448 119 170 119.448 170 120C170 120.552 170.448 121 171 121Z" fill="black"/>
<path d="M1 138C1.55228 138 2 137.552 2 137C2 136.448 1.55228 136 1 136C0.447715 136 0 136.448 0 137C0 137.552 0.447715 138 1 138Z" fill="black"/>
<path d="M18 138C18.5523 138 19 137.552 19 137C19 136.448 18.5523 136 18 136C17.4477 136 17 136.448 17 137C17 137.552 17.4477 138 18 138Z" fill="black"/>
<path d="M35 138C35.5523 138 36 137.552 36 137C36 136.448 35.5523 136 35 136C34.4477 136 34 136.448 34 137C34 137.552 34.4477 138 35 138Z" fill="black"/>
<path d="M52 138C52.5523 138 53 137.552 53 137C53 136.448 52.5523 136 52 136C51.4477 136 51 136.448 51 137C51 137.552 51.4477 138 52 138Z" fill="black"/>
<path d="M69 138C69.5523 138 70 137.552 70 137C70 136.448 69.5523 136 69 136C68.4477 136 68 136.448 68 137C68 137.552 68.4477 138 69 138Z" fill="black"/>
<path d="M86 138C86.5523 138 87 137.552 87 137C87 136.448 86.5523 136 86 136C85.4477 136 85 136.448 85 137C85 137.552 85.4477 138 86 138Z" fill="black"/>
<path d="M103 138C103.552 138 104 137.552 104 137C104 136.448 103.552 136 103 136C102.448 136 102 136.448 102 137C102 137.552 102.448 138 103 138Z" fill="black"/>
<path d="M120 138C120.552 138 121 137.552 121 137C121 136.448 120.552 136 120 136C119.448 136 119 136.448 119 137C119 137.552 119.448 138 120 138Z" fill="black"/>
<path d="M137 138C137.552 138 138 137.552 138 137C138 136.448 137.552 136 137 136C136.448 136 136 136.448 136 137C136 137.552 136.448 138 137 138Z" fill="black"/>
<path d="M154 138C154.552 138 155 137.552 155 137C155 136.448 154.552 136 154 136C153.448 136 153 136.448 153 137C153 137.552 153.448 138 154 138Z" fill="black"/>
<path d="M171 138C171.552 138 172 137.552 172 137C172 136.448 171.552 136 171 136C170.448 136 170 136.448 170 137C170 137.552 170.448 138 171 138Z" fill="black"/>
</g>
</g>
</g>
<defs>
<clipPath id="clip0_7_569">
<rect width="172" height="138" fill="white"/>
</clipPath>
<clipPath id="clip1_7_569">
<rect width="172" height="223" fill="white"/>
</clipPath>
<clipPath id="clip2_7_569">
<rect width="172" height="223" fill="white"/>
</clipPath>
</defs>
</svg>
