<svg width="200" height="181" viewBox="0 0 200 181" fill="none" xmlns="http://www.w3.org/2000/svg">
<g clip-path="url(#clip0_7_136)">
<g clip-path="url(#clip1_7_136)">
<g opacity="0.3">
<path d="M52.8554 49.7115C57.9758 24.3042 75.2381 15.6535 83.2292 14.5042C111.926 9.1669 148.498 44.8075 164.336 64.4726C180.174 84.1377 187.759 111.275 163.826 127.221C139.893 143.167 123.75 166.885 89.7482 170.304C55.7458 173.723 28.73 147.168 24.3429 122.215C19.9558 97.2624 46.4548 81.4706 52.8554 49.7115Z" stroke="url(#paint0_linear_7_136)"/>
<path d="M51.6134 43.7856C60.9524 17.3521 82.4962 9.8276 92.1007 9.36951C126.748 6.44278 165.424 47.6828 181.627 70.0248C197.83 92.3667 203.302 121.841 172.923 136.461C142.545 151.081 120.38 174.677 79.7029 175.067C39.0255 175.456 10.4846 144.752 8.51427 117.896C6.54395 91.0401 39.9397 76.8274 51.6134 43.7856Z" stroke="url(#paint1_linear_7_136)"/>
<path d="M62.3944 54.3418C69.6526 33.7978 86.3964 27.9498 93.861 27.5938C120.788 25.3191 150.847 57.3707 163.44 74.7347C176.033 92.0988 180.286 115.006 156.676 126.369C133.066 137.731 115.839 156.07 84.2255 156.373C52.6112 156.675 30.4294 132.812 28.898 111.94C27.3667 91.0678 53.3217 80.0217 62.3944 54.3418Z" stroke="url(#paint2_linear_7_136)"/>
<path d="M67.2606 59.107C73.5795 41.2217 88.1564 36.1305 94.655 35.8205C118.098 33.8402 144.267 61.744 155.23 76.8609C166.193 91.9779 169.896 111.921 149.341 121.813C128.786 131.705 113.789 147.671 86.2665 147.934C58.7434 148.198 39.4322 127.422 38.099 109.251C36.7659 91.0803 59.362 81.4637 67.2606 59.107Z" stroke="url(#paint3_linear_7_136)"/>
<path d="M71.9892 63.737C77.3955 48.4347 89.8672 44.0787 95.4272 43.8136C115.484 42.1193 137.874 65.9931 147.254 78.9269C156.634 91.8606 159.802 108.923 142.215 117.387C124.629 125.85 111.798 139.51 88.2502 139.736C64.702 139.961 48.1797 122.186 47.0391 106.639C45.8985 91.0927 65.2313 82.8649 71.9892 63.737Z" stroke="url(#paint4_linear_7_136)"/>
<path d="M78.6806 70.2896C82.7954 58.6429 92.2876 55.3276 96.5194 55.1258C111.785 53.8363 128.826 72.0067 135.965 81.8506C143.104 91.6944 145.515 104.681 132.13 111.122C118.745 117.564 108.979 127.96 91.0569 128.132C73.1344 128.304 60.5592 114.775 59.6911 102.943C58.823 91.11 73.5372 84.8478 78.6806 70.2896Z" stroke="url(#paint5_linear_7_136)"/>
<path d="M82.8432 74.3649C86.1546 64.9923 93.7935 62.3243 97.199 62.1618C109.484 61.1241 123.198 75.7468 128.943 83.6687C134.688 91.5906 136.628 102.041 125.857 107.225C115.085 112.409 107.226 120.776 92.803 120.914C78.3799 121.052 68.26 110.165 67.5614 100.643C66.8627 91.1202 78.704 86.0807 82.8432 74.3649Z" stroke="url(#paint6_linear_7_136)"/>
<path d="M86.2604 77.7108C88.9123 70.2049 95.0297 68.0683 97.757 67.9382C107.595 67.1072 118.577 78.8174 123.178 85.1615C127.779 91.5056 129.333 99.8749 120.707 104.026C112.08 108.178 105.787 114.878 94.2366 114.989C82.686 115.099 74.5817 106.381 74.0223 98.7547C73.4628 91.1289 82.9456 87.0932 86.2604 77.7108Z" stroke="url(#paint7_linear_7_136)"/>
</g>
</g>
</g>
<defs>
<linearGradient id="paint0_linear_7_136" x1="21.083" y1="104.699" x2="175.277" y2="76.0214" gradientUnits="userSpaceOnUse">
<stop stop-color="#20D9A1"/>
<stop offset="1" stop-color="#5F39FF"/>
</linearGradient>
<linearGradient id="paint1_linear_7_136" x1="6.91785" y1="99.0271" x2="193.082" y2="83.3014" gradientUnits="userSpaceOnUse">
<stop stop-color="#20D9A1"/>
<stop offset="1" stop-color="#5F39FF"/>
</linearGradient>
<linearGradient id="paint2_linear_7_136" x1="27.6573" y1="97.2752" x2="172.343" y2="85.0533" gradientUnits="userSpaceOnUse">
<stop stop-color="#20D9A1"/>
<stop offset="1" stop-color="#5F39FF"/>
</linearGradient>
<linearGradient id="paint3_linear_7_136" x1="37.0188" y1="96.4845" x2="162.981" y2="85.8442" gradientUnits="userSpaceOnUse">
<stop stop-color="#20D9A1"/>
<stop offset="1" stop-color="#5F39FF"/>
</linearGradient>
<linearGradient id="paint4_linear_7_136" x1="46.1149" y1="95.7163" x2="153.885" y2="86.6127" gradientUnits="userSpaceOnUse">
<stop stop-color="#20D9A1"/>
<stop offset="1" stop-color="#5F39FF"/>
</linearGradient>
<linearGradient id="paint5_linear_7_136" x1="58.9877" y1="94.629" x2="141.012" y2="87.7003" gradientUnits="userSpaceOnUse">
<stop stop-color="#20D9A1"/>
<stop offset="1" stop-color="#5F39FF"/>
</linearGradient>
<linearGradient id="paint6_linear_7_136" x1="66.9953" y1="93.9522" x2="133.005" y2="88.3762" gradientUnits="userSpaceOnUse">
<stop stop-color="#20D9A1"/>
<stop offset="1" stop-color="#5F39FF"/>
</linearGradient>
<linearGradient id="paint7_linear_7_136" x1="73.5689" y1="93.3969" x2="126.431" y2="88.9315" gradientUnits="userSpaceOnUse">
<stop stop-color="#20D9A1"/>
<stop offset="1" stop-color="#5F39FF"/>
</linearGradient>
<clipPath id="clip0_7_136">
<rect width="200" height="180.941" fill="white"/>
</clipPath>
<clipPath id="clip1_7_136">
<rect width="200" height="181" fill="white"/>
</clipPath>
</defs>
</svg>
