<svg width="97" height="118" viewBox="0 0 97 118" fill="none" xmlns="http://www.w3.org/2000/svg">
<g clip-path="url(#clip0_7_148)">
<g clip-path="url(#clip1_7_148)">
<g opacity="0.3">
<path d="M34.1959 32.2711C37.4881 15.9354 48.587 10.3734 53.7249 9.63442C72.1759 6.2028 95.6901 29.1181 105.874 41.7618C116.057 54.4056 120.933 71.8534 105.546 82.106C90.1575 92.3585 79.7782 107.608 57.9163 109.806C36.0544 112.005 18.6844 94.931 15.8637 78.8875C13.043 62.8441 30.0807 52.6907 34.1959 32.2711Z" stroke="url(#paint0_linear_7_148)"/>
<path d="M33.3973 28.461C39.4018 11.4655 53.2535 6.62762 59.4287 6.33309C81.7053 4.45134 106.572 30.9668 116.99 45.3316C127.408 59.6964 130.926 78.6469 111.394 88.047C91.862 97.4471 77.6112 112.618 51.4575 112.869C25.3039 113.119 6.9534 93.3775 5.68657 76.1105C4.41975 58.8435 25.8916 49.7054 33.3973 28.461Z" stroke="url(#paint1_linear_7_148)"/>
<path d="M40.329 35.2481C44.9956 22.0393 55.7611 18.2793 60.5605 18.0504C77.8737 16.5879 97.2003 37.1956 105.297 48.3599C113.393 59.5241 116.128 74.2524 100.947 81.5581C85.7674 88.8638 74.6918 100.655 54.3653 100.849C34.0388 101.044 19.7769 85.7009 18.7923 72.2811C17.8078 58.8613 34.4956 51.7592 40.329 35.2481Z" stroke="url(#paint2_linear_7_148)"/>
<path d="M43.4578 38.3119C47.5205 26.8124 56.8928 23.539 61.0711 23.3397C76.1438 22.0665 92.9694 40.0073 100.018 49.7268C107.067 59.4463 109.447 72.2685 96.2318 78.6288C83.016 84.9891 73.3737 95.2541 55.6776 95.4236C37.9816 95.593 25.5654 82.2355 24.7082 70.5524C23.8511 58.8692 38.3793 52.6862 43.4578 38.3119Z" stroke="url(#paint3_linear_7_148)"/>
<path d="M46.4982 41.2887C49.9742 31.45 57.9929 28.6494 61.5678 28.4789C74.4637 27.3895 88.8592 42.7393 94.8901 51.0551C100.921 59.3709 102.958 70.3413 91.6505 75.783C80.3433 81.2247 72.0936 90.0073 56.9532 90.1523C41.8129 90.2972 31.1898 78.8688 30.4564 68.873C29.7231 58.8771 42.1531 53.5871 46.4982 41.2887Z" stroke="url(#paint4_linear_7_148)"/>
<path d="M50.8004 45.5014C53.446 38.0132 59.5491 35.8816 62.2699 35.7518C72.085 34.9227 83.0415 46.6054 87.6316 52.9346C92.2216 59.2638 93.7718 67.6134 85.1659 71.7551C76.56 75.8967 70.2811 82.5812 58.7578 82.6915C47.2345 82.8018 39.1492 74.1037 38.5911 66.4958C38.0329 58.888 47.4934 54.8617 50.8004 45.5014Z" stroke="url(#paint5_linear_7_148)"/>
<path d="M53.4769 48.1219C55.606 42.0958 60.5174 40.3804 62.707 40.2759C70.6057 39.6087 79.423 49.0104 83.1169 54.1038C86.8108 59.1972 88.0583 65.9166 81.1326 69.2496C74.207 72.5827 69.1541 77.962 59.8806 78.0508C50.6072 78.1395 44.1006 71.1397 43.6514 65.0172C43.2022 58.8948 50.8156 55.6547 53.4769 48.1219Z" stroke="url(#paint6_linear_7_148)"/>
<path d="M55.6734 50.2732C57.3784 45.4473 61.3116 44.0735 63.0651 43.9899C69.3906 43.4556 76.4518 50.9848 79.4099 55.0637C82.3681 59.1427 83.3672 64.5237 77.8209 67.1929C72.2747 69.8621 68.2281 74.17 60.8017 74.2411C53.3752 74.3122 48.1645 68.7065 47.8048 63.8035C47.4451 58.9005 53.5421 56.3057 55.6734 50.2732Z" stroke="url(#paint7_linear_7_148)"/>
</g>
</g>
</g>
<defs>
<linearGradient id="paint0_linear_7_148" x1="13.7678" y1="67.6257" x2="112.907" y2="49.1871" gradientUnits="userSpaceOnUse">
<stop stop-color="#20D9A1"/>
<stop offset="1" stop-color="#5F39FF"/>
</linearGradient>
<linearGradient id="paint1_linear_7_148" x1="4.66015" y1="63.9788" x2="124.355" y2="53.8679" gradientUnits="userSpaceOnUse">
<stop stop-color="#20D9A1"/>
<stop offset="1" stop-color="#5F39FF"/>
</linearGradient>
<linearGradient id="paint2_linear_7_148" x1="17.9946" y1="62.8524" x2="111.021" y2="54.9942" gradientUnits="userSpaceOnUse">
<stop stop-color="#20D9A1"/>
<stop offset="1" stop-color="#5F39FF"/>
</linearGradient>
<linearGradient id="paint3_linear_7_148" x1="24.0137" y1="62.3438" x2="105.001" y2="55.5026" gradientUnits="userSpaceOnUse">
<stop stop-color="#20D9A1"/>
<stop offset="1" stop-color="#5F39FF"/>
</linearGradient>
<linearGradient id="paint4_linear_7_148" x1="29.8622" y1="61.8499" x2="99.1538" y2="55.9967" gradientUnits="userSpaceOnUse">
<stop stop-color="#20D9A1"/>
<stop offset="1" stop-color="#5F39FF"/>
</linearGradient>
<linearGradient id="paint5_linear_7_148" x1="38.1388" y1="61.1506" x2="90.8766" y2="56.6957" gradientUnits="userSpaceOnUse">
<stop stop-color="#20D9A1"/>
<stop offset="1" stop-color="#5F39FF"/>
</linearGradient>
<linearGradient id="paint6_linear_7_148" x1="43.2875" y1="60.7156" x2="85.7284" y2="57.1306" gradientUnits="userSpaceOnUse">
<stop stop-color="#20D9A1"/>
<stop offset="1" stop-color="#5F39FF"/>
</linearGradient>
<linearGradient id="paint7_linear_7_148" x1="47.5133" y1="60.3587" x2="81.5013" y2="57.4876" gradientUnits="userSpaceOnUse">
<stop stop-color="#20D9A1"/>
<stop offset="1" stop-color="#5F39FF"/>
</linearGradient>
<clipPath id="clip0_7_148">
<rect width="96.75" height="116.962" fill="white" transform="translate(0.212402 0.308838)"/>
</clipPath>
<clipPath id="clip1_7_148">
<rect width="129" height="117" fill="white" transform="translate(0.212402 0.308838)"/>
</clipPath>
</defs>
</svg>
