<svg width="88" height="117" viewBox="0 0 88 117" fill="none" xmlns="http://www.w3.org/2000/svg">
<g opacity="0.5" clip-path="url(#clip0_7_38)">
<g clip-path="url(#clip1_7_38)">
<g clip-path="url(#clip2_7_38)">
<g opacity="0.3">
<path d="M2.42639 41.6018C3.5704 41.6018 4.4978 40.6744 4.4978 39.5304C4.4978 38.3864 3.5704 37.459 2.42639 37.459C1.28238 37.459 0.35498 38.3864 0.35498 39.5304C0.35498 40.6744 1.28238 41.6018 2.42639 41.6018Z" fill="white"/>
<path d="M2.42639 54.03C3.5704 54.03 4.4978 53.1026 4.4978 51.9586C4.4978 50.8146 3.5704 49.8872 2.42639 49.8872C1.28238 49.8872 0.35498 50.8146 0.35498 51.9586C0.35498 53.1026 1.28238 54.03 2.42639 54.03Z" fill="white"/>
<path d="M2.42639 66.4587C3.5704 66.4587 4.4978 65.5313 4.4978 64.3873C4.4978 63.2433 3.5704 62.3159 2.42639 62.3159C1.28238 62.3159 0.35498 63.2433 0.35498 64.3873C0.35498 65.5313 1.28238 66.4587 2.42639 66.4587Z" fill="white"/>
<path d="M2.42639 78.887C3.5704 78.887 4.4978 77.9596 4.4978 76.8155C4.4978 75.6715 3.5704 74.7441 2.42639 74.7441C1.28238 74.7441 0.35498 75.6715 0.35498 76.8155C0.35498 77.9596 1.28238 78.887 2.42639 78.887Z" fill="white"/>
<path d="M2.42639 91.3157C3.5704 91.3157 4.4978 90.3883 4.4978 89.2443C4.4978 88.1003 3.5704 87.1729 2.42639 87.1729C1.28238 87.1729 0.35498 88.1003 0.35498 89.2443C0.35498 90.3883 1.28238 91.3157 2.42639 91.3157Z" fill="white"/>
<path d="M14.8551 16.7449C15.9991 16.7449 16.9265 15.8175 16.9265 14.6735C16.9265 13.5295 15.9991 12.6021 14.8551 12.6021C13.7111 12.6021 12.7837 13.5295 12.7837 14.6735C12.7837 15.8175 13.7111 16.7449 14.8551 16.7449Z" fill="white"/>
<path d="M14.8551 29.1731C15.9991 29.1731 16.9265 28.2457 16.9265 27.1017C16.9265 25.9577 15.9991 25.0303 14.8551 25.0303C13.7111 25.0303 12.7837 25.9577 12.7837 27.1017C12.7837 28.2457 13.7111 29.1731 14.8551 29.1731Z" fill="white"/>
<path d="M4.91272 29.1731C6.05673 29.1731 6.98413 28.2457 6.98413 27.1017C6.98413 25.9577 6.05673 25.0303 4.91272 25.0303C3.76871 25.0303 2.84131 25.9577 2.84131 27.1017C2.84131 28.2457 3.76871 29.1731 4.91272 29.1731Z" fill="white"/>
<path d="M14.8551 41.6013C15.9991 41.6013 16.9265 40.6739 16.9265 39.5299C16.9265 38.3859 15.9991 37.4585 14.8551 37.4585C13.7111 37.4585 12.7837 38.3859 12.7837 39.5299C12.7837 40.6739 13.7111 41.6013 14.8551 41.6013Z" fill="white"/>
<path d="M14.8551 54.03C15.9991 54.03 16.9265 53.1026 16.9265 51.9586C16.9265 50.8146 15.9991 49.8872 14.8551 49.8872C13.7111 49.8872 12.7837 50.8146 12.7837 51.9586C12.7837 53.1026 13.7111 54.03 14.8551 54.03Z" fill="white"/>
<path d="M14.8551 66.4587C15.9991 66.4587 16.9265 65.5313 16.9265 64.3873C16.9265 63.2433 15.9991 62.3159 14.8551 62.3159C13.7111 62.3159 12.7837 63.2433 12.7837 64.3873C12.7837 65.5313 13.7111 66.4587 14.8551 66.4587Z" fill="white"/>
<path d="M14.8551 78.887C15.9991 78.887 16.9265 77.9596 16.9265 76.8155C16.9265 75.6715 15.9991 74.7441 14.8551 74.7441C13.7111 74.7441 12.7837 75.6715 12.7837 76.8155C12.7837 77.9596 13.7111 78.887 14.8551 78.887Z" fill="white"/>
<path d="M14.8551 91.3157C15.9991 91.3157 16.9265 90.3883 16.9265 89.2443C16.9265 88.1003 15.9991 87.1729 14.8551 87.1729C13.7111 87.1729 12.7837 88.1003 12.7837 89.2443C12.7837 90.3883 13.7111 91.3157 14.8551 91.3157Z" fill="white"/>
<path d="M14.8551 103.744C15.9991 103.744 16.9265 102.816 16.9265 101.672C16.9265 100.528 15.9991 99.601 14.8551 99.601C13.7111 99.601 12.7837 100.528 12.7837 101.672C12.7837 102.816 13.7111 103.744 14.8551 103.744Z" fill="white"/>
<path d="M27.2848 16.7449C28.4288 16.7449 29.3562 15.8175 29.3562 14.6735C29.3562 13.5295 28.4288 12.6021 27.2848 12.6021C26.1408 12.6021 25.2134 13.5295 25.2134 14.6735C25.2134 15.8175 26.1408 16.7449 27.2848 16.7449Z" fill="white"/>
<path d="M27.2848 8.45874C28.4288 8.45874 29.3562 7.53134 29.3562 6.38733C29.3562 5.24332 28.4288 4.31592 27.2848 4.31592C26.1408 4.31592 25.2134 5.24332 25.2134 6.38733C25.2134 7.53134 26.1408 8.45874 27.2848 8.45874Z" fill="white"/>
<path d="M27.2848 29.1731C28.4288 29.1731 29.3562 28.2457 29.3562 27.1017C29.3562 25.9577 28.4288 25.0303 27.2848 25.0303C26.1408 25.0303 25.2134 25.9577 25.2134 27.1017C25.2134 28.2457 26.1408 29.1731 27.2848 29.1731Z" fill="white"/>
<path d="M27.2848 41.6018C28.4288 41.6018 29.3562 40.6744 29.3562 39.5304C29.3562 38.3864 28.4288 37.459 27.2848 37.459C26.1408 37.459 25.2134 38.3864 25.2134 39.5304C25.2134 40.6744 26.1408 41.6018 27.2848 41.6018Z" fill="white"/>
<path d="M27.2848 54.03C28.4288 54.03 29.3562 53.1026 29.3562 51.9586C29.3562 50.8146 28.4288 49.8872 27.2848 49.8872C26.1408 49.8872 25.2134 50.8146 25.2134 51.9586C25.2134 53.1026 26.1408 54.03 27.2848 54.03Z" fill="white"/>
<path d="M27.2848 66.4587C28.4288 66.4587 29.3562 65.5313 29.3562 64.3873C29.3562 63.2433 28.4288 62.3159 27.2848 62.3159C26.1408 62.3159 25.2134 63.2433 25.2134 64.3873C25.2134 65.5313 26.1408 66.4587 27.2848 66.4587Z" fill="white"/>
<path d="M27.2848 78.887C28.4288 78.887 29.3562 77.9596 29.3562 76.8155C29.3562 75.6715 28.4288 74.7441 27.2848 74.7441C26.1408 74.7441 25.2134 75.6715 25.2134 76.8155C25.2134 77.9596 26.1408 78.887 27.2848 78.887Z" fill="white"/>
<path d="M27.2848 91.3157C28.4288 91.3157 29.3562 90.3883 29.3562 89.2443C29.3562 88.1003 28.4288 87.1729 27.2848 87.1729C26.1408 87.1729 25.2134 88.1003 25.2134 89.2443C25.2134 90.3883 26.1408 91.3157 27.2848 91.3157Z" fill="white"/>
<path d="M27.2848 103.744C28.4288 103.744 29.3562 102.816 29.3562 101.672C29.3562 100.528 28.4288 99.601 27.2848 99.601C26.1408 99.601 25.2134 100.528 25.2134 101.672C25.2134 102.816 26.1408 103.744 27.2848 103.744Z" fill="white"/>
<path d="M27.2848 116.173C28.4288 116.173 29.3562 115.245 29.3562 114.101C29.3562 112.957 28.4288 112.03 27.2848 112.03C26.1408 112.03 25.2134 112.957 25.2134 114.101C25.2134 115.245 26.1408 116.173 27.2848 116.173Z" fill="white"/>
<path d="M39.7125 4.31616C40.8565 4.31616 41.7839 3.38876 41.7839 2.24475C41.7839 1.10074 40.8565 0.17334 39.7125 0.17334C38.5685 0.17334 37.6411 1.10074 37.6411 2.24475C37.6411 3.38876 38.5685 4.31616 39.7125 4.31616Z" fill="white"/>
<path d="M39.7125 16.7449C40.8565 16.7449 41.7839 15.8175 41.7839 14.6735C41.7839 13.5295 40.8565 12.6021 39.7125 12.6021C38.5685 12.6021 37.6411 13.5295 37.6411 14.6735C37.6411 15.8175 38.5685 16.7449 39.7125 16.7449Z" fill="white"/>
<path d="M39.7125 29.1731C40.8565 29.1731 41.7839 28.2457 41.7839 27.1017C41.7839 25.9577 40.8565 25.0303 39.7125 25.0303C38.5685 25.0303 37.6411 25.9577 37.6411 27.1017C37.6411 28.2457 38.5685 29.1731 39.7125 29.1731Z" fill="white"/>
<path d="M39.7125 41.6018C40.8565 41.6018 41.7839 40.6744 41.7839 39.5304C41.7839 38.3864 40.8565 37.459 39.7125 37.459C38.5685 37.459 37.6411 38.3864 37.6411 39.5304C37.6411 40.6744 38.5685 41.6018 39.7125 41.6018Z" fill="white"/>
<path d="M39.7125 54.03C40.8565 54.03 41.7839 53.1026 41.7839 51.9586C41.7839 50.8146 40.8565 49.8872 39.7125 49.8872C38.5685 49.8872 37.6411 50.8146 37.6411 51.9586C37.6411 53.1026 38.5685 54.03 39.7125 54.03Z" fill="white"/>
<path d="M39.7125 66.4587C40.8565 66.4587 41.7839 65.5313 41.7839 64.3873C41.7839 63.2433 40.8565 62.3159 39.7125 62.3159C38.5685 62.3159 37.6411 63.2433 37.6411 64.3873C37.6411 65.5313 38.5685 66.4587 39.7125 66.4587Z" fill="white"/>
<path d="M39.7125 78.887C40.8565 78.887 41.7839 77.9596 41.7839 76.8155C41.7839 75.6715 40.8565 74.7441 39.7125 74.7441C38.5685 74.7441 37.6411 75.6715 37.6411 76.8155C37.6411 77.9596 38.5685 78.887 39.7125 78.887Z" fill="white"/>
<path d="M39.7125 91.3157C40.8565 91.3157 41.7839 90.3883 41.7839 89.2443C41.7839 88.1003 40.8565 87.1729 39.7125 87.1729C38.5685 87.1729 37.6411 88.1003 37.6411 89.2443C37.6411 90.3883 38.5685 91.3157 39.7125 91.3157Z" fill="white"/>
<path d="M39.7125 103.744C40.8565 103.744 41.7839 102.816 41.7839 101.672C41.7839 100.528 40.8565 99.601 39.7125 99.601C38.5685 99.601 37.6411 100.528 37.6411 101.672C37.6411 102.816 38.5685 103.744 39.7125 103.744Z" fill="white"/>
<path d="M39.7125 116.173C40.8565 116.173 41.7839 115.245 41.7839 114.101C41.7839 112.957 40.8565 112.03 39.7125 112.03C38.5685 112.03 37.6411 112.957 37.6411 114.101C37.6411 115.245 38.5685 116.173 39.7125 116.173Z" fill="white"/>
<path d="M52.1393 4.31616C53.2833 4.31616 54.2107 3.38876 54.2107 2.24475C54.2107 1.10074 53.2833 0.17334 52.1393 0.17334C50.9953 0.17334 50.0679 1.10074 50.0679 2.24475C50.0679 3.38876 50.9953 4.31616 52.1393 4.31616Z" fill="white"/>
<path d="M52.1393 16.7449C53.2833 16.7449 54.2107 15.8175 54.2107 14.6735C54.2107 13.5295 53.2833 12.6021 52.1393 12.6021C50.9953 12.6021 50.0679 13.5295 50.0679 14.6735C50.0679 15.8175 50.9953 16.7449 52.1393 16.7449Z" fill="white"/>
<path d="M52.1393 29.1731C53.2833 29.1731 54.2107 28.2457 54.2107 27.1017C54.2107 25.9577 53.2833 25.0303 52.1393 25.0303C50.9953 25.0303 50.0679 25.9577 50.0679 27.1017C50.0679 28.2457 50.9953 29.1731 52.1393 29.1731Z" fill="white"/>
<path d="M52.1393 41.6018C53.2833 41.6018 54.2107 40.6744 54.2107 39.5304C54.2107 38.3864 53.2833 37.459 52.1393 37.459C50.9953 37.459 50.0679 38.3864 50.0679 39.5304C50.0679 40.6744 50.9953 41.6018 52.1393 41.6018Z" fill="white"/>
<path d="M52.1393 54.03C53.2833 54.03 54.2107 53.1026 54.2107 51.9586C54.2107 50.8146 53.2833 49.8872 52.1393 49.8872C50.9953 49.8872 50.0679 50.8146 50.0679 51.9586C50.0679 53.1026 50.9953 54.03 52.1393 54.03Z" fill="white"/>
<path d="M52.1393 66.4587C53.2833 66.4587 54.2107 65.5313 54.2107 64.3873C54.2107 63.2433 53.2833 62.3159 52.1393 62.3159C50.9953 62.3159 50.0679 63.2433 50.0679 64.3873C50.0679 65.5313 50.9953 66.4587 52.1393 66.4587Z" fill="white"/>
<path d="M52.1393 78.887C53.2833 78.887 54.2107 77.9596 54.2107 76.8155C54.2107 75.6715 53.2833 74.7441 52.1393 74.7441C50.9953 74.7441 50.0679 75.6715 50.0679 76.8155C50.0679 77.9596 50.9953 78.887 52.1393 78.887Z" fill="white"/>
<path d="M52.1393 91.3157C53.2833 91.3157 54.2107 90.3883 54.2107 89.2443C54.2107 88.1003 53.2833 87.1729 52.1393 87.1729C50.9953 87.1729 50.0679 88.1003 50.0679 89.2443C50.0679 90.3883 50.9953 91.3157 52.1393 91.3157Z" fill="white"/>
<path d="M52.1393 103.744C53.2833 103.744 54.2107 102.816 54.2107 101.672C54.2107 100.528 53.2833 99.601 52.1393 99.601C50.9953 99.601 50.0679 100.528 50.0679 101.672C50.0679 102.816 50.9953 103.744 52.1393 103.744Z" fill="white"/>
<path d="M52.1393 116.173C53.2833 116.173 54.2107 115.245 54.2107 114.101C54.2107 112.957 53.2833 112.03 52.1393 112.03C50.9953 112.03 50.0679 112.957 50.0679 114.101C50.0679 115.245 50.9953 116.173 52.1393 116.173Z" fill="white"/>
<path d="M64.567 4.31616C65.711 4.31616 66.6384 3.38876 66.6384 2.24475C66.6384 1.10074 65.711 0.17334 64.567 0.17334C63.423 0.17334 62.4956 1.10074 62.4956 2.24475C62.4956 3.38876 63.423 4.31616 64.567 4.31616Z" fill="white"/>
<path d="M64.567 16.7449C65.711 16.7449 66.6384 15.8175 66.6384 14.6735C66.6384 13.5295 65.711 12.6021 64.567 12.6021C63.423 12.6021 62.4956 13.5295 62.4956 14.6735C62.4956 15.8175 63.423 16.7449 64.567 16.7449Z" fill="white"/>
<path d="M64.567 29.1731C65.711 29.1731 66.6384 28.2457 66.6384 27.1017C66.6384 25.9577 65.711 25.0303 64.567 25.0303C63.423 25.0303 62.4956 25.9577 62.4956 27.1017C62.4956 28.2457 63.423 29.1731 64.567 29.1731Z" fill="white"/>
<path d="M64.567 41.6013C65.711 41.6013 66.6384 40.6739 66.6384 39.5299C66.6384 38.3859 65.711 37.4585 64.567 37.4585C63.423 37.4585 62.4956 38.3859 62.4956 39.5299C62.4956 40.6739 63.423 41.6013 64.567 41.6013Z" fill="white"/>
<path d="M64.567 54.03C65.711 54.03 66.6384 53.1026 66.6384 51.9586C66.6384 50.8146 65.711 49.8872 64.567 49.8872C63.423 49.8872 62.4956 50.8146 62.4956 51.9586C62.4956 53.1026 63.423 54.03 64.567 54.03Z" fill="white"/>
<path d="M64.567 66.4587C65.711 66.4587 66.6384 65.5313 66.6384 64.3873C66.6384 63.2433 65.711 62.3159 64.567 62.3159C63.423 62.3159 62.4956 63.2433 62.4956 64.3873C62.4956 65.5313 63.423 66.4587 64.567 66.4587Z" fill="white"/>
<path d="M64.567 78.887C65.711 78.887 66.6384 77.9596 66.6384 76.8155C66.6384 75.6715 65.711 74.7441 64.567 74.7441C63.423 74.7441 62.4956 75.6715 62.4956 76.8155C62.4956 77.9596 63.423 78.887 64.567 78.887Z" fill="white"/>
<path d="M64.567 91.3157C65.711 91.3157 66.6384 90.3883 66.6384 89.2443C66.6384 88.1003 65.711 87.1729 64.567 87.1729C63.423 87.1729 62.4956 88.1003 62.4956 89.2443C62.4956 90.3883 63.423 91.3157 64.567 91.3157Z" fill="white"/>
<path d="M64.567 103.744C65.711 103.744 66.6384 102.816 66.6384 101.672C66.6384 100.528 65.711 99.601 64.567 99.601C63.423 99.601 62.4956 100.528 62.4956 101.672C62.4956 102.816 63.423 103.744 64.567 103.744Z" fill="white"/>
<path d="M64.567 116.173C65.711 116.173 66.6384 115.245 66.6384 114.101C66.6384 112.957 65.711 112.03 64.567 112.03C63.423 112.03 62.4956 112.957 62.4956 114.101C62.4956 115.245 63.423 116.173 64.567 116.173Z" fill="white"/>
<path d="M76.9967 4.31616C78.1407 4.31616 79.0681 3.38876 79.0681 2.24475C79.0681 1.10074 78.1407 0.17334 76.9967 0.17334C75.8527 0.17334 74.9253 1.10074 74.9253 2.24475C74.9253 3.38876 75.8527 4.31616 76.9967 4.31616Z" fill="white"/>
<path d="M76.9967 16.7449C78.1407 16.7449 79.0681 15.8175 79.0681 14.6735C79.0681 13.5295 78.1407 12.6021 76.9967 12.6021C75.8527 12.6021 74.9253 13.5295 74.9253 14.6735C74.9253 15.8175 75.8527 16.7449 76.9967 16.7449Z" fill="white"/>
<path d="M76.9967 29.1731C78.1407 29.1731 79.0681 28.2457 79.0681 27.1017C79.0681 25.9577 78.1407 25.0303 76.9967 25.0303C75.8527 25.0303 74.9253 25.9577 74.9253 27.1017C74.9253 28.2457 75.8527 29.1731 76.9967 29.1731Z" fill="white"/>
<path d="M76.9967 41.6018C78.1407 41.6018 79.0681 40.6744 79.0681 39.5304C79.0681 38.3864 78.1407 37.459 76.9967 37.459C75.8527 37.459 74.9253 38.3864 74.9253 39.5304C74.9253 40.6744 75.8527 41.6018 76.9967 41.6018Z" fill="white"/>
<path d="M76.9967 54.03C78.1407 54.03 79.0681 53.1026 79.0681 51.9586C79.0681 50.8146 78.1407 49.8872 76.9967 49.8872C75.8527 49.8872 74.9253 50.8146 74.9253 51.9586C74.9253 53.1026 75.8527 54.03 76.9967 54.03Z" fill="white"/>
<path d="M76.9967 66.4587C78.1407 66.4587 79.0681 65.5313 79.0681 64.3873C79.0681 63.2433 78.1407 62.3159 76.9967 62.3159C75.8527 62.3159 74.9253 63.2433 74.9253 64.3873C74.9253 65.5313 75.8527 66.4587 76.9967 66.4587Z" fill="white"/>
<path d="M76.9967 78.887C78.1407 78.887 79.0681 77.9596 79.0681 76.8155C79.0681 75.6715 78.1407 74.7441 76.9967 74.7441C75.8527 74.7441 74.9253 75.6715 74.9253 76.8155C74.9253 77.9596 75.8527 78.887 76.9967 78.887Z" fill="white"/>
<path d="M76.9967 91.3157C78.1407 91.3157 79.0681 90.3883 79.0681 89.2443C79.0681 88.1003 78.1407 87.1729 76.9967 87.1729C75.8527 87.1729 74.9253 88.1003 74.9253 89.2443C74.9253 90.3883 75.8527 91.3157 76.9967 91.3157Z" fill="white"/>
<path d="M76.9967 103.744C78.1407 103.744 79.0681 102.816 79.0681 101.672C79.0681 100.528 78.1407 99.601 76.9967 99.601C75.8527 99.601 74.9253 100.528 74.9253 101.672C74.9253 102.816 75.8527 103.744 76.9967 103.744Z" fill="white"/>
<path d="M76.9967 116.173C78.1407 116.173 79.0681 115.245 79.0681 114.101C79.0681 112.957 78.1407 112.03 76.9967 112.03C75.8527 112.03 74.9253 112.957 74.9253 114.101C74.9253 115.245 75.8527 116.173 76.9967 116.173Z" fill="white"/>
<path d="M76.9967 4.31616C78.1407 4.31616 79.0681 3.38876 79.0681 2.24475C79.0681 1.10074 78.1407 0.17334 76.9967 0.17334C75.8527 0.17334 74.9253 1.10074 74.9253 2.24475C74.9253 3.38876 75.8527 4.31616 76.9967 4.31616Z" fill="white"/>
<path d="M76.9967 16.7449C78.1407 16.7449 79.0681 15.8175 79.0681 14.6735C79.0681 13.5295 78.1407 12.6021 76.9967 12.6021C75.8527 12.6021 74.9253 13.5295 74.9253 14.6735C74.9253 15.8175 75.8527 16.7449 76.9967 16.7449Z" fill="white"/>
<path d="M76.9967 29.1731C78.1407 29.1731 79.0681 28.2457 79.0681 27.1017C79.0681 25.9577 78.1407 25.0303 76.9967 25.0303C75.8527 25.0303 74.9253 25.9577 74.9253 27.1017C74.9253 28.2457 75.8527 29.1731 76.9967 29.1731Z" fill="white"/>
<path d="M76.9967 41.6018C78.1407 41.6018 79.0681 40.6744 79.0681 39.5304C79.0681 38.3864 78.1407 37.459 76.9967 37.459C75.8527 37.459 74.9253 38.3864 74.9253 39.5304C74.9253 40.6744 75.8527 41.6018 76.9967 41.6018Z" fill="white"/>
<path d="M76.9967 54.03C78.1407 54.03 79.0681 53.1026 79.0681 51.9586C79.0681 50.8146 78.1407 49.8872 76.9967 49.8872C75.8527 49.8872 74.9253 50.8146 74.9253 51.9586C74.9253 53.1026 75.8527 54.03 76.9967 54.03Z" fill="white"/>
<path d="M76.9967 66.4587C78.1407 66.4587 79.0681 65.5313 79.0681 64.3873C79.0681 63.2433 78.1407 62.3159 76.9967 62.3159C75.8527 62.3159 74.9253 63.2433 74.9253 64.3873C74.9253 65.5313 75.8527 66.4587 76.9967 66.4587Z" fill="white"/>
<path d="M76.9967 78.887C78.1407 78.887 79.0681 77.9596 79.0681 76.8155C79.0681 75.6715 78.1407 74.7441 76.9967 74.7441C75.8527 74.7441 74.9253 75.6715 74.9253 76.8155C74.9253 77.9596 75.8527 78.887 76.9967 78.887Z" fill="white"/>
<path d="M76.9967 91.3157C78.1407 91.3157 79.0681 90.3883 79.0681 89.2443C79.0681 88.1003 78.1407 87.1729 76.9967 87.1729C75.8527 87.1729 74.9253 88.1003 74.9253 89.2443C74.9253 90.3883 75.8527 91.3157 76.9967 91.3157Z" fill="white"/>
<path d="M76.9967 103.744C78.1407 103.744 79.0681 102.816 79.0681 101.672C79.0681 100.528 78.1407 99.601 76.9967 99.601C75.8527 99.601 74.9253 100.528 74.9253 101.672C74.9253 102.816 75.8527 103.744 76.9967 103.744Z" fill="white"/>
<path d="M76.9967 116.173C78.1407 116.173 79.0681 115.245 79.0681 114.101C79.0681 112.957 78.1407 112.03 76.9967 112.03C75.8527 112.03 74.9253 112.957 74.9253 114.101C74.9253 115.245 75.8527 116.173 76.9967 116.173Z" fill="white"/>
<path d="M89.4254 16.7449C90.5694 16.7449 91.4968 15.8175 91.4968 14.6735C91.4968 13.5295 90.5694 12.6021 89.4254 12.6021C88.2814 12.6021 87.354 13.5295 87.354 14.6735C87.354 15.8175 88.2814 16.7449 89.4254 16.7449Z" fill="white"/>
<path d="M89.4254 29.1731C90.5694 29.1731 91.4968 28.2457 91.4968 27.1017C91.4968 25.9577 90.5694 25.0303 89.4254 25.0303C88.2814 25.0303 87.354 25.9577 87.354 27.1017C87.354 28.2457 88.2814 29.1731 89.4254 29.1731Z" fill="white"/>
<path d="M89.4254 41.6013C90.5694 41.6013 91.4968 40.6739 91.4968 39.5299C91.4968 38.3859 90.5694 37.4585 89.4254 37.4585C88.2814 37.4585 87.354 38.3859 87.354 39.5299C87.354 40.6739 88.2814 41.6013 89.4254 41.6013Z" fill="white"/>
<path d="M89.4254 54.03C90.5694 54.03 91.4968 53.1026 91.4968 51.9586C91.4968 50.8146 90.5694 49.8872 89.4254 49.8872C88.2814 49.8872 87.354 50.8146 87.354 51.9586C87.354 53.1026 88.2814 54.03 89.4254 54.03Z" fill="white"/>
<path d="M89.4254 66.4587C90.5694 66.4587 91.4968 65.5313 91.4968 64.3873C91.4968 63.2433 90.5694 62.3159 89.4254 62.3159C88.2814 62.3159 87.354 63.2433 87.354 64.3873C87.354 65.5313 88.2814 66.4587 89.4254 66.4587Z" fill="white"/>
<path d="M89.4254 78.887C90.5694 78.887 91.4968 77.9596 91.4968 76.8155C91.4968 75.6715 90.5694 74.7441 89.4254 74.7441C88.2814 74.7441 87.354 75.6715 87.354 76.8155C87.354 77.9596 88.2814 78.887 89.4254 78.887Z" fill="white"/>
<path d="M89.4254 91.3157C90.5694 91.3157 91.4968 90.3883 91.4968 89.2443C91.4968 88.1003 90.5694 87.1729 89.4254 87.1729C88.2814 87.1729 87.354 88.1003 87.354 89.2443C87.354 90.3883 88.2814 91.3157 89.4254 91.3157Z" fill="white"/>
<path d="M89.4254 103.744C90.5694 103.744 91.4968 102.816 91.4968 101.672C91.4968 100.528 90.5694 99.601 89.4254 99.601C88.2814 99.601 87.354 100.528 87.354 101.672C87.354 102.816 88.2814 103.744 89.4254 103.744Z" fill="white"/>
<path d="M89.4254 116.173C90.5694 116.173 91.4968 115.245 91.4968 114.101C91.4968 112.957 90.5694 112.03 89.4254 112.03C88.2814 112.03 87.354 112.957 87.354 114.101C87.354 115.245 88.2814 116.173 89.4254 116.173Z" fill="white"/>
</g>
</g>
</g>
</g>
<defs>
<clipPath id="clip0_7_38">
<rect width="87" height="115.962" fill="white" transform="translate(0.35498 0.17334)"/>
</clipPath>
<clipPath id="clip1_7_38">
<rect width="116" height="116" fill="white" transform="translate(0.35498 0.17334)"/>
</clipPath>
<clipPath id="clip2_7_38">
<rect width="116" height="116" fill="white" transform="translate(0.35498 0.17334)"/>
</clipPath>
</defs>
</svg>
