<svg width="96" height="117" viewBox="0 0 96 117" fill="none" xmlns="http://www.w3.org/2000/svg">
<g clip-path="url(#clip0_7_180)">
<g clip-path="url(#clip1_7_180)">
<g opacity="0.3">
<path d="M6.92981 16.6316C8.07382 16.6316 9.00122 15.7042 9.00122 14.5602C9.00122 13.4162 8.07382 12.4888 6.92981 12.4888C5.7858 12.4888 4.8584 13.4162 4.8584 14.5602C4.8584 15.7042 5.7858 16.6316 6.92981 16.6316Z" fill="white"/>
<path d="M6.92981 8.34546C8.07382 8.34546 9.00122 7.41806 9.00122 6.27405C9.00122 5.13004 8.07382 4.20264 6.92981 4.20264C5.7858 4.20264 4.8584 5.13004 4.8584 6.27405C4.8584 7.41806 5.7858 8.34546 6.92981 8.34546Z" fill="white"/>
<path d="M6.92981 29.0598C8.07382 29.0598 9.00122 28.1324 9.00122 26.9884C9.00122 25.8444 8.07382 24.917 6.92981 24.917C5.7858 24.917 4.8584 25.8444 4.8584 26.9884C4.8584 28.1324 5.7858 29.0598 6.92981 29.0598Z" fill="white"/>
<path d="M6.92981 41.4885C8.07382 41.4885 9.00122 40.5611 9.00122 39.4171C9.00122 38.2731 8.07382 37.3457 6.92981 37.3457C5.7858 37.3457 4.8584 38.2731 4.8584 39.4171C4.8584 40.5611 5.7858 41.4885 6.92981 41.4885Z" fill="white"/>
<path d="M6.92981 53.9167C8.07382 53.9167 9.00122 52.9893 9.00122 51.8453C9.00122 50.7013 8.07382 49.7739 6.92981 49.7739C5.7858 49.7739 4.8584 50.7013 4.8584 51.8453C4.8584 52.9893 5.7858 53.9167 6.92981 53.9167Z" fill="white"/>
<path d="M6.92981 66.3455C8.07382 66.3455 9.00122 65.4181 9.00122 64.274C9.00122 63.13 8.07382 62.2026 6.92981 62.2026C5.7858 62.2026 4.8584 63.13 4.8584 64.274C4.8584 65.4181 5.7858 66.3455 6.92981 66.3455Z" fill="white"/>
<path d="M6.92981 78.7737C8.07382 78.7737 9.00122 77.8463 9.00122 76.7023C9.00122 75.5583 8.07382 74.6309 6.92981 74.6309C5.7858 74.6309 4.8584 75.5583 4.8584 76.7023C4.8584 77.8463 5.7858 78.7737 6.92981 78.7737Z" fill="white"/>
<path d="M6.92981 91.2024C8.07382 91.2024 9.00122 90.275 9.00122 89.131C9.00122 87.987 8.07382 87.0596 6.92981 87.0596C5.7858 87.0596 4.8584 87.987 4.8584 89.131C4.8584 90.275 5.7858 91.2024 6.92981 91.2024Z" fill="white"/>
<path d="M6.92981 103.63C8.07382 103.63 9.00122 102.703 9.00122 101.559C9.00122 100.415 8.07382 99.4877 6.92981 99.4877C5.7858 99.4877 4.8584 100.415 4.8584 101.559C4.8584 102.703 5.7858 103.63 6.92981 103.63Z" fill="white"/>
<path d="M6.92981 116.059C8.07382 116.059 9.00122 115.132 9.00122 113.988C9.00122 112.844 8.07382 111.917 6.92981 111.917C5.7858 111.917 4.8584 112.844 4.8584 113.988C4.8584 115.132 5.7858 116.059 6.92981 116.059Z" fill="white"/>
<path d="M19.3575 4.20288C20.5016 4.20288 21.429 3.27548 21.429 2.13147C21.429 0.98746 20.5016 0.0600586 19.3575 0.0600586C18.2135 0.0600586 17.2861 0.98746 17.2861 2.13147C17.2861 3.27548 18.2135 4.20288 19.3575 4.20288Z" fill="white"/>
<path d="M19.3575 16.6316C20.5016 16.6316 21.429 15.7042 21.429 14.5602C21.429 13.4162 20.5016 12.4888 19.3575 12.4888C18.2135 12.4888 17.2861 13.4162 17.2861 14.5602C17.2861 15.7042 18.2135 16.6316 19.3575 16.6316Z" fill="white"/>
<path d="M19.3575 29.0598C20.5016 29.0598 21.429 28.1324 21.429 26.9884C21.429 25.8444 20.5016 24.917 19.3575 24.917C18.2135 24.917 17.2861 25.8444 17.2861 26.9884C17.2861 28.1324 18.2135 29.0598 19.3575 29.0598Z" fill="white"/>
<path d="M19.3575 41.4885C20.5016 41.4885 21.429 40.5611 21.429 39.4171C21.429 38.2731 20.5016 37.3457 19.3575 37.3457C18.2135 37.3457 17.2861 38.2731 17.2861 39.4171C17.2861 40.5611 18.2135 41.4885 19.3575 41.4885Z" fill="white"/>
<path d="M19.3575 53.9167C20.5016 53.9167 21.429 52.9893 21.429 51.8453C21.429 50.7013 20.5016 49.7739 19.3575 49.7739C18.2135 49.7739 17.2861 50.7013 17.2861 51.8453C17.2861 52.9893 18.2135 53.9167 19.3575 53.9167Z" fill="white"/>
<path d="M19.3575 66.3455C20.5016 66.3455 21.429 65.4181 21.429 64.274C21.429 63.13 20.5016 62.2026 19.3575 62.2026C18.2135 62.2026 17.2861 63.13 17.2861 64.274C17.2861 65.4181 18.2135 66.3455 19.3575 66.3455Z" fill="white"/>
<path d="M19.3575 78.7737C20.5016 78.7737 21.429 77.8463 21.429 76.7023C21.429 75.5583 20.5016 74.6309 19.3575 74.6309C18.2135 74.6309 17.2861 75.5583 17.2861 76.7023C17.2861 77.8463 18.2135 78.7737 19.3575 78.7737Z" fill="white"/>
<path d="M19.3575 91.2024C20.5016 91.2024 21.429 90.275 21.429 89.131C21.429 87.987 20.5016 87.0596 19.3575 87.0596C18.2135 87.0596 17.2861 87.987 17.2861 89.131C17.2861 90.275 18.2135 91.2024 19.3575 91.2024Z" fill="white"/>
<path d="M19.3575 103.63C20.5016 103.63 21.429 102.703 21.429 101.559C21.429 100.415 20.5016 99.4877 19.3575 99.4877C18.2135 99.4877 17.2861 100.415 17.2861 101.559C17.2861 102.703 18.2135 103.63 19.3575 103.63Z" fill="white"/>
<path d="M19.3575 116.059C20.5016 116.059 21.429 115.132 21.429 113.988C21.429 112.844 20.5016 111.917 19.3575 111.917C18.2135 111.917 17.2861 112.844 17.2861 113.988C17.2861 115.132 18.2135 116.059 19.3575 116.059Z" fill="white"/>
<path d="M31.7843 4.20288C32.9283 4.20288 33.8557 3.27548 33.8557 2.13147C33.8557 0.98746 32.9283 0.0600586 31.7843 0.0600586C30.6403 0.0600586 29.7129 0.98746 29.7129 2.13147C29.7129 3.27548 30.6403 4.20288 31.7843 4.20288Z" fill="white"/>
<path d="M31.7843 16.6316C32.9283 16.6316 33.8557 15.7042 33.8557 14.5602C33.8557 13.4162 32.9283 12.4888 31.7843 12.4888C30.6403 12.4888 29.7129 13.4162 29.7129 14.5602C29.7129 15.7042 30.6403 16.6316 31.7843 16.6316Z" fill="white"/>
<path d="M31.7843 29.0598C32.9283 29.0598 33.8557 28.1324 33.8557 26.9884C33.8557 25.8444 32.9283 24.917 31.7843 24.917C30.6403 24.917 29.7129 25.8444 29.7129 26.9884C29.7129 28.1324 30.6403 29.0598 31.7843 29.0598Z" fill="white"/>
<path d="M31.7843 41.4885C32.9283 41.4885 33.8557 40.5611 33.8557 39.4171C33.8557 38.2731 32.9283 37.3457 31.7843 37.3457C30.6403 37.3457 29.7129 38.2731 29.7129 39.4171C29.7129 40.5611 30.6403 41.4885 31.7843 41.4885Z" fill="white"/>
<path d="M31.7843 53.9167C32.9283 53.9167 33.8557 52.9893 33.8557 51.8453C33.8557 50.7013 32.9283 49.7739 31.7843 49.7739C30.6403 49.7739 29.7129 50.7013 29.7129 51.8453C29.7129 52.9893 30.6403 53.9167 31.7843 53.9167Z" fill="white"/>
<path d="M31.7843 66.3455C32.9283 66.3455 33.8557 65.4181 33.8557 64.274C33.8557 63.13 32.9283 62.2026 31.7843 62.2026C30.6403 62.2026 29.7129 63.13 29.7129 64.274C29.7129 65.4181 30.6403 66.3455 31.7843 66.3455Z" fill="white"/>
<path d="M31.7843 78.7737C32.9283 78.7737 33.8557 77.8463 33.8557 76.7023C33.8557 75.5583 32.9283 74.6309 31.7843 74.6309C30.6403 74.6309 29.7129 75.5583 29.7129 76.7023C29.7129 77.8463 30.6403 78.7737 31.7843 78.7737Z" fill="white"/>
<path d="M31.7843 91.2024C32.9283 91.2024 33.8557 90.275 33.8557 89.131C33.8557 87.987 32.9283 87.0596 31.7843 87.0596C30.6403 87.0596 29.7129 87.987 29.7129 89.131C29.7129 90.275 30.6403 91.2024 31.7843 91.2024Z" fill="white"/>
<path d="M31.7843 103.63C32.9283 103.63 33.8557 102.703 33.8557 101.559C33.8557 100.415 32.9283 99.4877 31.7843 99.4877C30.6403 99.4877 29.7129 100.415 29.7129 101.559C29.7129 102.703 30.6403 103.63 31.7843 103.63Z" fill="white"/>
<path d="M31.7843 116.059C32.9283 116.059 33.8557 115.132 33.8557 113.988C33.8557 112.844 32.9283 111.917 31.7843 111.917C30.6403 111.917 29.7129 112.844 29.7129 113.988C29.7129 115.132 30.6403 116.059 31.7843 116.059Z" fill="white"/>
<path d="M44.212 4.20288C45.356 4.20288 46.2834 3.27548 46.2834 2.13147C46.2834 0.98746 45.356 0.0600586 44.212 0.0600586C43.068 0.0600586 42.1406 0.98746 42.1406 2.13147C42.1406 3.27548 43.068 4.20288 44.212 4.20288Z" fill="white"/>
<path d="M44.212 16.6316C45.356 16.6316 46.2834 15.7042 46.2834 14.5602C46.2834 13.4162 45.356 12.4888 44.212 12.4888C43.068 12.4888 42.1406 13.4162 42.1406 14.5602C42.1406 15.7042 43.068 16.6316 44.212 16.6316Z" fill="white"/>
<path d="M44.212 29.0598C45.356 29.0598 46.2834 28.1324 46.2834 26.9884C46.2834 25.8444 45.356 24.917 44.212 24.917C43.068 24.917 42.1406 25.8444 42.1406 26.9884C42.1406 28.1324 43.068 29.0598 44.212 29.0598Z" fill="white"/>
<path d="M44.212 41.488C45.356 41.488 46.2834 40.5606 46.2834 39.4166C46.2834 38.2726 45.356 37.3452 44.212 37.3452C43.068 37.3452 42.1406 38.2726 42.1406 39.4166C42.1406 40.5606 43.068 41.488 44.212 41.488Z" fill="white"/>
<path d="M44.212 53.9167C45.356 53.9167 46.2834 52.9893 46.2834 51.8453C46.2834 50.7013 45.356 49.7739 44.212 49.7739C43.068 49.7739 42.1406 50.7013 42.1406 51.8453C42.1406 52.9893 43.068 53.9167 44.212 53.9167Z" fill="white"/>
<path d="M44.212 66.3455C45.356 66.3455 46.2834 65.4181 46.2834 64.274C46.2834 63.13 45.356 62.2026 44.212 62.2026C43.068 62.2026 42.1406 63.13 42.1406 64.274C42.1406 65.4181 43.068 66.3455 44.212 66.3455Z" fill="white"/>
<path d="M44.212 78.7737C45.356 78.7737 46.2834 77.8463 46.2834 76.7023C46.2834 75.5583 45.356 74.6309 44.212 74.6309C43.068 74.6309 42.1406 75.5583 42.1406 76.7023C42.1406 77.8463 43.068 78.7737 44.212 78.7737Z" fill="white"/>
<path d="M44.212 91.2024C45.356 91.2024 46.2834 90.275 46.2834 89.131C46.2834 87.987 45.356 87.0596 44.212 87.0596C43.068 87.0596 42.1406 87.987 42.1406 89.131C42.1406 90.275 43.068 91.2024 44.212 91.2024Z" fill="white"/>
<path d="M44.212 103.63C45.356 103.63 46.2834 102.703 46.2834 101.559C46.2834 100.415 45.356 99.4877 44.212 99.4877C43.068 99.4877 42.1406 100.415 42.1406 101.559C42.1406 102.703 43.068 103.63 44.212 103.63Z" fill="white"/>
<path d="M44.212 116.059C45.356 116.059 46.2834 115.132 46.2834 113.988C46.2834 112.844 45.356 111.917 44.212 111.917C43.068 111.917 42.1406 112.844 42.1406 113.988C42.1406 115.132 43.068 116.059 44.212 116.059Z" fill="white"/>
<path d="M56.6417 4.20288C57.7857 4.20288 58.7131 3.27548 58.7131 2.13147C58.7131 0.98746 57.7857 0.0600586 56.6417 0.0600586C55.4977 0.0600586 54.5703 0.98746 54.5703 2.13147C54.5703 3.27548 55.4977 4.20288 56.6417 4.20288Z" fill="white"/>
<path d="M56.6417 16.6316C57.7857 16.6316 58.7131 15.7042 58.7131 14.5602C58.7131 13.4162 57.7857 12.4888 56.6417 12.4888C55.4977 12.4888 54.5703 13.4162 54.5703 14.5602C54.5703 15.7042 55.4977 16.6316 56.6417 16.6316Z" fill="white"/>
<path d="M56.6417 29.0598C57.7857 29.0598 58.7131 28.1324 58.7131 26.9884C58.7131 25.8444 57.7857 24.917 56.6417 24.917C55.4977 24.917 54.5703 25.8444 54.5703 26.9884C54.5703 28.1324 55.4977 29.0598 56.6417 29.0598Z" fill="white"/>
<path d="M56.6417 41.4885C57.7857 41.4885 58.7131 40.5611 58.7131 39.4171C58.7131 38.2731 57.7857 37.3457 56.6417 37.3457C55.4977 37.3457 54.5703 38.2731 54.5703 39.4171C54.5703 40.5611 55.4977 41.4885 56.6417 41.4885Z" fill="white"/>
<path d="M56.6417 53.9167C57.7857 53.9167 58.7131 52.9893 58.7131 51.8453C58.7131 50.7013 57.7857 49.7739 56.6417 49.7739C55.4977 49.7739 54.5703 50.7013 54.5703 51.8453C54.5703 52.9893 55.4977 53.9167 56.6417 53.9167Z" fill="white"/>
<path d="M56.6417 66.3455C57.7857 66.3455 58.7131 65.4181 58.7131 64.274C58.7131 63.13 57.7857 62.2026 56.6417 62.2026C55.4977 62.2026 54.5703 63.13 54.5703 64.274C54.5703 65.4181 55.4977 66.3455 56.6417 66.3455Z" fill="white"/>
<path d="M56.6417 78.7737C57.7857 78.7737 58.7131 77.8463 58.7131 76.7023C58.7131 75.5583 57.7857 74.6309 56.6417 74.6309C55.4977 74.6309 54.5703 75.5583 54.5703 76.7023C54.5703 77.8463 55.4977 78.7737 56.6417 78.7737Z" fill="white"/>
<path d="M56.6417 91.2024C57.7857 91.2024 58.7131 90.275 58.7131 89.131C58.7131 87.987 57.7857 87.0596 56.6417 87.0596C55.4977 87.0596 54.5703 87.987 54.5703 89.131C54.5703 90.275 55.4977 91.2024 56.6417 91.2024Z" fill="white"/>
<path d="M56.6417 103.63C57.7857 103.63 58.7131 102.703 58.7131 101.559C58.7131 100.415 57.7857 99.4877 56.6417 99.4877C55.4977 99.4877 54.5703 100.415 54.5703 101.559C54.5703 102.703 55.4977 103.63 56.6417 103.63Z" fill="white"/>
<path d="M56.6417 116.059C57.7857 116.059 58.7131 115.132 58.7131 113.988C58.7131 112.844 57.7857 111.917 56.6417 111.917C55.4977 111.917 54.5703 112.844 54.5703 113.988C54.5703 115.132 55.4977 116.059 56.6417 116.059Z" fill="white"/>
<path d="M56.6417 4.20288C57.7857 4.20288 58.7131 3.27548 58.7131 2.13147C58.7131 0.98746 57.7857 0.0600586 56.6417 0.0600586C55.4977 0.0600586 54.5703 0.98746 54.5703 2.13147C54.5703 3.27548 55.4977 4.20288 56.6417 4.20288Z" fill="white"/>
<path d="M56.6417 16.6316C57.7857 16.6316 58.7131 15.7042 58.7131 14.5602C58.7131 13.4162 57.7857 12.4888 56.6417 12.4888C55.4977 12.4888 54.5703 13.4162 54.5703 14.5602C54.5703 15.7042 55.4977 16.6316 56.6417 16.6316Z" fill="white"/>
<path d="M56.6417 29.0598C57.7857 29.0598 58.7131 28.1324 58.7131 26.9884C58.7131 25.8444 57.7857 24.917 56.6417 24.917C55.4977 24.917 54.5703 25.8444 54.5703 26.9884C54.5703 28.1324 55.4977 29.0598 56.6417 29.0598Z" fill="white"/>
<path d="M56.6417 41.4885C57.7857 41.4885 58.7131 40.5611 58.7131 39.4171C58.7131 38.2731 57.7857 37.3457 56.6417 37.3457C55.4977 37.3457 54.5703 38.2731 54.5703 39.4171C54.5703 40.5611 55.4977 41.4885 56.6417 41.4885Z" fill="white"/>
<path d="M56.6417 53.9167C57.7857 53.9167 58.7131 52.9893 58.7131 51.8453C58.7131 50.7013 57.7857 49.7739 56.6417 49.7739C55.4977 49.7739 54.5703 50.7013 54.5703 51.8453C54.5703 52.9893 55.4977 53.9167 56.6417 53.9167Z" fill="white"/>
<path d="M56.6417 66.3455C57.7857 66.3455 58.7131 65.4181 58.7131 64.274C58.7131 63.13 57.7857 62.2026 56.6417 62.2026C55.4977 62.2026 54.5703 63.13 54.5703 64.274C54.5703 65.4181 55.4977 66.3455 56.6417 66.3455Z" fill="white"/>
<path d="M56.6417 78.7737C57.7857 78.7737 58.7131 77.8463 58.7131 76.7023C58.7131 75.5583 57.7857 74.6309 56.6417 74.6309C55.4977 74.6309 54.5703 75.5583 54.5703 76.7023C54.5703 77.8463 55.4977 78.7737 56.6417 78.7737Z" fill="white"/>
<path d="M56.6417 91.2024C57.7857 91.2024 58.7131 90.275 58.7131 89.131C58.7131 87.987 57.7857 87.0596 56.6417 87.0596C55.4977 87.0596 54.5703 87.987 54.5703 89.131C54.5703 90.275 55.4977 91.2024 56.6417 91.2024Z" fill="white"/>
<path d="M56.6417 103.63C57.7857 103.63 58.7131 102.703 58.7131 101.559C58.7131 100.415 57.7857 99.4877 56.6417 99.4877C55.4977 99.4877 54.5703 100.415 54.5703 101.559C54.5703 102.703 55.4977 103.63 56.6417 103.63Z" fill="white"/>
<path d="M56.6417 116.059C57.7857 116.059 58.7131 115.132 58.7131 113.988C58.7131 112.844 57.7857 111.917 56.6417 111.917C55.4977 111.917 54.5703 112.844 54.5703 113.988C54.5703 115.132 55.4977 116.059 56.6417 116.059Z" fill="white"/>
<path d="M69.0704 16.6316C70.2144 16.6316 71.1418 15.7042 71.1418 14.5602C71.1418 13.4162 70.2144 12.4888 69.0704 12.4888C67.9264 12.4888 66.999 13.4162 66.999 14.5602C66.999 15.7042 67.9264 16.6316 69.0704 16.6316Z" fill="white"/>
<path d="M69.0704 29.0598C70.2144 29.0598 71.1418 28.1324 71.1418 26.9884C71.1418 25.8444 70.2144 24.917 69.0704 24.917C67.9264 24.917 66.999 25.8444 66.999 26.9884C66.999 28.1324 67.9264 29.0598 69.0704 29.0598Z" fill="white"/>
<path d="M69.0704 41.488C70.2144 41.488 71.1418 40.5606 71.1418 39.4166C71.1418 38.2726 70.2144 37.3452 69.0704 37.3452C67.9264 37.3452 66.999 38.2726 66.999 39.4166C66.999 40.5606 67.9264 41.488 69.0704 41.488Z" fill="white"/>
<path d="M69.0704 53.9167C70.2144 53.9167 71.1418 52.9893 71.1418 51.8453C71.1418 50.7013 70.2144 49.7739 69.0704 49.7739C67.9264 49.7739 66.999 50.7013 66.999 51.8453C66.999 52.9893 67.9264 53.9167 69.0704 53.9167Z" fill="white"/>
<path d="M69.0704 66.3455C70.2144 66.3455 71.1418 65.4181 71.1418 64.274C71.1418 63.13 70.2144 62.2026 69.0704 62.2026C67.9264 62.2026 66.999 63.13 66.999 64.274C66.999 65.4181 67.9264 66.3455 69.0704 66.3455Z" fill="white"/>
<path d="M69.0704 78.7737C70.2144 78.7737 71.1418 77.8463 71.1418 76.7023C71.1418 75.5583 70.2144 74.6309 69.0704 74.6309C67.9264 74.6309 66.999 75.5583 66.999 76.7023C66.999 77.8463 67.9264 78.7737 69.0704 78.7737Z" fill="white"/>
<path d="M69.0704 91.2024C70.2144 91.2024 71.1418 90.275 71.1418 89.131C71.1418 87.987 70.2144 87.0596 69.0704 87.0596C67.9264 87.0596 66.999 87.987 66.999 89.131C66.999 90.275 67.9264 91.2024 69.0704 91.2024Z" fill="white"/>
<path d="M69.0704 103.63C70.2144 103.63 71.1418 102.703 71.1418 101.559C71.1418 100.415 70.2144 99.4877 69.0704 99.4877C67.9264 99.4877 66.999 100.415 66.999 101.559C66.999 102.703 67.9264 103.63 69.0704 103.63Z" fill="white"/>
<path d="M69.0704 116.059C70.2144 116.059 71.1418 115.132 71.1418 113.988C71.1418 112.844 70.2144 111.917 69.0704 111.917C67.9264 111.917 66.999 112.844 66.999 113.988C66.999 115.132 67.9264 116.059 69.0704 116.059Z" fill="white"/>
<path d="M81.5001 29.0598C82.6441 29.0598 83.5715 28.1324 83.5715 26.9884C83.5715 25.8444 82.6441 24.917 81.5001 24.917C80.3561 24.917 79.4287 25.8444 79.4287 26.9884C79.4287 28.1324 80.3561 29.0598 81.5001 29.0598Z" fill="white"/>
<path d="M81.5001 41.488C82.6441 41.488 83.5715 40.5606 83.5715 39.4166C83.5715 38.2726 82.6441 37.3452 81.5001 37.3452C80.3561 37.3452 79.4287 38.2726 79.4287 39.4166C79.4287 40.5606 80.3561 41.488 81.5001 41.488Z" fill="white"/>
<path d="M81.5001 53.9167C82.6441 53.9167 83.5715 52.9893 83.5715 51.8453C83.5715 50.7013 82.6441 49.7739 81.5001 49.7739C80.3561 49.7739 79.4287 50.7013 79.4287 51.8453C79.4287 52.9893 80.3561 53.9167 81.5001 53.9167Z" fill="white"/>
<path d="M81.5001 66.3455C82.6441 66.3455 83.5715 65.4181 83.5715 64.274C83.5715 63.13 82.6441 62.2026 81.5001 62.2026C80.3561 62.2026 79.4287 63.13 79.4287 64.274C79.4287 65.4181 80.3561 66.3455 81.5001 66.3455Z" fill="white"/>
<path d="M81.5001 78.7737C82.6441 78.7737 83.5715 77.8463 83.5715 76.7023C83.5715 75.5583 82.6441 74.6309 81.5001 74.6309C80.3561 74.6309 79.4287 75.5583 79.4287 76.7023C79.4287 77.8463 80.3561 78.7737 81.5001 78.7737Z" fill="white"/>
<path d="M81.5001 91.2024C82.6441 91.2024 83.5715 90.275 83.5715 89.131C83.5715 87.987 82.6441 87.0596 81.5001 87.0596C80.3561 87.0596 79.4287 87.987 79.4287 89.131C79.4287 90.275 80.3561 91.2024 81.5001 91.2024Z" fill="white"/>
<path d="M81.5001 103.63C82.6441 103.63 83.5715 102.703 83.5715 101.559C83.5715 100.415 82.6441 99.4877 81.5001 99.4877C80.3561 99.4877 79.4287 100.415 79.4287 101.559C79.4287 102.703 80.3561 103.63 81.5001 103.63Z" fill="white"/>
<path d="M93.9288 41.4885C95.0728 41.4885 96.0002 40.5611 96.0002 39.4171C96.0002 38.2731 95.0728 37.3457 93.9288 37.3457C92.7848 37.3457 91.8574 38.2731 91.8574 39.4171C91.8574 40.5611 92.7848 41.4885 93.9288 41.4885Z" fill="white"/>
<path d="M93.9288 53.9167C95.0728 53.9167 96.0002 52.9893 96.0002 51.8453C96.0002 50.7013 95.0728 49.7739 93.9288 49.7739C92.7848 49.7739 91.8574 50.7013 91.8574 51.8453C91.8574 52.9893 92.7848 53.9167 93.9288 53.9167Z" fill="white"/>
<path d="M93.9288 66.3455C95.0728 66.3455 96.0002 65.4181 96.0002 64.274C96.0002 63.13 95.0728 62.2026 93.9288 62.2026C92.7848 62.2026 91.8574 63.13 91.8574 64.274C91.8574 65.4181 92.7848 66.3455 93.9288 66.3455Z" fill="white"/>
<path d="M93.9288 78.7737C95.0728 78.7737 96.0002 77.8463 96.0002 76.7023C96.0002 75.5583 95.0728 74.6309 93.9288 74.6309C92.7848 74.6309 91.8574 75.5583 91.8574 76.7023C91.8574 77.8463 92.7848 78.7737 93.9288 78.7737Z" fill="white"/>
</g>
</g>
</g>
<defs>
<clipPath id="clip0_7_180">
<rect width="96" height="116" fill="white" transform="translate(0 0.0600586)"/>
</clipPath>
<clipPath id="clip1_7_180">
<rect width="96" height="116" fill="white" transform="translate(0 0.0600586)"/>
</clipPath>
</defs>
</svg>
